<?xml version="1.0" encoding="UTF-8" standalone="no"?>
<!-- Created with Inkscape (http://www.inkscape.org/) -->

<svg
   width="1610"
   height="950"
   viewBox="0 0 425.97949 251.35423"
   version="1.1"
   id="svg1"
   inkscape:version="1.4.2 (f4327f4, 2025-05-13)"
   xml:space="preserve"
   sodipodi:docname="campus.svg"
   xmlns:inkscape="http://www.inkscape.org/namespaces/inkscape"
   xmlns:sodipodi="http://sodipodi.sourceforge.net/DTD/sodipodi-0.dtd"
   xmlns="http://www.w3.org/2000/svg"
   xmlns:svg="http://www.w3.org/2000/svg"><sodipodi:namedview
     id="namedview1"
     pagecolor="#ffffff"
     bordercolor="#000000"
     borderopacity="0"
     inkscape:showpageshadow="2"
     inkscape:pageopacity="0.0"
     inkscape:pagecheckerboard="0"
     inkscape:deskcolor="#212123"
     inkscape:document-units="px"
     inkscape:zoom="1"
     inkscape:cx="897.99998"
     inkscape:cy="426.49999"
     inkscape:window-width="1920"
     inkscape:window-height="1052"
     inkscape:window-x="-8"
     inkscape:window-y="-8"
     inkscape:window-maximized="1"
     inkscape:current-layer="layer1" /><defs
     id="defs1" /><path
     style="baseline-shift:baseline;display:inline;overflow:visible;opacity:1;vector-effect:none;fill:#dd7168;fill-opacity:0.960784;stroke-linecap:square;enable-background:accumulate;stop-color:#000000;stop-opacity:1"
     d="m 92.434705,74.931054 16.775295,-0.5858 0.17838,5.10806 -16.775295,0.58581 z"
     id="path66" /><path
     id="path3"
     style="opacity:1;fill:#dd7168;fill-opacity:0.960784;stroke:#000000;stroke-width:2.11667;stroke-linecap:square;stroke-linejoin:miter"
     d="m 104.34747,116.24473 15.11149,-0.52771 c 10.09918,-0.35267 18.00029,-8.82556 17.64761,-18.924746 -0.35267,-10.09917 -8.82557,-18.00027 -18.92475,-17.6476 l -34.540545,1.20618 c -10.09918,0.35267 -18.00029,8.82557 -17.64762,18.92474 0.35267,10.099176 8.82557,18.000286 18.92475,17.647616 l 15.111485,-0.52771"
     sodipodi:nodetypes="ccscsssc" /><path
     style="baseline-shift:baseline;display:inline;overflow:visible;opacity:1;vector-effect:none;fill:#b3dd36;stroke-linecap:square;enable-background:accumulate;stop-color:#000000;stop-opacity:1"
     d="m 63.774015,68.474184 8.81723,12.13587 -21.74344,15.79754 -8.81723,-12.13588 z"
     id="path80" /><path
     style="baseline-shift:baseline;display:inline;overflow:visible;opacity:1;vector-effect:none;stroke-linecap:square;enable-background:accumulate;stop-color:#000000;stop-opacity:1"
     d="m 65.455255,84.487024 -8.63152,6.27145 1.24334,1.71101 8.63203,-6.27145 z"
     id="path96" /><path
     style="baseline-shift:baseline;display:inline;overflow:visible;opacity:1;vector-effect:none;stroke-linecap:square;enable-background:accumulate;stop-color:#000000;stop-opacity:1"
     d="m 46.932345,79.401544 -6.37997,4.63538 10.06089,13.84773 5.66993,-4.11965 -1.24333,-1.71049 -3.95687,2.87476 -7.57369,-10.42416 4.66741,-3.39101 z"
     id="path95" /><path
     style="baseline-shift:baseline;display:inline;overflow:visible;opacity:1;vector-effect:none;stroke-linecap:square;enable-background:accumulate;stop-color:#000000;stop-opacity:1"
     d="m 57.347735,71.834564 -8.63151,6.27197 1.24436,1.71204 8.63152,-6.27197 -1.24437,-1.71204"
     id="path94" /><path
     style="baseline-shift:baseline;display:inline;overflow:visible;opacity:1;vector-effect:none;stroke-linecap:square;enable-background:accumulate;stop-color:#000000;stop-opacity:1"
     d="m 59.131605,70.539554 1.24437,1.71153 3.16466,-2.29909 7.57318,10.42365 -3.87521,2.81533 1.24385,1.71152 5.58622,-4.05866 -10.0614,-13.84825 -6.65954,4.83898"
     id="path93" /><path
     style="baseline-shift:baseline;display:inline;overflow:visible;opacity:1;vector-effect:none;fill:#6897dd;fill-opacity:0.960784;stroke-linecap:square;enable-background:accumulate;stop-color:#000000;stop-opacity:1"
     d="m 46.696135,67.362264 2.27596,3.13539 c 1.21188,1.66949 0.8443,3.99029 -0.82417,5.20358 l -12.439038,9.04556 c -1.66847,1.21329 -3.98729,0.84603 -5.19917,-0.82346 l -2.27596,-3.13539 c -1.21188,-1.66949 -0.8443,-3.99029 0.82417,-5.20358 l 12.439038,-9.04556 c 1.66847,-1.21329 3.98729,-0.84603 5.19917,0.82346 z"
     id="path76" /><path
     id="path77"
     style="baseline-shift:baseline;display:inline;overflow:visible;opacity:1;vector-effect:none;stroke-linecap:square;enable-background:accumulate;stop-color:#000000;stop-opacity:1"
     inkscape:label="14074"
     d="m 43.515505,64.775044 c -0.92122,0.031 -1.84221,0.32718 -2.64015,0.90744 l -5.328358,3.87522 1.24386,1.71204 5.327828,-3.87419 c 1.20908,-0.87922 2.84302,-0.62174 3.72122,0.58808 l 2.27635,3.13624 c 0.8782,1.20982 0.61893,2.84613 -0.59014,3.72536 l -5.32784,3.87521 1.24436,1.71204 5.32733,-3.87418 c 2.12785,-1.54735 2.60439,-4.55467 1.05885,-6.68383 l -2.27635,-3.13572 c -0.96597,-1.33073 -2.50161,-2.01537 -4.03696,-1.96371 z m -9.751858,6.07922 -5.32784,3.87418 c -2.127848,1.54736 -2.60388,4.55209 -1.05833,6.68125 l 2.27634,3.13572 c 1.54555,2.12916 4.54875,2.60621 6.6766,1.05886 l 5.328148,-3.87706 -1.24386,-1.711 -5.328358,3.8747 c -1.20907,0.87923 -2.8425,0.61916 -3.7207,-0.59066 l -2.27635,-3.13625 c -0.8782,-1.20982 -0.61945,-2.84354 0.58963,-3.72277 l 5.32849,-3.87606 z"
     sodipodi:nodetypes="sccccccccccccscccccccsccccc" /><path
     style="baseline-shift:baseline;display:inline;overflow:visible;opacity:1;vector-effect:none;fill:#b3dd36;stroke-linecap:square;enable-background:accumulate;stop-color:#000000;stop-opacity:1"
     d="m 133.59655,69.901184 26.23535,-0.91616 0.32752,9.37909 -26.23535,0.91615 z"
     id="path83" /><path
     id="path84"
     style="baseline-shift:baseline;display:inline;overflow:visible;opacity:1;vector-effect:none;stroke-linecap:square;enable-background:accumulate;stop-color:#000000;stop-opacity:1"
     d="m 160.85201,67.889584 -28.3497,0.99012 0.40152,11.49491 13.07362,-0.45682 -0.0744,-2.11512 2.20297,-0.076 0.0744,2.1146 13.0731,-0.45683 z m -2.04174,2.18953 0.25373,7.26364 -24.11842,0.84181 -0.25374,-7.26312 z" /><path
     style="opacity:1;fill:none;fill-opacity:1;stroke:#000000;stroke-width:0.529167;stroke-linecap:square;stroke-linejoin:miter;stroke-dasharray:none;stroke-opacity:1"
     d="m 61.719525,88.508834 -4.40861,-6.06795 -4.40862,-6.06794"
     id="path8" /><path
     style="opacity:1;fill:none;fill-opacity:1;stroke:#000000;stroke-width:0.529167;stroke-linecap:square;stroke-linejoin:miter;stroke-dasharray:none;stroke-opacity:1"
     d="m 68.182635,74.542114 -10.87172,7.89877 -10.87172,7.89877"
     id="path9" /><path
     style="opacity:1;fill:none;fill-opacity:1;stroke:#000000;stroke-width:0.529167;stroke-linecap:square;stroke-linejoin:miter;stroke-dasharray:none;stroke-opacity:1"
     d="m 146.71422,69.443124 0.16377,4.68952 0.16376,4.68954"
     id="path10" /><path
     style="baseline-shift:baseline;display:inline;overflow:visible;opacity:1;vector-effect:none;fill:#ffcb7d;fill-opacity:0.960784;stroke-linecap:square;enable-background:accumulate;stop-color:#000000;stop-opacity:1"
     d="m 147.99078,81.908594 14.95366,-0.52219 0.43056,12.32976 -14.95366,0.52219 z"
     id="path87"
     sodipodi:nodetypes="ccccc" /><path
     style="baseline-shift:baseline;display:inline;overflow:visible;opacity:1;vector-effect:none;stroke-linecap:square;enable-background:accumulate;stop-color:#000000;stop-opacity:1"
     d="m 147.22105,90.179674 2.1146,-0.0744 -0.25063,-7.18509 2.93832,-0.10283 -0.0744,-2.11564 -5.05344,0.17673 0.50436,14.44615 16.54163,-0.57768 -0.50436,-14.44615 -5.05448,0.17724 0.0744,2.11513 2.93781,-0.10285 0.35656,10.21489 -12.30985,0.42989 -0.0289,-0.8263 -2.11512,0.0739"
     id="path92"
     sodipodi:nodetypes="cccccccccccccccc" /><path
     style="opacity:1;fill:none;fill-opacity:1;stroke:#000000;stroke-width:2.11667;stroke-linecap:square;stroke-linejoin:miter;stroke-dasharray:none;stroke-opacity:1"
     d="m 148.20558,88.046364 6.7001,-0.23396 6.7001,-0.23397"
     id="path11"
     sodipodi:nodetypes="ccc" /><path
     style="baseline-shift:baseline;display:inline;overflow:visible;opacity:1;vector-effect:none;fill:#dd7168;fill-opacity:0.960784;stroke-linecap:square;enable-background:accumulate;stop-color:#000000;stop-opacity:1"
     d="m 195.55858,125.17237 h 27.0732 v -0.61638 h 13.58318 l 0.003,14.13266 -40.65783,-2.56011 z"
     id="path90"
     sodipodi:nodetypes="ccccccc" /><path
     id="path91"
     style="baseline-shift:baseline;display:inline;overflow:visible;opacity:1;vector-effect:none;stroke-linecap:square;enable-background:accumulate;stop-color:#000000;stop-opacity:1"
     d="m 221.57388,123.49807 v 0.61547 h -27.07432 l 0.002,13.00954 20.30108,1.27795 -0.0351,-2.12338 -18.14876,-1.14308 -0.002,-8.90385 h 27.07432 v -0.61546 h 11.46648 l 0.002,11.94707 -18.18442,-1.14567 0.0357,2.12338 20.26594,1.2759 -0.004,-16.31787 z"
     sodipodi:nodetypes="ccccccccccccccccc" /><path
     style="baseline-shift:baseline;display:inline;overflow:visible;opacity:1;vector-effect:none;fill:#9adbf8;stroke-linecap:square;enable-background:accumulate;stop-color:#000000;stop-opacity:1"
     d="m 283.55071,146.3754 27.12238,-34.55024 6.50031,-0.22699 0.93874,1.05288 2.73148,-0.0954 0.86283,-1.1158 10.49388,-0.36645 0.93877,1.05294 15.52488,-0.54218 0.44841,12.84062 -14.09102,0.49231 0.0435,1.24434 -3.43681,0.12001 -0.0436,-1.24417 -2.2578,0.0726 0.0436,1.24442 -1.65322,0.0547 -0.0439,-1.24722 -5.3799,0.20175 -24.97503,31.81535 z"
     id="path141" /><path
     id="path142"
     style="baseline-shift:baseline;display:inline;overflow:visible;opacity:1;vector-effect:none;stroke-linecap:square;enable-background:accumulate;stop-color:#000000;stop-opacity:1"
     d="m 332.6596,109.99812 -11.48612,0.40256 -0.86351,1.11518 -1.73788,0.0605 -0.93948,-1.05265 -7.48843,0.26148 -28.07994,35.7694 5.98258,4.69428 10e-4,-0.002 0.65371,-0.83251 0.65216,-0.83095 -4.31705,-3.38843 26.16584,-33.33026 5.51181,-0.1912 0.93741,1.05265 3.72484,-0.13075 0.86299,-1.11517 9.50227,-0.33228 0.93741,1.05265 14.96497,-0.52142 0.37311,10.72493 -14.0901,0.49196 0.0429,1.24437 -1.32188,0.0465 -0.0434,-1.24178 -3.9119,0.12454 v -0.006 l -6.92981,0.25993 -24.62486,31.36914 -6.05027,-4.74855 -0.65371,0.832 -0.65319,0.8325 7.71633,6.05493 25.32662,-32.26211 3.82767,-0.14418 0.045,1.24385 3.76773,-0.12505 -0.0429,-1.24386 0.14263,-0.004 0.0429,1.24799 5.55263,-0.19534 -0.0429,-1.24385 14.08958,-0.49248 -0.52141,-14.95516 -16.08584,0.56069 z" /><path
     style="baseline-shift:baseline;display:inline;overflow:visible;opacity:1;vector-effect:none;stroke-linecap:square;enable-background:accumulate;stop-color:#000000;stop-opacity:1"
     d="m 330.46439,127.3764 -0.043,-1.24414 0.14258,-0.004 0.043,1.24805 z"
     id="path22"
     sodipodi:nodetypes="ccccc"
     inkscape:label="filler" /><path
     style="baseline-shift:baseline;display:inline;overflow:visible;opacity:1;vector-effect:none;fill:#17b69c;stroke-linecap:square;enable-background:accumulate;stop-color:#000000;stop-opacity:1"
     d="m 275.21769,42.180784 42.976,-1.50076 0.31847,9.1199 -42.97599,1.50076 z"
     id="path120" /><path
     id="path121"
     style="baseline-shift:baseline;display:inline;overflow:visible;opacity:1;vector-effect:none;stroke-linecap:square;enable-background:accumulate;stop-color:#000000;stop-opacity:1"
     d="m 319.21494,39.585894 -45.09181,1.57458 0.15761,4.516 h 5.1e-4 l 2.11512,-0.0744 5.1e-4,-1e-5 -0.0837,-2.39985 40.85952,-1.42679 0.24443,7.00371 -40.85952,1.42678 -0.0837,-2.40088 h -10e-4 l -2.11511,0.0744 0.15761,4.51652 45.09182,-1.57458 z" /><path
     style="baseline-shift:baseline;display:inline;overflow:visible;opacity:1;vector-effect:none;fill:#17b69c;stroke-linecap:square;enable-background:accumulate;stop-color:#000000;stop-opacity:1"
     d="m 276.27601,56.732884 42.97598,-1.50076 0.31848,9.1199 -42.97599,1.50076 z"
     id="path122" /><path
     id="path123"
     style="baseline-shift:baseline;display:inline;overflow:visible;opacity:1;vector-effect:none;stroke-linecap:square;enable-background:accumulate;stop-color:#000000;stop-opacity:1"
     d="m 320.27224,54.137974 -45.09182,1.57458 0.15761,4.51651 10e-4,10e-6 2.11511,-0.0744 -0.0837,-2.40037 40.86159,-1.42679 0.24442,7.0037 -40.86158,1.42679 -0.16072,-4.60333 0.0765,2.20296 -2.11511,0.0744 -5.2e-4,10e-6 0.15761,4.516 45.09183,-1.5751 z" /><path
     style="baseline-shift:baseline;display:inline;overflow:visible;opacity:1;vector-effect:none;fill:#17b69c;stroke-linecap:square;enable-background:accumulate;stop-color:#000000;stop-opacity:1"
     d="m 280.50928,71.284924 42.97599,-1.50075 0.31847,9.1199 -42.97599,1.50075 z"
     id="path124" /><path
     id="path125"
     style="baseline-shift:baseline;display:inline;overflow:visible;opacity:1;vector-effect:none;stroke-linecap:square;enable-background:accumulate;stop-color:#000000;stop-opacity:1"
     d="m 324.50505,68.690564 -45.08974,1.57459 0.15761,4.51548 2.11408,-0.0744 -0.0837,-2.40141 40.86158,-1.42678 0.24495,7.00578 -40.86211,1.42678 -0.0837,-2.40141 -2.11409,0.0744 0.15813,4.51652 45.08976,-1.57458 z" /><path
     style="baseline-shift:baseline;display:inline;overflow:visible;opacity:1;vector-effect:none;fill:#17b69c;stroke-linecap:square;enable-background:accumulate;stop-color:#000000;stop-opacity:1"
     d="m 277.86346,85.837024 42.976,-1.50076 0.31847,9.11991 -42.97599,1.50076 z"
     id="path126" /><path
     id="path127"
     style="baseline-shift:baseline;display:inline;overflow:visible;opacity:1;vector-effect:none;stroke-linecap:square;enable-background:accumulate;stop-color:#000000;stop-opacity:1"
     d="m 321.86077,83.240584 -45.09129,1.57458 0.1576,4.51755 2.11409,-0.0744 -0.0837,-2.40088 40.86159,-1.42679 0.24443,7.00526 -40.86159,1.4273 -0.0837,-2.40193 -2.11408,0.0744 0.15762,4.51497 45.09181,-1.57458 z" /><path
     style="baseline-shift:baseline;display:inline;overflow:visible;opacity:1;vector-effect:none;fill:#17b69c;stroke-linecap:square;enable-background:accumulate;stop-color:#000000;stop-opacity:1"
     d="m 338.03371,72.372244 h 11.66786 v 11.66786 h -11.66786 z"
     id="path133" /><path
     id="path134"
     style="baseline-shift:baseline;display:inline;overflow:visible;opacity:1;vector-effect:none;stroke-linecap:square;enable-background:accumulate;stop-color:#000000;stop-opacity:1"
     d="m 336.97613,71.314704 v 13.78313 h 5.78931 v -2.11511 h -3.67419 v -9.55291 h 9.5529 v 9.55291 h -3.67471 l 5.2e-4,2.11511 h 5.78931 v -13.78313 z" /><path
     style="baseline-shift:baseline;display:inline;overflow:visible;opacity:1;vector-effect:none;fill:#17b69c;stroke-linecap:square;enable-background:accumulate;stop-color:#000000;stop-opacity:1"
     d="m 335.74141,93.144554 h 11.66785 v 11.667856 h -11.66785 z"
     id="path135" /><path
     id="path136"
     style="baseline-shift:baseline;display:inline;overflow:visible;opacity:1;vector-effect:none;stroke-linecap:square;enable-background:accumulate;stop-color:#000000;stop-opacity:1"
     d="m 334.68251,92.086044 v 13.785196 h 13.78521 V 92.086044 h -5.78983 v 0.10232 h -5.2e-4 l 5.2e-4,2.01486 h 3.67264 v 9.550836 h -9.55084 v -9.550836 h 3.67317 v -0.11162 h 5.1e-4 l -5.1e-4,-2.00556 z" /><path
     style="opacity:1;fill:none;fill-opacity:1;stroke:#000000;stroke-width:2.11667;stroke-linecap:square;stroke-linejoin:miter;stroke-dasharray:none;stroke-opacity:1"
     d="m 295.84991,79.880244 0.18585,5.32219"
     id="path39" /><path
     style="opacity:1;fill:none;fill-opacity:1;stroke:#000000;stroke-width:2.11667;stroke-linecap:square;stroke-linejoin:miter;stroke-dasharray:none;stroke-opacity:1"
     d="m 295.3372,65.198274 0.19423,5.56206"
     id="path37" /><path
     style="opacity:1;fill:none;fill-opacity:1;stroke:#000000;stroke-width:2.11667;stroke-linecap:square;stroke-linejoin:miter;stroke-dasharray:none;stroke-opacity:1"
     d="m 294.82836,50.626984 0.19037,5.45138"
     id="path35" /><path
     style="opacity:1;fill:none;fill-opacity:1;stroke:#000000;stroke-width:2.11667;stroke-linecap:square;stroke-linejoin:miter;stroke-dasharray:none;stroke-opacity:1"
     d="m 294.32403,36.184934 0.18585,5.32215"
     id="path33" /><path
     id="rect41"
     style="opacity:1;fill:#cfcfcf;fill-opacity:1;stroke:#000000;stroke-width:0.529167;stroke-linecap:square;stroke-dasharray:none"
     inkscape:label="6904"
     d="m 154.08068,110.14966 29.33029,-1.02423 c 1.0114,-0.0353 1.85408,0.75048 1.8894,1.76188 l 0.88907,25.45972 c 0.0353,1.01141 -0.75034,1.85848 -1.76189,1.8894 l -36.40173,1.11263 c -1.01153,0.0313 -2.12741,-0.77827 -1.88939,-1.76189 l 6.18236,-25.54812 c 0.23803,-0.98362 0.75048,-1.85407 1.76189,-1.88939 z"
     sodipodi:nodetypes="sssssssss" /><path
     id="rect42"
     style="opacity:1;fill:#cfcfcf;fill-opacity:1;stroke:#000000;stroke-width:0.529167;stroke-linecap:square;stroke-dasharray:none"
     inkscape:label="6904"
     d="m 334.39326,31.463334 19.90318,-0.69503 c 0.68632,-0.024 1.2673,0.77097 1.30262,1.78237 l 0.88907,25.45973 c 0.0353,1.0114 -0.5285,1.63757 -1.17512,1.86891 l -19.68156,7.04115 c -0.68633,0.0239 -1.2673,-0.77098 -1.30262,-1.78237 l -1.11068,-31.80586 c -0.0353,-1.0114 0.48877,-1.84493 1.17511,-1.8689 z"
     sodipodi:nodetypes="scscscscs" /><path
     id="path47"
     style="opacity:1;fill:#cfcfcf;fill-opacity:1;stroke:#cfcfcf;stroke-width:1.5875;stroke-linecap:square;stroke-dasharray:none;stroke-opacity:1"
     d="m 295.25846,175.89663 c -20.77186,-2.18334 -35.84094,-20.79207 -33.65774,-41.5639 -2.18322,20.77183 -20.79196,35.84088 -41.56382,33.6578 20.77186,2.18332 35.84093,20.79206 33.65772,41.56388 2.1832,-20.77182 20.79196,-35.84088 41.56384,-33.65778 z"
     sodipodi:nodetypes="ccccc"
     inkscape:label="6" /><path
     style="opacity:1;fill:none;fill-opacity:1;stroke:#cfcfcf;stroke-width:1.5875;stroke-linecap:square;stroke-linejoin:miter;stroke-dasharray:none;stroke-opacity:1"
     d="m 220.03689,167.99052 -21.88935,-1.5896 C 178.04575,164.94113 93.602595,151.42455 20.065117,112.71283"
     id="path54"
     sodipodi:nodetypes="csc" /><path
     style="opacity:1;fill:none;fill-opacity:1;stroke:#cfcfcf;stroke-width:1.5875;stroke-linecap:square;stroke-linejoin:miter;stroke-dasharray:none;stroke-opacity:1"
     d="m 295.25846,175.89662 c 0,0 0,10e-6 19.11371,2.00893 14.22753,1.49537 34.42911,3.04509 83.76635,-4.92623"
     id="path55"
     sodipodi:nodetypes="csc" /><path
     style="opacity:1;fill:none;fill-opacity:1;stroke:#cfcfcf;stroke-width:1.5875;stroke-linecap:square;stroke-linejoin:miter;stroke-dasharray:none;stroke-opacity:1"
     d="M 253.69462,209.55442 251.961,226.0487"
     id="path56"
     sodipodi:nodetypes="cc" /><path
     style="opacity:1;fill:none;fill-opacity:1;stroke:#cfcfcf;stroke-width:1.5875;stroke-linecap:square;stroke-linejoin:miter;stroke-dasharray:none;stroke-opacity:1"
     d="m 261.60073,134.33272 3.571,-33.97572 61.28091,-2.039976 1.15546,-73.57509"
     id="path57"
     sodipodi:nodetypes="cccc" /><path
     style="baseline-shift:baseline;display:none;overflow:visible;opacity:1;vector-effect:none;stroke-linecap:square;enable-background:accumulate;stop-color:#000000;stop-opacity:1"
     d="m 171.74688,245.37185 -0.0742,-2.11523 2.20313,-0.0762 0.0742,2.11523 z"
     id="path64"
     sodipodi:nodetypes="ccccc"
     inkscape:label="entrance" /><path
     id="path67"
     style="baseline-shift:baseline;display:inline;overflow:visible;opacity:1;vector-effect:none;stroke-linecap:square;enable-background:accumulate;stop-color:#000000;stop-opacity:1"
     d="m 110.23132,73.251534 -18.890835,0.65939 0.10246,2.90539 2.11527,-0.0732 -0.0282,-0.79204 14.659055,-0.51212 0.0284,0.79116 2.11512,-0.0739 z"
     sodipodi:nodetypes="ccccccccc" /><path
     style="baseline-shift:baseline;display:inline;overflow:visible;opacity:1;vector-effect:none;fill:#17b69c;stroke-linecap:square;enable-background:accumulate;stop-color:#000000;stop-opacity:1"
     d="m 277.86351,27.628734 42.976,-1.50076 0.31847,9.1199 -42.97599,1.50076 z"
     id="path118" /><path
     id="path119"
     style="baseline-shift:baseline;display:inline;overflow:visible;opacity:1;vector-effect:none;stroke-linecap:square;enable-background:accumulate;stop-color:#000000;stop-opacity:1"
     d="m 321.86078,25.033284 -45.09131,1.57459 0.15762,4.51652 2.11511,-0.0744 h 5.2e-4 l -0.0837,-2.39985 40.86003,-1.42679 0.24443,7.00319 -40.86004,1.4273 -0.0837,-2.40088 h -10e-4 l -2.1146,0.0744 0.15761,4.516 45.09131,-1.57458 z" /><path
     id="path69"
     style="opacity:1;fill:none;fill-opacity:0.960784;stroke:#000000;stroke-width:0.529167;stroke-linecap:square"
     d="m 86.086855,110.10213 c -6.39741,0.2234 -11.76354,-4.75057 -11.98561,-11.109666 -0.22206,-6.35911 4.78404,-11.69528 11.18145,-11.91868 l 31.730685,-1.10806 m 0,0 c 6.39741,-0.2234 11.76354,4.75056 11.98561,11.10966 0.22206,6.359106 -4.78404,11.695286 -11.18145,11.918686 l -31.730685,1.10806" /><path
     id="path103"
     style="opacity:1;fill:#ffcd82;fill-opacity:1;stroke:none;stroke-width:2.11667;stroke-linecap:square;stroke-linejoin:miter;stroke-dasharray:none;stroke-opacity:1"
     d="m 23.579256,106.74459 1.719792,-4.10105 c 67.372097,35.15063 143.018392,48.93362 201.067952,54.55126 5.79974,0.56126 8.04481,0.93546 11.4124,-1.87087 3.36759,-2.80633 9.9345,-7.67066 11.80539,-11.41242 1.8709,-3.74177 1.68382,-17.77342 1.8709,-28.0633 0.18709,-10.28986 -1.89748,-86.634796 -1.89748,-86.634796 l 18.28378,-1.12252 3.70417,66.93958 -15.37337,1.12252 c 0,0 -0.56126,13.903276 -0.74835,24.193136 -0.18708,10.28988 -0.37417,23.38609 -2.24507,27.12786 -1.87089,3.74176 -9.91571,9.54153 -13.2833,12.34786 -3.36759,2.80633 -5.61266,2.43213 -11.4124,1.87087 -58.04956,-5.61764 -137.532315,-19.7975 -204.904414,-54.94813"
     sodipodi:nodetypes="ccssssccccssssc" /><path
     id="path105"
     style="opacity:1;fill:#ffcd82;fill-opacity:1;stroke:none;stroke-width:2.11667;stroke-linecap:square;stroke-linejoin:miter;stroke-dasharray:none;stroke-opacity:1"
     d="m 397.94755,167.09599 c -82.70988,11.80143 -115.47144,-2.21479 -117.38079,-3.20141 -2.30413,-1.19061 -8.75601,-9.6573 -11.15613,-13.22917 -2.40011,-3.57188 -1.02883,-6.21771 -1.02883,-11.1125 0,-4.89479 2.0977,-34.14056 2.0977,-34.14056 l 5.23376,0.28848 m 0,0 c 0,0 -1.56853,26.07077 -1.56853,30.96556 0,4.89479 -0.83158,9.00314 1.56853,12.57502 2.40012,3.57187 6.7248,9.51771 9.02893,10.70832 1.90276,0.98321 31.19736,13.98773 112.14684,2.08418 l 1.05852,5.06208"
     sodipodi:nodetypes="cssscccsssc" /><path
     style="opacity:1;fill:none;fill-opacity:1;stroke:#ffcd82;stroke-width:2.11667;stroke-linecap:square;stroke-linejoin:miter;stroke-dasharray:none;stroke-opacity:1"
     d="m 254.70946,139.4402 13.65228,1.15379"
     id="path106" /><path
     style="opacity:1;fill:none;fill-opacity:1;stroke:#ffcd82;stroke-width:2.11667;stroke-linecap:square;stroke-linejoin:miter;stroke-dasharray:none;stroke-opacity:1"
     d="m 206.63718,159.26894 -0.53634,6.81918"
     id="path107"
     sodipodi:nodetypes="cc" /><path
     style="opacity:1;fill:none;fill-opacity:1;stroke:#ffcd82;stroke-width:2.11667;stroke-linecap:square;stroke-linejoin:miter;stroke-dasharray:none;stroke-opacity:1"
     d="m 118.85051,142.59377 -1.82566,6.58672"
     id="path108"
     sodipodi:nodetypes="cc" /><path
     style="opacity:1;fill:none;fill-opacity:1;stroke:#ffcd82;stroke-width:2.11667;stroke-linecap:square;stroke-linejoin:miter;stroke-dasharray:none;stroke-opacity:1"
     d="m 52.567885,120.33926 -2.22866,5.60703"
     id="path109"
     sodipodi:nodetypes="cc" /><path
     style="opacity:1;fill:none;fill-opacity:1;stroke:#ffcd82;stroke-width:2.11667;stroke-linecap:square;stroke-linejoin:miter;stroke-dasharray:none;stroke-opacity:1"
     d="m 329.63602,171.94357 -0.171,6.18697"
     id="path110"
     sodipodi:nodetypes="cc" /><path
     style="opacity:1;fill:none;fill-opacity:1;stroke:#000000;stroke-width:2.11667;stroke-linecap:round;stroke-linejoin:round;stroke-dasharray:none;stroke-opacity:1"
     d="m 335.47034,98.978474 -3.18484,0.21014"
     id="path144" /><path
     id="path146"
     style="opacity:1;fill:none;fill-opacity:1;stroke:#cfcfcf;stroke-width:1.5875;stroke-linecap:round;stroke-linejoin:round;stroke-dasharray:none;stroke-opacity:1"
     d="m 326.58209,90.074614 26.4034,-1.18941 0.33073,-19.10104 -4.31718,-11.822 m 4.31718,11.822 -26.40896,-0.41473"
     sodipodi:nodetypes="cccccc" /><path
     style="opacity:1;fill:none;fill-opacity:1;stroke:#cfcfcf;stroke-width:1.5875;stroke-linecap:square;stroke-linejoin:miter;stroke-dasharray:none;stroke-opacity:1"
     d="m 352.98549,88.885204 5.06344,77.371386"
     id="path147" /><path
     style="opacity:1;fill:none;fill-opacity:1;stroke:#cfcfcf;stroke-width:1.5875;stroke-linecap:square;stroke-linejoin:miter;stroke-dasharray:none;stroke-opacity:1"
     d="M 274.94775,100.03157 271.54616,28.090894"
     id="path148" /><path
     style="opacity:1;fill:none;fill-opacity:1;stroke:#000000;stroke-width:2.11667;stroke-linecap:square;stroke-linejoin:miter;stroke-dasharray:none;stroke-opacity:1"
     d="m 333.1391,112.12633 -1.78329,-27.028506 4.11453,-5.20845 h 2.56337"
     id="path143" /><path
     style="opacity:1;fill:none;fill-opacity:1;stroke:#000000;stroke-width:2.11667;stroke-linecap:square;stroke-linejoin:miter;stroke-dasharray:none;stroke-opacity:1"
     d="m 296.35424,94.322334 0.49595,14.202236 10.45241,7.59414"
     id="path41" /><ellipse
     style="opacity:1;fill:#ffffff;fill-opacity:1;stroke:none;stroke-width:0.529167;stroke-linecap:square;stroke-linejoin:miter;stroke-dasharray:none;stroke-opacity:1"
     id="path42"
     cx="274.20923"
     cy="144.07011"
     rx="9.3395023"
     ry="9.339447"
     transform="rotate(6.0000002)" /><path
     style="opacity:1;fill:none;fill-opacity:1;stroke:#cfcfcf;stroke-width:1.5875;stroke-linecap:round;stroke-linejoin:round;stroke-dasharray:none;stroke-opacity:1"
     d="m 182.30486,134.76485 -4.70511,28.98857"
     id="path4" /><path
     style="opacity:1;fill:none;fill-opacity:1;stroke:#cfcfcf;stroke-width:1.5875;stroke-linecap:square;stroke-linejoin:miter;stroke-dasharray:none;stroke-opacity:1"
     d="m 101.55011,123.14279 -6.602885,20.52987"
     id="path5" /><path
     style="opacity:1;fill:none;fill-opacity:1;stroke:#cfcfcf;stroke-width:1.5875;stroke-linecap:square;stroke-linejoin:miter;stroke-dasharray:none;stroke-opacity:1;paint-order:normal"
     d="m 38.275755,107.86938 -5.669068,11.15948"
     id="path6"
     sodipodi:nodetypes="cc" /><g
     inkscape:groupmode="layer"
     id="layer2"
     inkscape:label="Labels"><text
       xml:space="preserve"
       style="font-size:10.053px;line-height:1.1;font-family:'Red Hat Mono';-inkscape-font-specification:'Red Hat Mono';text-align:end;text-anchor:end;display:inline;fill:#17b69c;fill-opacity:1;stroke:#000000;stroke-width:0.35269;stroke-linecap:round;stroke-linejoin:round;stroke-dasharray:none;stroke-opacity:1"
       x="304.01688"
       y="144.56616"
       id="text1614"><tspan
         sodipodi:role="line"
         id="tspan1614"
         style="font-style:normal;font-variant:normal;font-weight:normal;font-stretch:normal;font-family:Roboto, sans-serif;-inkscape-font-specification:Roboto;fill:#000000;fill-opacity:1;stroke:none;stroke-width:0.35269"
         x="304.01688"
         y="144.56616">IU</tspan></text><text
       xml:space="preserve"
       style="font-size:10.053px;line-height:1.1;font-family:'Red Hat Mono';-inkscape-font-specification:'Red Hat Mono';text-align:center;text-anchor:middle;display:inline;fill:#17b69c;fill-opacity:1;stroke:#000000;stroke-width:0.35269;stroke-linecap:round;stroke-linejoin:round;stroke-dasharray:none;stroke-opacity:1"
       x="101.69247"
       y="101.75472"
       id="text148"><tspan
         sodipodi:role="line"
         id="tspan148"
         style="font-style:normal;font-variant:normal;font-weight:normal;font-stretch:normal;font-family:Roboto, sans-serif;-inkscape-font-specification:Roboto;text-align:center;text-anchor:middle;fill:#000000;fill-opacity:1;stroke:none;stroke-width:0.35269"
         x="101.69247"
         y="101.75472">Stadium</tspan></text><text
       xml:space="preserve"
       style="font-size:10.053px;line-height:1.1;font-family:'Red Hat Mono';-inkscape-font-specification:'Red Hat Mono';text-align:center;text-anchor:middle;display:inline;fill:#17b69c;fill-opacity:1;stroke:#000000;stroke-width:0.35269;stroke-linecap:round;stroke-linejoin:round;stroke-dasharray:none;stroke-opacity:1"
       x="215.91772"
       y="134.66669"
       id="text149"><tspan
         sodipodi:role="line"
         id="tspan149"
         style="font-style:normal;font-variant:normal;font-weight:normal;font-stretch:normal;font-family:Roboto, sans-serif;-inkscape-font-specification:Roboto;text-align:center;text-anchor:middle;fill:#000000;fill-opacity:1;stroke:none;stroke-width:0.35269"
         x="215.91772"
         y="134.66669">SC</tspan></text><text
       xml:space="preserve"
       style="font-size:2.82222px;line-height:1.1;font-family:'Red Hat Mono';-inkscape-font-specification:'Red Hat Mono';text-align:center;text-anchor:middle;display:inline;fill:#17b69c;fill-opacity:1;stroke:#000000;stroke-width:0.35269;stroke-linecap:round;stroke-linejoin:round;stroke-dasharray:none;stroke-opacity:1"
       x="57.321465"
       y="83.088638"
       id="text150"><tspan
         sodipodi:role="line"
         id="tspan150"
         style="font-style:normal;font-variant:normal;font-weight:normal;font-stretch:normal;font-size:2.82222px;font-family:Roboto, sans-serif;-inkscape-font-specification:Roboto;text-align:center;text-anchor:middle;fill:#000000;fill-opacity:1;stroke:none;stroke-width:0.35269"
         x="57.321465"
         y="83.088638">Tennis courts</tspan></text><text
       xml:space="preserve"
       style="font-size:2.82222px;line-height:1.1;font-family:'Red Hat Mono';-inkscape-font-specification:'Red Hat Mono';text-align:center;text-anchor:middle;display:inline;fill:#17b69c;fill-opacity:1;stroke:#000000;stroke-width:0.35269;stroke-linecap:round;stroke-linejoin:round;stroke-dasharray:none;stroke-opacity:1"
       x="38.517616"
       y="76.400024"
       id="text1"><tspan
         sodipodi:role="line"
         id="tspan1"
         style="font-style:normal;font-variant:normal;font-weight:normal;font-stretch:normal;font-size:2.82222px;font-family:Roboto, sans-serif;-inkscape-font-specification:Roboto;text-align:center;text-anchor:middle;fill:#000000;fill-opacity:1;stroke:none;stroke-width:0.35269"
         x="38.517616"
         y="76.400024">Hockey box</tspan></text><text
       xml:space="preserve"
       style="font-size:2.82222px;line-height:1.1;font-family:'Red Hat Mono';-inkscape-font-specification:'Red Hat Mono';text-align:center;text-anchor:middle;display:inline;fill:#17b69c;fill-opacity:1;stroke:#000000;stroke-width:0.35269;stroke-linecap:round;stroke-linejoin:round;stroke-dasharray:none;stroke-opacity:1"
       x="146.48062"
       y="75.177208"
       id="text2"><tspan
         sodipodi:role="line"
         id="tspan2"
         style="font-style:normal;font-variant:normal;font-weight:normal;font-stretch:normal;font-size:2.82222px;font-family:Roboto, sans-serif;-inkscape-font-specification:Roboto;text-align:center;text-anchor:middle;fill:#000000;fill-opacity:1;stroke:none;stroke-width:0.35269"
         x="146.48062"
         y="75.177208">Basketball courts</tspan></text><text
       xml:space="preserve"
       style="font-size:2.82222px;line-height:1.1;font-family:'Red Hat Mono';-inkscape-font-specification:'Red Hat Mono';text-align:center;text-anchor:middle;display:inline;fill:#17b69c;fill-opacity:1;stroke:#000000;stroke-width:0.35269;stroke-linecap:round;stroke-linejoin:round;stroke-dasharray:none;stroke-opacity:1"
       x="155.3658"
       y="87.380699"
       id="text3"><tspan
         sodipodi:role="line"
         id="tspan3"
         style="font-style:normal;font-variant:normal;font-weight:normal;font-stretch:normal;font-size:2.82222px;font-family:Roboto, sans-serif;-inkscape-font-specification:Roboto;text-align:center;text-anchor:middle;fill:#000000;fill-opacity:1;stroke:none;stroke-width:0.35269"
         x="155.3658"
         y="87.380699"
         dy="-0.92000002">Volleyball</tspan><tspan
         sodipodi:role="line"
         style="font-style:normal;font-variant:normal;font-weight:normal;font-stretch:normal;font-size:2.82222px;font-family:Roboto, sans-serif;-inkscape-font-specification:Roboto;text-align:center;text-anchor:middle;fill:#000000;fill-opacity:1;stroke:none;stroke-width:0.35269"
         x="155.3658"
         y="90.590492"
         id="tspan4">courts</tspan></text><text
       xml:space="preserve"
       style="font-size:10.053px;line-height:1.1;font-family:'Red Hat Mono';-inkscape-font-specification:'Red Hat Mono';text-align:end;text-anchor:end;display:inline;fill:#17b69c;fill-opacity:1;stroke:#000000;stroke-width:0.35269;stroke-linecap:round;stroke-linejoin:round;stroke-dasharray:none;stroke-opacity:1"
       x="313.18423"
       y="22.584341"
       id="text6"><tspan
         sodipodi:role="line"
         id="tspan6"
         style="font-style:normal;font-variant:normal;font-weight:normal;font-stretch:normal;font-family:Roboto, sans-serif;-inkscape-font-specification:Roboto;fill:#000000;fill-opacity:1;stroke:none;stroke-width:0.35269"
         x="313.18423"
         y="22.584341">Dorms</tspan></text><text
       xml:space="preserve"
       style="font-size:10.053px;line-height:1.1;font-family:'Red Hat Mono';-inkscape-font-specification:'Red Hat Mono';text-align:end;text-anchor:end;display:inline;fill:#17b69c;fill-opacity:1;stroke:#000000;stroke-width:0.35269;stroke-linecap:round;stroke-linejoin:round;stroke-dasharray:none;stroke-opacity:1"
       x="103.54797"
       y="-358.94012"
       id="text7"
       transform="rotate(90)"><tspan
         sodipodi:role="line"
         id="tspan7"
         style="font-style:normal;font-variant:normal;font-weight:normal;font-stretch:normal;font-family:Roboto, sans-serif;-inkscape-font-specification:Roboto;fill:#000000;fill-opacity:1;stroke:none;stroke-width:0.35269"
         x="103.54797"
         y="-358.94012">Dorms</tspan></text></g><g
     inkscape:groupmode="layer"
     id="layer1"
     inkscape:label="Selections"><path
       id="stadium"
       style="opacity:0"
       d="m 109.20992,74.34537 -16.775209,0.585495 0.178284,5.106667 -8.97155,0.31316 c -10.09918,0.35267 -18.000697,8.825782 -17.648027,18.924952 0.35267,10.099176 8.825772,18.000176 18.924952,17.647506 l 15.11175,-0.52761 4.31757,-0.1509 15.11123,-0.52761 c 10.09918,-0.35267 18.00019,-8.82577 17.64751,-18.924956 -0.35267,-10.09917 -8.82526,-18.000181 -18.92444,-17.647511 l -8.79378,0.306958 z"
       inkscape:label="stadium" /><path
       style="opacity:0"
       d="m 46.696135,67.362264 2.27596,3.13539 c 1.21188,1.66949 0.8443,3.99029 -0.82417,5.20358 l -12.439038,9.04556 c -1.66847,1.21329 -3.98729,0.84603 -5.19917,-0.82346 l -2.27596,-3.13539 c -1.21188,-1.66949 -0.8443,-3.99029 0.82417,-5.20358 l 12.439038,-9.04556 c 1.66847,-1.21329 3.98729,-0.84603 5.19917,0.82346 z"
       id="hockey-box"
       inkscape:label="hockey-box" /><path
       style="opacity:0"
       d="m 57.310915,82.440886 -4.408617,-6.067939 -10.871722,7.898767 4.40862,6.067941 z"
       id="tc-1"
       inkscape:label="tennis-court-1" /><path
       style="opacity:0"
       d="m 61.719533,88.508824 -4.408617,-6.067939 -10.871722,7.898767 4.40862,6.067941 z"
       id="tc-3"
       inkscape:label="tennis-court-3" /><path
       style="opacity:0"
       d="m 72.591255,80.610057 -4.408617,-6.067939 -10.871722,7.898767 4.40862,6.067941 z"
       id="tc-4"
       inkscape:label="tennis-court-4" /><path
       style="opacity:0"
       d="m 68.182634,74.542115 -4.408617,-6.067939 -10.871722,7.898767 4.40862,6.067941 z"
       id="tc-2"
       inkscape:label="tennis-court-2" /><path
       style="opacity:0"
       d="m 146.71423,69.443104 0.32752,9.379082 -13.11768,0.458079 -0.32752,-9.37908 z"
       id="bc-1"
       inkscape:label="basketball-court-1" /><path
       style="opacity:0"
       d="m 159.83191,68.985024 0.32752,9.379082 -13.11768,0.458079 -0.32752,-9.37908 z"
       id="bc-2"
       inkscape:label="basketball-court-2" /><path
       style="opacity:0"
       d="m 162.64723,87.542074 -0.21433,-6.137805 -14.44212,0.504325 0.2148,6.137771 z"
       id="vc-1"
       inkscape:label="volleyball-court-1" /><path
       style="opacity:0"
       d="m 162.86156,93.679879 -0.21433,-6.137805 -14.44212,0.504325 0.2148,6.137771 z"
       id="vc-2"
       inkscape:label="volleyball-court-2" /><path
       id="parking-sc"
       style="opacity:0"
       inkscape:label="parking-sc"
       d="m 154.08068,110.14966 29.33029,-1.02423 c 1.0114,-0.0353 1.85408,0.75048 1.8894,1.76188 l 0.88907,25.45972 c 0.0353,1.01141 -0.75034,1.85848 -1.76189,1.8894 l -36.40173,1.11263 c -1.01153,0.0313 -2.12741,-0.77827 -1.88939,-1.76189 l 6.18236,-25.54812 c 0.23803,-0.98362 0.75048,-1.85407 1.76189,-1.88939 z"
       sodipodi:nodetypes="sssssssss" /><path
       id="parking-dorms"
       style="opacity:0"
       inkscape:label="parking-dorms"
       d="m 334.39326,31.463334 19.90318,-0.69503 c 0.68632,-0.024 1.2673,0.77097 1.30262,1.78237 l 0.88907,25.45973 c 0.0353,1.0114 -0.5285,1.63757 -1.17512,1.86891 l -19.68156,7.04115 c -0.68633,0.0239 -1.2673,-0.77098 -1.30262,-1.78237 l -1.11068,-31.80586 c -0.0353,-1.0114 0.48877,-1.84493 1.17511,-1.8689 z"
       sodipodi:nodetypes="scscscscs" /><path
       style="opacity:0"
       d="m 195.55858,125.17237 h 27.0732 v -0.61638 h 13.58318 l 0.003,14.13266 -40.65783,-2.56011 z"
       id="sc"
       sodipodi:nodetypes="ccccccc"
       inkscape:label="sc" /><path
       style="opacity:0"
       d="m 283.55071,146.3754 27.12238,-34.55024 6.50031,-0.22699 0.93874,1.05288 2.73148,-0.0954 0.86283,-1.1158 10.49388,-0.36645 0.93877,1.05294 15.52488,-0.54218 0.44841,12.84062 -14.09102,0.49231 0.0435,1.24434 -3.43681,0.12001 -0.0436,-1.24417 -2.2578,0.0726 0.0436,1.24442 -1.65322,0.0547 -0.0439,-1.24722 -5.3799,0.20175 -24.97503,31.81535 z"
       id="ui"
       inkscape:label="ui" /><path
       style="opacity:0"
       d="m 335.74141,93.144554 h 11.66785 v 11.667856 h -11.66785 z"
       id="d-6"
       inkscape:label="d-6" /><path
       style="opacity:0"
       d="m 338.03371,72.372244 h 11.66786 v 11.66786 h -11.66786 z"
       id="d-7"
       inkscape:label="d-7" /><path
       style="opacity:0"
       d="m 277.86346,85.837024 42.976,-1.50076 0.31847,9.11991 -42.97599,1.50076 z"
       id="d-1"
       inkscape:label="d-1" /><path
       style="opacity:0"
       d="m 280.50928,71.284924 42.97599,-1.50075 0.31847,9.1199 -42.97599,1.50075 z"
       id="d-2"
       inkscape:label="d-2" /><path
       style="opacity:0"
       d="m 276.27601,56.732884 42.97598,-1.50076 0.31848,9.1199 -42.97599,1.50076 z"
       id="d-3"
       inkscape:label="d-3" /><path
       style="opacity:0"
       d="m 275.21769,42.180784 42.976,-1.50076 0.31847,9.1199 -42.97599,1.50076 z"
       id="d-4"
       inkscape:label="d-4" /><path
       style="opacity:0"
       d="m 277.86351,27.628734 42.976,-1.50076 0.31847,9.1199 -42.97599,1.50076 z"
       id="d-5"
       inkscape:label="d-5" /><path
       style="opacity:0"
       d="m 52.567885,120.33926 -2.22866,5.60703"
       id="p-1"
       sodipodi:nodetypes="cc"
       inkscape:label="p-1" /><path
       style="opacity:0"
       d="m 118.85051,142.59377 -1.82566,6.58672"
       id="p-2"
       sodipodi:nodetypes="cc"
       inkscape:label="p-2" /><path
       style="opacity:0"
       d="m 206.63718,159.26894 -0.53634,6.81918"
       id="p-3"
       sodipodi:nodetypes="cc"
       inkscape:label="p-3" /><path
       style="opacity:0"
       d="m 254.70946,139.4402 13.65228,1.15379"
       id="p-4"
       inkscape:label="p-4" /><path
       style="opacity:0"
       d="m 329.63602,171.94357 -0.171,6.18697"
       id="p-5"
       sodipodi:nodetypes="cc"
       inkscape:label="p-5" /><path
       id="roundabout"
       style="opacity:0"
       d="m 295.25846,175.89663 c -20.77186,-2.18334 -35.84094,-20.79207 -33.65774,-41.5639 -2.18322,20.77183 -20.79196,35.84088 -41.56382,33.6578 20.77186,2.18332 35.84093,20.79206 33.65772,41.56388 2.1832,-20.77182 20.79196,-35.84088 41.56384,-33.65778 z"
       sodipodi:nodetypes="ccccc"
       inkscape:label="roundabout" /></g></svg>
