<?xml version="1.0" encoding="UTF-8" standalone="no"?>
<svg
   width="3223"
   height="2185"
   viewBox="0 0 2417.25 1638.75"
   version="1.1"
   id="svg127"
   sodipodi:docname="floor_0.svg"
   inkscape:version="1.3.2 (091e20e, 2023-11-25, custom)"
   xmlns:inkscape="http://www.inkscape.org/namespaces/inkscape"
   xmlns:sodipodi="http://sodipodi.sourceforge.net/DTD/sodipodi-0.dtd"
   xmlns="http://www.w3.org/2000/svg"
   xmlns:svg="http://www.w3.org/2000/svg">
  <defs
     id="defs127" />
  <sodipodi:namedview
     id="namedview127"
     pagecolor="#ffffff"
     bordercolor="#000000"
     borderopacity="0.25"
     inkscape:showpageshadow="2"
     inkscape:pageopacity="0.0"
     inkscape:pagecheckerboard="0"
     inkscape:deskcolor="#d1d1d1"
     inkscape:zoom="0.19947122"
     inkscape:cx="1837.3578"
     inkscape:cy="421.11339"
     inkscape:window-width="1920"
     inkscape:window-height="1051"
     inkscape:window-x="-9"
     inkscape:window-y="-9"
     inkscape:window-maximized="1"
     inkscape:current-layer="svg127" />
  <g
     id="g256"
     inkscape:label="floor_0"
     transform="matrix(1.0420921,0,0,1.0420921,-107.75142,-169.96522)"
     style="display:inline">
    <polygon
       class="st0"
       points="522.4,1022.4 412.3,1151.8 322.6,1076.6 590.4,760.6 891.2,1013.7 869.3,1040 828.3,1005.5 804,1033.6 844.7,1067.9 732.4,1199.7 "
       id="polygon1"
       style="fill:#cccccc" />
    <path
       id="polygon2"
       style="display:inline;fill:#cccccc"
       class="st0"
       d="M 2195.7,563.7 V 205.9 h 107.6863 v -39.8106 h 72.1251 V 205.9 H 2421.4 v 357.8 z"
       sodipodi:nodetypes="ccccccccc" />
    <rect
       x="2194.7"
       y="208.89999"
       width="2"
       height="369.5"
       id="rect2"
       style="display:inline" />
    <g
       id="g6"
       style="display:inline">
      <rect
         x="2196.1001"
         y="605.59998"
         class="st1"
         width="38.5"
         height="45.200001"
         id="rect3"
         style="fill:#17b69c" />
      <path
         d="m 2234.4,604.6 h -38.5 v 2 h 38.5 z m 1,16.1 v -15.1 h -2 v 15.1 z m -1,-15.1 h 1 v -1 h -1 z"
         id="path3-5" />
      <rect
         x="2233.3999"
         y="635.59998"
         width="2"
         height="13.8"
         id="rect4" />
      <path
         d="m 2204.1,612.4 h 23.2 v -1 h -23.2 z m 0.5,27.1 v -27.7 h -1 v 27.7 z m 22.7,-0.5 h -23.2 v 1 h 23.2 z m -0.5,-27.1 v 27.7 h 1 v -27.7 z m -22.7,0 v -0.5 h -0.5 v 0.5 z m 0,27.6 h -0.5 v 0.5 h 0.5 z m 23.2,0 v 0.5 h 0.5 v -0.5 z m 0,-27.6 h 0.5 v -0.5 h -0.5 z"
         id="path4-1" />
      <rect
         x="2197.6001"
         y="625.29999"
         transform="matrix(0.6457,-0.7636,0.7636,0.6457,307.2076,1913.6647)"
         width="36.299999"
         height="1"
         id="rect5" />
      <rect
         x="2215.2"
         y="607.70001"
         transform="matrix(0.7636,-0.6457,0.6457,0.7636,119.7393,1578.6246)"
         width="1"
         height="36.299999"
         id="rect6" />
    </g>
    <rect
       x="2194.7"
       y="599.79999"
       width="2"
       height="50.400002"
       id="rect7" />
    <rect
       x="2195.7"
       y="562.70001"
       width="71.900002"
       height="2"
       id="rect8" />
    <rect
       x="2288.1001"
       y="562.70001"
       width="129.10001"
       height="2"
       id="rect9" />
    <g
       id="g26">
      <rect
         x="2389.5"
         y="626.90002"
         width="1"
         height="25.1"
         id="rect10" />
      <rect
         x="2385.6001"
         y="627.29999"
         width="1"
         height="24.6"
         id="rect11" />
      <rect
         x="2381.5"
         y="627.29999"
         width="1"
         height="24.6"
         id="rect12" />
      <rect
         x="2377.3999"
         y="627.29999"
         width="1"
         height="24.6"
         id="rect13" />
      <rect
         x="2373.6001"
         y="627.29999"
         width="1"
         height="24.6"
         id="rect14" />
      <rect
         x="2369.5"
         y="627.29999"
         width="1"
         height="24.6"
         id="rect15" />
      <rect
         x="2365.6001"
         y="627.29999"
         width="1"
         height="24.6"
         id="rect16" />
      <rect
         x="2361.6001"
         y="627.29999"
         width="1"
         height="24.6"
         id="rect17" />
      <rect
         x="2357.5"
         y="627.29999"
         width="1"
         height="24.6"
         id="rect18" />
      <rect
         x="2353.6001"
         y="627.29999"
         width="1"
         height="24.6"
         id="rect19" />
      <rect
         x="2349.5"
         y="627.29999"
         width="1"
         height="24.6"
         id="rect20" />
      <rect
         x="2345.7"
         y="627.29999"
         width="1"
         height="24.6"
         id="rect21" />
      <rect
         x="2341.6001"
         y="627.29999"
         width="1"
         height="24.6"
         id="rect22" />
      <rect
         x="2337.7"
         y="627.29999"
         width="1"
         height="24.6"
         id="rect23" />
      <path
         d="M 2333.7,627.3 V 652 h 1 v -24.6 h -1 z m 56.8,-0.5 h -56.3 v 1 h 56.3 z m -56.3,0.5 v -0.5 h -0.5 v 0.5 z"
         id="path23-65" />
      <path
         d="m 2371,640.6 3.9,7.7 0.9,-0.5 -3.9,-7.7 z m -4.4,-0.7 4.7,1 0.2,-1 -4.7,-1 z m 6.5,-4.1 -6.5,3.1 0.4,0.9 6.5,-3.1 z m -4.2,0 4.3,1 0.2,-1 -4.3,-1 z m -4.2,-8.2 3.9,7.9 0.9,-0.4 -3.9,-7.9 z m 6.7,12.8 0.5,-0.2 -0.3,-0.3 z m -4.6,-1 -0.2,-0.5 0.1,1 z m 6.5,-3.1 0.2,0.5 -0.1,-1 z m -4.3,-1 -0.5,0.2 0.3,0.3 z"
         id="path24-6" />
      <rect
         x="2333.8"
         y="637"
         width="56.200001"
         height="1"
         id="rect24" />
      <path
         d="m 2358.4,637.2 -3.3,-3.3 -0.7,0.7 3.3,3.3 z m -3.3,4.1 3.3,-3.5 -0.7,-0.7 -3.3,3.5 z m 2.9,-3.8 0.4,0.3 v -0.7 z"
         id="path25-3" />
      <path
         d="m 2390.3,637.2 -3.5,-3.3 -0.7,0.7 3.5,3.3 z m -3.4,4.1 3.5,-3.5 -0.7,-0.7 -3.5,3.5 z m 3.1,-3.8 0.4,0.4 v -0.7 z"
         id="path26-59" />
    </g>
    <polygon
       points="2302.3,616.8 2302.3,601.9 2418.3,601.9 2418.3,603.9 2304.3,603.9 2304.3,616.8 "
       id="polygon26" />
    <rect
       x="2302.3"
       y="637.79999"
       width="2"
       height="12.3"
       id="rect26" />
    <rect
       x="2352.6001"
       y="595.5"
       width="2"
       height="7.4000001"
       id="rect27" />
    <rect
       x="2352.6001"
       y="563.70001"
       width="2"
       height="10.7"
       id="rect28" />
    <rect
       x="2385.6001"
       y="594"
       width="2"
       height="8.8999996"
       id="rect29" />
    <rect
       x="2385.6001"
       y="563.70001"
       width="2"
       height="9.6999998"
       id="rect30" />
    <polygon
       points="2389.6,247.8 2389.6,204.9 2391.6,204.9 2391.6,249.8 2386.8,249.8 2386.8,247.8 "
       id="polygon30"
       transform="translate(-22.190718)" />
    <polygon
       points="2330.5,247.8 2333.3,247.8 2333.3,249.8 2328.5,249.8 2328.5,210.1 2330.5,210.1 "
       id="polygon31"
       transform="translate(-18.9169)" />
    <g
       id="g35">
      <path
         d="m 2269.8,391.9 v -12.7 h 9.4 v 2 h -7.6 l 0.6,-0.5 v 11.2 z"
         id="path31-2" />
      <path
         d="m 2285.1,392.1 c -0.9,0 -1.8,-0.2 -2.5,-0.5 -0.7,-0.3 -1.3,-0.8 -1.6,-1.3 -0.4,-0.6 -0.6,-1.2 -0.6,-1.9 0,-0.7 0.2,-1.3 0.5,-1.9 0.3,-0.6 0.9,-1 1.6,-1.3 0.7,-0.3 1.7,-0.5 3,-0.5 h 4 v 1.7 h -3.9 c -1.2,0 -1.9,0.2 -2.3,0.6 -0.4,0.4 -0.6,0.8 -0.6,1.4 0,0.6 0.2,1.1 0.7,1.5 0.5,0.4 1.2,0.6 2.1,0.6 0.9,0 1.6,-0.2 2.3,-0.6 0.6,-0.4 1.1,-0.9 1.4,-1.7 l 0.5,1.6 c -0.3,0.8 -0.8,1.3 -1.6,1.8 -0.8,0.2 -1.8,0.5 -3,0.5 z m 4.2,-0.2 v -2.7 l -0.1,-0.5 v -4.6 c 0,-1 -0.3,-1.7 -0.9,-2.3 -0.6,-0.5 -1.4,-0.8 -2.6,-0.8 -0.8,0 -1.5,0.1 -2.2,0.4 -0.7,0.2 -1.3,0.6 -1.8,1 l -1,-1.7 c 0.7,-0.5 1.4,-0.9 2.4,-1.2 0.9,-0.3 1.9,-0.4 2.9,-0.4 1.7,0 3.1,0.4 4,1.3 0.9,0.9 1.4,2.1 1.4,3.9 v 7.7 h -2.1 z"
         id="path32-10" />
      <path
         d="m 2295.7,396.6 v -17.4 h 2.2 v 3.4 l -0.1,3 0.2,3 v 8 z m 6.7,-4.5 c -1.1,0 -2,-0.2 -2.9,-0.7 -0.9,-0.5 -1.6,-1.2 -2.1,-2.2 -0.5,-1 -0.8,-2.2 -0.8,-3.6 0,-1.4 0.3,-2.6 0.8,-3.6 0.5,-1 1.2,-1.7 2.1,-2.2 0.9,-0.5 1.9,-0.7 2.9,-0.7 1.2,0 2.4,0.3 3.3,0.8 0.9,0.5 1.7,1.3 2.3,2.3 0.6,1 0.8,2.1 0.8,3.4 0,1.3 -0.3,2.4 -0.8,3.4 -0.6,1 -1.3,1.7 -2.3,2.3 -1,0.6 -2.1,0.8 -3.3,0.8 z m -0.2,-2 c 0.8,0 1.5,-0.2 2.2,-0.6 0.6,-0.4 1.2,-0.9 1.5,-1.6 0.4,-0.7 0.6,-1.5 0.6,-2.4 0,-0.9 -0.2,-1.7 -0.6,-2.4 -0.4,-0.7 -0.9,-1.2 -1.5,-1.5 -0.6,-0.4 -1.4,-0.6 -2.2,-0.6 -0.8,0 -1.5,0.2 -2.2,0.6 -0.6,0.4 -1.2,0.9 -1.5,1.5 -0.4,0.7 -0.6,1.5 -0.6,2.4 0,0.9 0.2,1.7 0.6,2.4 0.4,0.7 0.9,1.2 1.5,1.6 0.7,0.4 1.4,0.6 2.2,0.6 z"
         id="path33-22" />
      <path
         d="m 2315.8,392.1 c -0.9,0 -1.8,-0.2 -2.5,-0.5 -0.7,-0.3 -1.3,-0.8 -1.6,-1.3 -0.4,-0.6 -0.6,-1.2 -0.6,-1.9 0,-0.7 0.2,-1.3 0.5,-1.9 0.3,-0.6 0.9,-1 1.6,-1.3 0.7,-0.3 1.7,-0.5 3,-0.5 h 4 v 1.7 h -3.9 c -1.2,0 -1.9,0.2 -2.3,0.6 -0.4,0.4 -0.6,0.8 -0.6,1.4 0,0.6 0.2,1.1 0.7,1.5 0.5,0.4 1.2,0.6 2.1,0.6 0.9,0 1.6,-0.2 2.3,-0.6 0.6,-0.4 1.1,-0.9 1.4,-1.7 l 0.5,1.6 c -0.3,0.8 -0.8,1.3 -1.6,1.8 -0.9,0.2 -1.8,0.5 -3,0.5 z m 4.2,-0.2 v -2.7 l -0.1,-0.5 v -4.6 c 0,-1 -0.3,-1.7 -0.9,-2.3 -0.6,-0.5 -1.4,-0.8 -2.6,-0.8 -0.8,0 -1.5,0.1 -2.2,0.4 -0.7,0.2 -1.3,0.6 -1.8,1 l -1,-1.7 c 0.7,-0.5 1.4,-0.9 2.4,-1.2 0.9,-0.3 1.9,-0.4 2.9,-0.4 1.7,0 3.1,0.4 4,1.3 0.9,0.9 1.4,2.1 1.4,3.9 v 7.7 h -2.1 z"
         id="path34-3" />
      <path
         d="m 2327.1,391.9 h -2.7 l 4.9,-7.3 1.9,1.2 z m 2,-6.1 -4.3,-6.6 h 2.4 l 4.1,6.3 z m 4.7,0.7 h -4.1 v -2 h 4.1 z m 1.6,5.4 h -2.3 v -12.7 h 2.3 z m -0.7,-5.4 v -2 h 4.1 v 2 z m 4.8,-0.7 -2.2,-0.3 4.1,-6.3 h 2.5 z m 1.9,6.1 -4.1,-6.2 1.9,-1.2 4.9,7.3 h -2.7 z"
         id="path35-78" />
    </g>
    <rect
       x="2109.8"
       y="604.59998"
       width="7.0999999"
       height="2"
       id="rect35" />
    <rect
       x="2129.6001"
       y="604.59998"
       width="12.1"
       height="2"
       id="rect36" />
    <rect
       x="2154.5"
       y="604.59998"
       width="21.200001"
       height="2"
       id="rect37" />
    <rect
       x="2188.5"
       y="604.59998"
       width="7.5999999"
       height="2"
       id="rect38" />
    <rect
       x="1874.8"
       y="649.79999"
       width="41.299999"
       height="2"
       id="rect39" />
    <rect
       x="1728.7"
       y="171.7"
       width="2"
       height="10.2"
       id="rect40" />
    <rect
       x="1728.7"
       y="198.60001"
       width="2"
       height="226.89999"
       id="rect41" />
    <polygon
       points="1728.7,651.8 1728.7,446.1 1730.7,446.1 1730.7,649.8 1858.5,649.8 1858.5,651.8 "
       id="polygon41" />
    <rect
       x="1730.4"
       y="485.60001"
       width="121.5"
       height="2"
       id="rect42" />
    <polygon
       points="2108.8,649.1 2108.8,487.6 1872.4,487.6 1872.4,485.6 2110.8,485.6 2110.8,649.1 "
       id="polygon42" />
    <path
       d="m 2179.9,635.2 c 2.6,0 4.9,-0.9 6.4,-2.6 l -1.6,-1.5 c -1.3,1.4 -2.9,2 -4.7,2 -3.8,0 -6.6,-2.7 -6.6,-6.5 0,-3.7 2.8,-6.5 6.6,-6.5 1.8,0 3.4,0.6 4.7,2 l 1.6,-1.5 c -1.5,-1.7 -3.8,-2.6 -6.4,-2.6 -5.1,0 -8.9,3.6 -8.9,8.6 0,5 3.9,8.6 8.9,8.6 z m -12.5,-17 -4.6,13.7 -4.6,-13.7 h -2.2 l -4.7,13.7 -4.5,-13.7 h -2.5 l 5.6,16.8 h 2.6 l 4.6,-13.4 4.6,13.4 h 2.5 l 5.6,-16.8 z"
       id="path42-18" />
    <polygon
       points="2136.6,545.2 2136.6,485.6 2195.7,485.6 2195.7,487.6 2138.6,487.6 2138.6,545.2 "
       id="polygon43" />
    <polygon
       points="2136.6,568.8 2136.6,557.7 2138.6,557.7 2138.6,566.8 2195.7,566.8 2195.7,568.8 "
       id="polygon44" />
    <rect
       x="1728.3"
       y="376"
       width="151"
       height="2"
       id="rect44" />
    <rect
       x="1896.6"
       y="376"
       width="22.1"
       height="2"
       id="rect45" />
    <rect
       x="1917.7"
       y="295.20001"
       width="2"
       height="4.0999999"
       id="rect46" />
    <polygon
       points="1917.7,444.7 1917.7,316.5 1919.7,316.5 1919.7,442.7 1989.4,442.7 1989.4,444.7 "
       id="polygon46" />
    <rect
       x="2002.4"
       y="442.70001"
       width="193.3"
       height="2"
       id="rect47" />
    <g
       id="g72">
      <polygon
         points="421.4,1262.1 420.6,1261.5 442.1,1235.2 442.9,1235.9 "
         id="polygon47" />
      <polygon
         points="450.6,1226.5 449.8,1225.9 470.3,1200.8 471.1,1201.5 "
         id="polygon48" />
      <polygon
         points="418.4,1259.6 417.6,1259 439.1,1232.8 439.9,1233.4 "
         id="polygon49" />
      <polygon
         points="447.6,1224.1 446.8,1223.4 467.3,1198.3 468.1,1199 "
         id="polygon50" />
      <polygon
         points="415.4,1257.1 414.6,1256.5 436.1,1230.3 436.9,1230.9 "
         id="polygon51" />
      <polygon
         points="444.5,1221.6 443.7,1220.9 464.4,1195.8 465.1,1196.5 "
         id="polygon52" />
      <polygon
         points="412.4,1254.6 411.6,1254 433.1,1227.8 433.8,1228.5 "
         id="polygon53" />
      <polygon
         points="441.5,1219.1 440.7,1218.5 461.4,1193.3 462.2,1193.9 "
         id="polygon54" />
      <polygon
         points="409.4,1252.1 408.6,1251.4 430,1225.4 430.8,1226 "
         id="polygon55" />
      <polygon
         points="438.5,1216.6 437.7,1216 458.4,1190.8 459.2,1191.4 "
         id="polygon56" />
      <rect
         x="399.89999"
         y="1235.7"
         transform="matrix(0.6341,-0.7733,0.7733,0.6341,-803.4448,774.5822)"
         width="33.700001"
         height="1"
         id="rect56" />
      <polygon
         points="435.5,1214.2 435,1213.8 434.9,1213.7 434.7,1213.5 435.1,1213.1 436.5,1211.3 455.4,1188.3 456.2,1188.9 "
         id="polygon57" />
      <polygon
         points="424.8,1221.1 415.5,1232.4 414.8,1233.2 403.5,1247.1 402.7,1246.4 414,1232.6 414.7,1231.8 424,1220.4 "
         id="polygon58" />
      <polygon
         points="442.4,1199.5 441.8,1200.3 437.9,1205 436.5,1206.8 432.5,1211.7 431.7,1211.1 437,1204.6 438.4,1202.8 441,1199.7 441.6,1199 441.7,1198.9 442,1198.5 442.3,1198.1 442.6,1197.7 452.4,1185.8 453.2,1186.4 "
         id="polygon59" />
      <polygon
         points="421.8,1218.6 412.4,1230 411.8,1230.8 400.5,1244.6 399.7,1243.9 411,1230.1 411.7,1229.3 421,1217.9 "
         id="polygon60" />
      <polygon
         points="429.5,1209.2 428.7,1208.6 436.7,1198.8 437.3,1198 437.5,1197.9 438,1197.2 438.2,1197 438.7,1196.4 439.6,1195.3 439.9,1194.9 440,1194.8 440.6,1194 449.4,1183.3 450.2,1183.9 440.9,1195.3 440.2,1196.1 439.4,1197.1 439.3,1197.3 438.8,1197.9 438.5,1198.1 438,1198.8 437.3,1199.7 "
         id="polygon61" />
      <polygon
         points="418.8,1216.1 409.4,1227.5 408.8,1228.3 397.5,1242.1 396.7,1241.4 408,1227.6 408.6,1226.9 418,1215.5 "
         id="polygon62" />
      <polygon
         points="442.2,1187.6 440.7,1189.3 436.4,1194.6 435.8,1195.4 426.4,1206.8 425.7,1206.1 435,1194.7 435.6,1193.9 441.3,1187.1 442.7,1185.3 446.5,1180.8 447.2,1181.4 "
         id="polygon63" />
      <polygon
         points="415.7,1213.6 406.4,1225 405.8,1225.8 394.5,1239.5 393.7,1238.9 405,1225.2 405.6,1224.4 415,1213 "
         id="polygon64" />
      <polygon
         points="432.6,1191.5 443.5,1178.2 444.3,1178.9 442.9,1180.6 433.4,1192.1 432.8,1192.9 423.4,1204.3 422.6,1203.6 432,1192.3 "
         id="polygon65" />
      <polygon
         points="412.7,1211.2 403.4,1222.6 402.7,1223.3 391.5,1237 390.7,1236.4 400.3,1224.8 400.5,1224.5 402,1222.7 402.6,1221.9 404.1,1220 404.3,1219.8 411.9,1210.5 "
         id="polygon66" />
      <polygon
         points="430.4,1189.6 429.8,1190.4 420.4,1201.8 419.6,1201.2 429,1189.8 429.6,1189 440.5,1175.7 441.3,1176.4 "
         id="polygon67" />
      <polygon
         points="399.2,1221.5 388.5,1234.5 387.8,1233.9 408.9,1208.1 409.7,1208.7 400.9,1219.4 400.4,1220.1 400.1,1220.4 400,1220.6 399.7,1220.9 "
         id="polygon68" />
      <polygon
         points="427.4,1187.2 426.7,1187.9 417.4,1199.3 416.6,1198.7 437.5,1173.2 438.3,1173.9 "
         id="polygon69" />
      <path
         d="m 438.9,1200.1 -0.4,0.3 0.5,0.1 z m -3.5,-2.9 0.4,-0.3 0.1,-0.5 z m 7.4,1.5 -0.1,0.5 0.5,-0.8 z m -3.4,-4 0.1,0.4 0.4,-0.3 z m -0.9,5.7 -0.5,-0.1 -0.1,0.2 -0.9,4.1 -0.5,2.2 -1.4,6.3 -0.1,0.7 0.1,0.1 1.1,-0.8 0.4,-1.6 1.4,-6.3 v 0 l 0.5,-2.2 0.5,-2.3 z m -1.4,-2.6 -0.9,-1.2 -0.4,0.3 -0.4,0.3 2.5,3.3 0.1,0.2 0.4,-0.3 0.4,-0.3 z m 5.2,0.3 -0.8,-0.2 -5.5,-1.5 -0.3,1 1.4,0.4 4.5,1.2 1,0.3 0.3,-1 z m 0.3,-0.4 -2.2,-2.9 -0.1,-0.2 -0.4,0.3 -0.4,0.3 2,2.7 0.5,0.7 0.4,0.5 0.4,-0.3 0.4,-0.3 z m 0.3,-17.1 -3.4,14.2 0.5,0.1 0.5,0.1 0.1,-0.2 3.8,-15.9 z"
         id="path69-8" />
      <polygon
         points="432.8,1248 433.3,1247.1 399.9,1219.7 399.3,1220.5 "
         id="polygon70" />
      <path
         d="m 399.1,1220.2 0.4,4.7 1,-0.1 -0.4,-4.7 z m 5.1,-1.2 -4.7,0.6 0.1,1 4.7,-0.6 z m -4.6,1.1 -0.1,-0.5 -0.4,0.5 z"
         id="path70-22" />
      <polygon
         points="459.2,1214.7 459.9,1213.9 426.9,1186.7 426.4,1187.7 "
         id="polygon71" />
      <path
         d="m 460.1,1214.5 -0.6,-4.9 -1,0.1 0.6,4.9 z m -5.4,0.9 4.9,-0.4 -0.1,-1 -4.9,0.4 z m 4.9,-0.9 v 0.5 l 0.5,-0.6 z"
         id="path71-3" />
      <path
         d="m 432.8,1191.6 -0.6,-4.7 -1,0.1 0.6,4.7 z m -5.3,1.2 4.9,-0.6 -0.1,-1 -4.9,0.6 z m 4.8,-1.1 0.1,0.5 0.4,-0.6 z"
         id="path72-22" />
    </g>
    <rect
       x="393.20001"
       y="1043.2"
       transform="matrix(0.6445,-0.7646,0.7646,0.6445,-619.5693,755.8015)"
       width="219.60001"
       height="2"
       id="rect72" />
    <polygon
       points="360.1,1212.2 418.3,1143.1 419.8,1144.4 362.9,1212 442,1278.1 448.5,1270.3 450.1,1271.6 442.3,1280.9 "
       id="polygon72" />
    <rect
       x="459.5"
       y="1247.7"
       transform="matrix(0.6445,-0.7646,0.7646,0.6445,-788.3279,801.8258)"
       width="17.200001"
       height="2"
       id="rect73" />
    <polygon
       points="486,1225.9 491.3,1219.6 326.8,1081.3 328.1,1079.8 494.1,1219.4 487.5,1227.2 "
       id="polygon73" />
    <polygon
       points="407.6,1207.2 415.8,1197.6 450.9,1226.2 450.2,1226.9 415.9,1199 409.1,1207 443.5,1235.2 442.8,1236 "
       id="polygon74" />
    <g
       id="g77">
      <rect
         x="581.79999"
         y="1174.5"
         transform="matrix(0.6481,-0.7616,0.7616,0.6481,-694.1046,859.3756)"
         width="2"
         height="12.6"
         id="rect75" />
      <path
         d="m 543.5,1185.9 14.9,-17.8 -0.8,-0.7 -14.9,17.8 z m 21.2,17 -21.3,-17.7 -0.7,0.8 21.3,17.7 z m 14.2,-17.7 -14.9,17.8 0.8,0.7 14.9,-17.8 z m -21.2,-17 21.3,17.7 0.7,-0.8 -21.3,-17.7 z m -14.6,17.4 -0.4,-0.3 -0.3,0.4 0.4,0.3 z m 21.3,17.7 -0.3,0.4 0.4,0.3 0.3,-0.4 z m 14.9,-17.8 0.4,0.3 0.3,-0.4 -0.4,-0.3 z m -21.3,-17.7 0.3,-0.4 -0.4,-0.3 -0.3,0.4 z"
         id="path75-1" />
      <rect
         x="560.90002"
         y="1167.4"
         transform="matrix(0.9837,-0.1799,0.1799,0.9837,-204.0747,120.2997)"
         width="1"
         height="36.200001"
         id="rect76" />
      <rect
         x="543.20001"
         y="1185"
         transform="matrix(1,-0.00561638,0.00561638,1,-6.6496,3.1716)"
         width="36.200001"
         height="1"
         id="rect77" />
      <polygon
         points="565.1,1209.9 587.5,1183.4 589.1,1184.7 565.4,1212.7 530.8,1183.5 554.7,1155.5 567.4,1166.2 566.1,1167.8 555,1158.3 533.7,1183.3 "
         id="polygon77" />
    </g>
    <g
       id="g81">
      <rect
         x="537"
         y="1161.5"
         transform="matrix(0.6467,-0.7627,0.7627,0.6467,-700.6227,822.8995)"
         width="2"
         height="12.5"
         id="rect78" />
      <rect
         x="514.09998"
         y="1136.9"
         transform="matrix(0.6467,-0.7628,0.7628,0.6467,-693.9292,798.662)"
         width="2"
         height="22.9"
         id="rect79" />
      <rect
         x="482"
         y="1103.1"
         transform="matrix(0.6467,-0.7628,0.7628,0.6467,-684.4922,764.4911)"
         width="2"
         height="36.099998"
         id="rect80" />
      <rect
         x="458"
         y="1098.4"
         transform="matrix(0.6467,-0.7627,0.7627,0.6467,-677.4458,738.981)"
         width="2"
         height="4.8000002"
         id="rect81" />
    </g>
    <polygon
       points="547.7,1152.2 601.2,1089.1 602.7,1090.4 550.5,1152 559.7,1159.7 558.4,1161.2 "
       id="polygon81" />
    <rect
       x="626.20001"
       y="972.79999"
       transform="matrix(0.6441,-0.765,0.765,0.6441,-626.3784,875.1461)"
       width="2"
       height="275.70001"
       id="rect82" />
    <rect
       x="1005.2"
       y="1045.6"
       transform="matrix(0.6434,-0.7656,0.7656,0.6434,-491.202,1166.3444)"
       width="2"
       height="129.5"
       id="rect83" />
    <rect
       x="924.70001"
       y="1022.8"
       transform="matrix(0.6434,-0.7656,0.7656,0.6434,-468.1121,1080.562)"
       width="2"
       height="39.799999"
       id="rect84" />
    <rect
       x="799"
       y="813.40002"
       transform="matrix(0.6434,-0.7656,0.7656,0.6434,-432.0623,946.623)"
       width="2"
       height="247.3"
       id="rect85" />
    <rect
       x="642.79999"
       y="743.40002"
       transform="matrix(0.6434,-0.7656,0.7656,0.6434,-387.2852,780.2662)"
       width="2"
       height="124.8"
       id="rect86" />
    <g
       id="g100">
      <polygon
         points="784.2,1414.3 789.2,1408.3 789.8,1407.5 790.6,1408.1 790,1408.9 785,1414.9 784.3,1415.7 778.2,1423.1 777.4,1422.5 783.5,1415.1 "
         id="polygon86" />
      <polygon
         points="781.2,1411.8 786.2,1405.8 786.9,1405 787.6,1405.6 787,1406.4 782,1412.4 781.3,1413.2 775.3,1420.5 774.5,1419.8 780.6,1412.6 "
         id="polygon87" />
      <polygon
         points="778.2,1409.3 783.2,1403.2 783.8,1402.4 784.6,1403.1 784,1403.9 779,1409.9 778.3,1410.7 772.3,1418 771.5,1417.4 777.5,1410.1 "
         id="polygon88" />
      <rect
         x="789.79999"
         y="1419.8"
         transform="matrix(0.6348,-0.7727,0.7727,0.6348,-808.6148,1129.2754)"
         width="1"
         height="0.40000001"
         id="rect88" />
      <rect
         x="795.40002"
         y="1413"
         transform="matrix(0.6402,-0.7682,0.7682,0.6402,-799.3056,1119.9603)"
         width="1"
         height="0.5"
         id="rect89" />
      <polygon
         points="787.4,1417 792.4,1411 793.1,1410.2 793.8,1410.8 793.2,1411.6 788.2,1417.6 787.6,1418.4 781.6,1425.5 780.9,1424.9 786.8,1417.8 "
         id="polygon89" />
      <polygon
         points="768.2,1414.7 770.3,1412.3 771.8,1410.5 774.4,1407.4 775,1406.6 775.3,1406.3 775.5,1406.1 776.1,1405.4 776.1,1405.3 780.1,1400.6 780.7,1399.8 781.5,1400.5 780.8,1401.3 775.8,1407.3 775.1,1408.1 771.2,1412.8 769.7,1414.6 769,1415.4 "
         id="polygon90" />
      <polygon
         points="772.9,1404.6 772.8,1404.8 772.1,1405.5 771.4,1406.4 770.7,1407.2 766,1412.9 765.2,1412.3 770.1,1406.4 770.7,1405.6 771,1405.2 771.3,1404.9 771.8,1404.4 772,1404.1 773,1402.9 773.4,1402.4 773.5,1402.3 774,1401.6 777,1398.1 777.7,1397.3 778.4,1397.9 777.8,1398.7 774.3,1402.9 773.6,1403.7 "
         id="polygon91" />
      <polygon
         points="775.2,1395.7 774.8,1396.2 774.1,1397 769.7,1402.2 769.1,1403 762.7,1410.7 761.9,1410 768.3,1402.4 769,1401.6 774,1395.5 774.7,1394.7 775.4,1395.4 "
         id="polygon92" />
      <polygon
         points="765.9,1399 770.9,1392.9 771.6,1392.2 772.4,1392.8 771.7,1393.6 766.7,1399.7 766,1400.4 759.9,1407.8 759.1,1407.2 765.2,1399.8 "
         id="polygon93" />
      <polygon
         points="768.6,1389.6 769.4,1390.3 768.7,1391.1 763.6,1397.2 763,1397.9 756.8,1405.4 756,1404.7 761.7,1397.9 762.2,1397.3 762.4,1397.1 762.6,1396.8 762.9,1396.5 763.3,1396 767.9,1390.4 "
         id="polygon94" />
      <polygon
         points="765.5,1388.4 762.2,1392.5 762,1392.6 760.5,1394.5 759.8,1395.3 753.5,1402.7 752.8,1402.1 759,1394.6 759.7,1393.8 764.8,1387.8 765.4,1387 766.2,1387.6 "
         id="polygon95" />
      <polygon
         points="756,1392.1 756.7,1391.4 761.8,1385.3 762.4,1384.5 763.2,1385.1 762.6,1385.9 757.5,1392 756.8,1392.8 750.7,1400.1 749.9,1399.4 "
         id="polygon96" />
      <polygon
         points="754.4,1389.4 753.7,1390.2 753.4,1390 754.1,1389.2 "
         id="polygon97" />
      <path
         d="m 771.4,1407.8 -2.4,9.8 1,0.2 2.4,-9.8 z m -2.8,-3.2 2.9,3.7 0.8,-0.6 -2.9,-3.7 z m 7.5,0.8 -6.9,-1.6 -0.2,1 6.9,1.6 z m -3.2,-2.7 2.6,3.5 0.8,-0.6 -2.6,-3.5 z m 1.5,-7.1 -1.6,6.7 1,0.2 1.6,-6.7 z m -2.5,12.3 0.5,0.1 -0.1,-0.4 z m -2.9,-3.7 0.1,-0.5 -0.5,0.8 z m 7,1.7 -0.1,0.5 0.5,-0.8 z m -2.7,-3.5 -0.5,-0.1 0.1,0.4 z"
         id="path97-9" />
      <polygon
         points="762.3,1396 762.9,1396.5 763.4,1397 763.6,1397.2 765.9,1399 766.7,1399.7 769,1401.6 769.7,1402.2 772,1404.1 772.5,1404.5 772.8,1404.8 774.3,1406 775,1406.6 775.8,1407.3 778.2,1409.3 779,1409.9 781.2,1411.8 782,1412.4 784.2,1414.3 785,1414.9 787.4,1417 788.2,1417.6 790.5,1419.5 790.7,1419.7 790.1,1420.5 789.8,1420.3 787.6,1418.4 786.8,1417.8 784.3,1415.7 783.5,1415.1 781.3,1413.2 780.6,1412.6 778.3,1410.7 777.5,1410.1 775.1,1408.1 774.4,1407.4 772.1,1405.5 772,1405.5 771.3,1404.9 770.3,1404 769.1,1403 768.3,1402.4 766,1400.4 765.2,1399.8 763,1397.9 762.9,1397.8 762.2,1397.3 761.8,1396.9 759.8,1395.3 759,1394.6 756.8,1392.8 756,1392.1 753.7,1390.2 753.4,1390 754.1,1389.2 754.4,1389.4 756.7,1391.4 757.5,1392 759.7,1393.8 760.5,1394.5 "
         id="polygon98" />
      <path
         d="m 763.4,1397.3 -0.4,-4.9 -1,0.1 0.4,4.9 z m -5.1,0.9 4.7,-0.4 -0.1,-1 -4.7,0.4 z m 4.6,-0.9 v 0.5 l 0.5,-0.5 z"
         id="path98-4" />
      <polygon
         points="790.5,1419.5 790.7,1419.7 790.1,1420.5 789.8,1420.3 783.3,1428.2 784.1,1428.8 796.1,1414.3 795.4,1413.5 "
         id="polygon99" />
      <path
         d="m 791.1,1420.1 -0.4,-4.7 -1,0.1 0.4,4.7 z m -5.3,0.9 4.9,-0.4 -0.1,-1 -4.9,0.4 z m 4.8,-0.9 v 0.5 l 0.5,-0.6 z"
         id="path99-2" />
      <polygon
         points="744.9,1397.4 758.4,1381.4 760,1382.7 747.7,1397.1 784.7,1428 783.4,1429.6 "
         id="polygon100" />
    </g>
    <g
       id="g115">
      <polygon
         points="1030.7,1116 1035.7,1110 1036.3,1109.2 1037.1,1109.9 1036.5,1110.6 1031.5,1116.6 1030.8,1117.4 1024.7,1124.8 1023.9,1124.2 1030,1116.8 "
         id="polygon101" />
      <polygon
         points="1027.7,1113.5 1032.7,1107.5 1033.4,1106.7 1034.1,1107.4 1033.5,1108.1 1028.5,1114.2 1027.8,1114.9 1021.8,1122.2 1021,1121.5 1027.1,1114.3 "
         id="polygon102" />
      <polygon
         points="1024.7,1111 1029.7,1104.9 1030.3,1104.1 1031.1,1104.8 1030.5,1105.6 1025.5,1111.6 1024.8,1112.4 1018.8,1119.7 1018,1119.1 1024,1111.8 "
         id="polygon103" />
      <rect
         x="1036.3"
         y="1121.5"
         transform="matrix(0.6348,-0.7727,0.7727,0.6348,-488.0925,1210.8021)"
         width="1"
         height="0.40000001"
         id="rect103" />
      <rect
         x="1041.9"
         y="1114.7"
         transform="matrix(0.6402,-0.7682,0.7682,0.6402,-481.4552,1201.998)"
         width="1"
         height="0.5"
         id="rect104" />
      <polygon
         points="1033.9,1118.7 1038.9,1112.7 1039.6,1111.9 1040.3,1112.5 1039.7,1113.3 1034.7,1119.3 1034.1,1120.1 1028.1,1127.3 1027.4,1126.6 1033.3,1119.5 "
         id="polygon104" />
      <polygon
         points="1014.7,1116.4 1016.8,1114 1018.3,1112.2 1020.9,1109.1 1021.5,1108.3 1021.8,1108 1022,1107.8 1022.6,1107.1 1022.6,1107 1026.6,1102.3 1027.2,1101.5 1028,1102.2 1027.3,1103 1022.3,1109 1021.6,1109.8 1017.7,1114.5 1016.2,1116.3 1015.5,1117.1 "
         id="polygon105" />
      <polygon
         points="1019.4,1106.3 1019.3,1106.5 1018.6,1107.2 1017.9,1108.1 1017.2,1108.9 1012.5,1114.6 1011.7,1114 1016.6,1108.1 1017.2,1107.3 1017.5,1107 1017.8,1106.6 1018.3,1106.1 1018.5,1105.8 1019.5,1104.6 1019.9,1104.1 1020,1104 1020.5,1103.4 1023.5,1099.8 1024.2,1099 1024.9,1099.6 1024.3,1100.4 1020.8,1104.6 1020.1,1105.4 "
         id="polygon106" />
      <polygon
         points="1021.7,1097.5 1021.3,1097.9 1020.6,1098.7 1016.2,1104 1015.6,1104.7 1009.2,1112.4 1008.4,1111.7 1014.8,1104.1 1015.5,1103.3 1020.5,1097.2 1021.2,1096.5 1021.9,1097.1 "
         id="polygon107" />
      <polygon
         points="1012.4,1100.7 1017.4,1094.7 1018.1,1093.9 1018.9,1094.5 1018.2,1095.3 1013.2,1101.4 1012.5,1102.2 1006.4,1109.5 1005.6,1108.9 1011.7,1101.5 "
         id="polygon108" />
      <polygon
         points="1015.1,1091.4 1015.9,1092 1015.2,1092.8 1010.1,1098.9 1009.5,1099.6 1003.3,1107.1 1002.5,1106.4 1008.2,1099.7 1008.7,1099 1008.9,1098.8 1009.1,1098.6 1009.4,1098.2 1009.8,1097.7 1014.4,1092.1 "
         id="polygon109" />
      <polygon
         points="1012,1090.1 1008.7,1094.2 1008.5,1094.3 1007,1096.2 1006.3,1097 1000,1104.5 999.3,1103.8 1005.5,1096.3 1006.2,1095.6 1011.3,1089.5 1011.9,1088.7 1012.7,1089.4 "
         id="polygon110" />
      <polygon
         points="1002.5,1093.8 1003.2,1093.1 1008.3,1087 1008.9,1086.2 1009.7,1086.9 1009.1,1087.6 1004,1093.7 1003.3,1094.5 997.2,1101.8 996.4,1101.2 "
         id="polygon111" />
      <polygon
         points="1000.9,1091.1 1000.2,1091.9 999.9,1091.7 1000.6,1090.9 "
         id="polygon112" />
      <path
         d="m 1017.9,1109.5 -2.4,9.8 1,0.2 2.4,-9.8 z m -2.8,-3.2 2.9,3.7 0.8,-0.6 -2.9,-3.7 z m 7.5,0.8 -6.9,-1.6 -0.2,1 6.9,1.6 z m -3.2,-2.7 2.6,3.5 0.8,-0.6 -2.6,-3.5 z m 1.5,-7.1 -1.6,6.7 1,0.2 1.6,-6.7 z m -2.5,12.3 0.5,0.1 -0.1,-0.4 z m -2.9,-3.6 0.1,-0.5 -0.5,0.8 z m 7,1.6 -0.1,0.5 0.5,-0.8 z m -2.7,-3.5 -0.5,-0.1 0.1,0.4 z"
         id="path112-26" />
      <polygon
         points="1008.8,1097.8 1009.4,1098.2 1009.9,1098.7 1010.1,1098.9 1012.4,1100.7 1013.2,1101.4 1015.5,1103.3 1016.2,1104 1018.5,1105.8 1019,1106.3 1019.3,1106.5 1020.8,1107.7 1021.5,1108.3 1022.3,1109 1024.7,1111 1025.5,1111.6 1027.7,1113.5 1028.5,1114.2 1030.7,1116 1031.5,1116.6 1033.9,1118.7 1034.7,1119.3 1037,1121.2 1037.2,1121.4 1036.6,1122.2 1036.3,1122 1034.1,1120.1 1033.3,1119.5 1030.8,1117.4 1030,1116.8 1027.8,1114.9 1027.1,1114.3 1024.8,1112.4 1024,1111.8 1021.6,1109.8 1020.9,1109.1 1018.6,1107.2 1018.5,1107.2 1017.8,1106.6 1016.8,1105.7 1015.6,1104.7 1014.8,1104.1 1012.5,1102.2 1011.7,1101.5 1009.5,1099.6 1009.4,1099.6 1008.7,1099 1008.3,1098.6 1006.3,1097 1005.5,1096.3 1003.3,1094.5 1002.5,1093.8 1000.2,1091.9 999.9,1091.7 1000.6,1090.9 1000.9,1091.1 1003.2,1093.1 1004,1093.7 1006.2,1095.6 1007,1096.2 "
         id="polygon113" />
      <path
         d="m 1009.9,1099 -0.4,-4.9 -1,0.1 0.4,4.9 z m -5.1,0.9 4.7,-0.4 -0.1,-1 -4.7,0.4 z m 4.6,-0.9 v 0.5 l 0.5,-0.5 z"
         id="path113-40" />
      <polygon
         points="1037,1121.2 1037.2,1121.4 1036.6,1122.2 1036.3,1122 1029.8,1129.9 1030.6,1130.5 1044.2,1114.1 1042.7,1114.3 "
         id="polygon114" />
      <path
         d="m 1037.6,1121.8 -0.4,-4.7 -1,0.1 0.4,4.7 z m -5.3,1 4.9,-0.4 -0.1,-1 -4.9,0.4 z m 4.8,-1 v 0.5 l 0.5,-0.6 z"
         id="path114-3" />
      <polygon
         points="1005.8,1085.2 993.6,1099.6 992,1098.3 1005.6,1082.4 1044.2,1114 1043,1115.5 "
         id="polygon115" />
    </g>
    <path
       id="polygon116"
       d="m 1441,204.9 h -90 l -30.9,-37.3 h -227.2 l -880.5,1039.1 300.8,253.7 108.7,-123.5 165.8,137.9 691.6,-820.6 h 79.7 v 43 h 64.8 v -43 h 168.7 V 697 H 1919 v -42.8 h 503.4 V 204.9 h -46.8935 v -41.8 h -10.6 v 8.1 h 2.5 V 213 H 2414.2 v 433.1 h -503.4 v 42.7 h -110.1 v -42.7 h -181 -4.1 V 689 h -48.4 v -42.9 h -91.7 L 786.6,1463.5 621,1325.8 512.5,1449.1 223.8,1205.8 1096.7,175.8 h 219.5 l 31,37.2 h 97.7 l 30.9,-37.2 h 356.8 l 30.9,37.2 h 448.0831 v -41.8 h 2.5 v -8.1 h -10.7 v 41.8 H 1867.4 l -31,-37.3 H 1472 Z"
       sodipodi:nodetypes="cccccccccccccccccccccccccccccccccccccccccccccccccccccccccc" />
    <polygon
       points="619,1277.9 691.3,1192 692.8,1193.3 621.8,1277.6 647.4,1299.3 646.1,1300.9 "
       id="polygon117" />
    <rect
       x="697.20001"
       y="1179.3"
       transform="matrix(0.644,-0.7651,0.7651,0.644,-652.9243,957.6175)"
       width="10.5"
       height="2"
       id="rect117" />
    <rect
       x="883.20001"
       y="1016.8"
       transform="matrix(0.6508,-0.7592,0.7592,0.6508,-462.5945,1029.7838)"
       width="10.1"
       height="2"
       id="rect118" />
    <rect
       x="581.40002"
       y="1169.7"
       transform="matrix(0.6508,-0.7592,0.7592,0.6508,-624.412,983.7047)"
       width="351.70001"
       height="2"
       id="rect119" />
    <rect
       x="617.29999"
       y="1322.7"
       transform="matrix(0.6508,-0.7592,0.7592,0.6508,-786.3062,937.604)"
       width="17.9"
       height="2"
       id="rect120" />
    <polygon
       points="828.4,1006.9 805.4,1033.5 845.7,1067.5 844.4,1069 802.5,1033.7 828.2,1004.1 891.4,1057.4 913.1,1032.1 914.6,1033.4 891.7,1060.2 "
       id="polygon120" />
    <polygon
       points="689.6,878.6 690.9,877 695.6,880.9 711.2,862.5 712.8,863.8 695.8,883.7 "
       id="polygon121" />
    <polygon
       points="668.6,861.2 684.9,841.1 686.5,842.4 671.4,860.9 676.9,865.5 675.6,867 "
       id="polygon122" />
    <rect
       x="1038.1"
       y="1007.7"
       transform="matrix(0.6424,-0.7664,0.7664,0.6424,-450.3494,1179.7938)"
       width="2"
       height="129.5"
       id="rect122" />
    <rect
       x="1684.6"
       y="561.40002"
       width="8.3999996"
       height="2"
       id="rect123" />
    <rect
       x="1616.1"
       y="561.40002"
       width="55.799999"
       height="2"
       id="rect124" />
    <rect
       x="1361.3"
       y="561.40002"
       width="234.39999"
       height="2"
       id="rect125" />
    <polygon
       points="1136.3,718.1 1269.1,561.4 1340.8,561.4 1340.8,563.4 1270,563.4 1137.8,719.4 "
       id="polygon125" />
    <rect
       x="1076.1"
       y="755.5"
       transform="matrix(0.6466,-0.7628,0.7628,0.6466,-186.5501,1110.267)"
       width="57.900002"
       height="2"
       id="rect126" />
    <polygon
       points="974.2,1016.8 972.9,1018.3 919.6,973.6 920.2,972.9 1072.1,793.7 1073.6,795 922.4,973.4 "
       id="polygon126" />
    <rect
       x="990.09998"
       y="1046.6"
       transform="matrix(0.6469,-0.7626,0.7626,0.6469,-446.5813,1130.7148)"
       width="15"
       height="2"
       id="rect127" />
    <rect
       x="967.59998"
       y="1073.6"
       transform="matrix(0.6469,-0.7626,0.7626,0.6469,-475.329,1122.7589)"
       width="14.1"
       height="2"
       id="rect128" />
    <rect
       x="1132.6"
       y="781.59998"
       transform="matrix(0.6437,-0.7653,0.7653,0.6437,-276.613,1184.2942)"
       width="2"
       height="215.3"
       id="rect129" />
    <polygon
       points="1099.4,763 1100.7,761.5 1184.8,832.8 1291.5,706.3 1293.1,707.6 1185,835.6 "
       id="polygon129" />
    <rect
       x="1281.5"
       y="578.59998"
       transform="matrix(0.6453,-0.7639,0.7639,0.6453,-78.2317,1227.2584)"
       width="2"
       height="238.60001"
       id="rect130" />
    <rect
       x="1109.9"
       y="468.20001"
       transform="matrix(0.6453,-0.7639,0.7639,0.6453,-28.3668,1044.7714)"
       width="2"
       height="169.39999"
       id="rect131" />
    <rect
       x="970.90002"
       y="358.70001"
       transform="matrix(0.6453,-0.7639,0.7639,0.6453,12.0245,896.9439)"
       width="2"
       height="153.7"
       id="rect132" />
    <polygon
       points="1691.2,568 1691.2,524 1729.7,524 1729.7,526 1693.2,526 1693.2,566 1729.7,566 1729.7,568 "
       id="polygon132" />
    <rect
       x="1666.5"
       y="562.40002"
       width="2"
       height="86.699997"
       id="rect133" />
    <rect
       x="1565.1"
       y="646"
       width="56.599998"
       height="2"
       id="rect134" />
    <g
       id="g137">
      <path
         d="m 669.9,1010.1 v -15.8 l 1,1.1 h -4.8 v -2.1 h 6.2 v 16.8 z"
         id="path134-6" />
      <path
         d="m 682.9,1010.3 c -1.3,0 -2.5,-0.3 -3.5,-1 -1,-0.7 -1.8,-1.6 -2.4,-2.9 -0.6,-1.3 -0.9,-2.8 -0.9,-4.7 0,-1.8 0.3,-3.4 0.9,-4.7 0.6,-1.3 1.4,-2.3 2.4,-2.9 1,-0.6 2.2,-1 3.5,-1 1.3,0 2.5,0.3 3.5,1 1,0.7 1.9,1.6 2.4,2.9 0.6,1.3 0.9,2.8 0.9,4.7 0,1.8 -0.3,3.4 -0.9,4.7 -0.6,1.3 -1.4,2.3 -2.4,2.9 -1,0.6 -2.3,1 -3.5,1 z m 0,-2.2 c 0.9,0 1.7,-0.2 2.3,-0.7 0.6,-0.5 1.2,-1.2 1.6,-2.2 0.4,-1 0.6,-2.2 0.6,-3.6 0,-1.4 -0.2,-2.6 -0.6,-3.6 -0.4,-1 -0.9,-1.7 -1.6,-2.2 -0.7,-0.5 -1.4,-0.7 -2.3,-0.7 -0.9,0 -1.7,0.2 -2.3,0.7 -0.7,0.5 -1.2,1.2 -1.6,2.2 -0.4,1 -0.6,2.2 -0.6,3.6 0,1.4 0.2,2.6 0.6,3.6 0.4,1 0.9,1.7 1.6,2.2 0.6,0.5 1.4,0.7 2.3,0.7 z"
         id="path135-6" />
      <path
         d="m 697.4,1010.3 c -1.2,0 -2.3,-0.2 -3.4,-0.6 -1.1,-0.4 -2,-0.9 -2.7,-1.5 l 1.1,-1.9 c 0.6,0.5 1.3,1 2.2,1.3 0.9,0.3 1.8,0.5 2.9,0.5 1.3,0 2.3,-0.3 3,-0.8 0.7,-0.5 1,-1.3 1,-2.2 0,-0.6 -0.2,-1.2 -0.5,-1.6 -0.3,-0.5 -0.8,-0.8 -1.6,-1.1 -0.7,-0.2 -1.8,-0.4 -3.1,-0.4 h -3.8 l 0.9,-8.8 h 9.5 v 2.1 h -8.6 l 1.2,-1.2 -0.7,6.9 -1.2,-1.2 h 3.2 c 1.7,0 3,0.2 4.1,0.6 1.1,0.4 1.8,1 2.2,1.8 0.5,0.8 0.7,1.6 0.7,2.6 0,1 -0.2,1.8 -0.7,2.6 -0.5,0.8 -1.2,1.4 -2.1,1.9 -1,0.7 -2.1,1 -3.6,1 z"
         id="path136-1" />
      <path
         d="m 710.5,1010.2 c -0.9,0 -1.8,-0.2 -2.5,-0.5 -0.7,-0.3 -1.3,-0.8 -1.6,-1.3 -0.4,-0.6 -0.6,-1.2 -0.6,-1.9 0,-0.7 0.2,-1.3 0.5,-1.9 0.3,-0.6 0.9,-1 1.6,-1.3 0.7,-0.3 1.7,-0.5 3,-0.5 h 4 v 1.7 H 711 c -1.2,0 -1.9,0.2 -2.3,0.6 -0.4,0.4 -0.6,0.8 -0.6,1.4 0,0.6 0.2,1.1 0.7,1.5 0.5,0.4 1.2,0.6 2.1,0.6 0.9,0 1.6,-0.2 2.3,-0.6 0.6,-0.4 1.1,-0.9 1.4,-1.7 l 0.5,1.6 c -0.3,0.8 -0.8,1.3 -1.6,1.8 -0.9,0.3 -1.9,0.5 -3,0.5 z m 4.2,-0.1 v -2.7 l -0.1,-0.5 v -4.6 c 0,-1 -0.3,-1.7 -0.9,-2.3 -0.6,-0.5 -1.4,-0.8 -2.6,-0.8 -0.8,0 -1.5,0.1 -2.2,0.4 -0.7,0.2 -1.3,0.6 -1.8,1 l -1,-1.7 c 0.7,-0.5 1.4,-0.9 2.4,-1.2 0.9,-0.3 1.9,-0.4 2.9,-0.4 1.7,0 3.1,0.4 4,1.3 0.9,0.9 1.4,2.1 1.4,3.9 v 7.7 h -2.1 z"
         id="path137-3" />
    </g>
    <rect
       x="884.40002"
       y="504.29999"
       transform="matrix(0.6429,-0.7659,0.7659,0.6429,-47.4181,908.9647)"
       width="133.5"
       height="2"
       id="rect137" />
    <rect
       x="858.70001"
       y="588.20001"
       transform="matrix(0.6429,-0.7659,0.7659,0.6429,-136.8287,884.9847)"
       width="44.099998"
       height="2"
       id="rect138" />
    <rect
       x="825.79999"
       y="633.59998"
       transform="matrix(0.6429,-0.7659,0.7659,0.6429,-185.1277,872.0308)"
       width="33.900002"
       height="2"
       id="rect139" />
    <polygon
       points="708,793.4 748,745.9 749.5,747.1 710.8,793.2 796.8,865.9 1092.2,516.2 1093.7,517.4 797,868.7 "
       id="polygon139" />
    <polygon
       points="1106.5,499.3 1190.4,400 1190.4,246.6 1192.4,246.6 1192.4,400.7 1108,500.5 "
       id="polygon140" />
    <rect
       x="1190.4"
       y="173.39999"
       width="2"
       height="52.5"
       id="rect140" />
    <path
       d="m 544.2,1105.6 c 2.6,0 4.9,-0.9 6.4,-2.6 l -1.6,-1.5 c -1.3,1.4 -2.9,2 -4.7,2 -3.8,0 -6.6,-2.7 -6.6,-6.5 0,-3.7 2.8,-6.5 6.6,-6.5 1.8,0 3.4,0.6 4.7,2 l 1.6,-1.5 c -1.5,-1.7 -3.8,-2.6 -6.4,-2.6 -5.1,0 -8.9,3.6 -8.9,8.6 0,5 3.8,8.6 8.9,8.6 z m -12.6,-16.9 -4.6,13.7 -4.6,-13.7 h -2.2 l -4.7,13.7 -4.5,-13.7 h -2.5 l 5.6,16.8 h 2.6 l 4.6,-13.4 4.6,13.4 h 2.5 l 5.6,-16.8 z"
       id="path140-2" />
    <path
       d="m 832.1,694.4 c 1.7,0 3.1,-0.6 4,-1.7 l -1,-1 c -0.8,0.9 -1.8,1.3 -3,1.3 -2.4,0 -4.2,-1.7 -4.2,-4.1 0,-2.3 1.8,-4.1 4.2,-4.1 1.2,0 2.2,0.4 3,1.3 l 1,-1 c -1,-1.1 -2.4,-1.7 -4,-1.7 -3.2,0 -5.6,2.3 -5.6,5.4 0,3.1 2.4,5.6 5.6,5.6 z m -7.9,-10.7 -2.9,8.7 -2.9,-8.7 H 817 l -3,8.6 -2.9,-8.6 h -1.6 l 3.5,10.6 h 1.6 l 2.9,-8.5 2.9,8.5 h 1.6 l 3.5,-10.6 z"
       id="path141-0" />
    <rect
       x="823.20001"
       y="688.5"
       transform="matrix(0.6419,-0.7668,0.7668,0.6419,-276.8774,899.1043)"
       width="2"
       height="114.9"
       id="rect141" />
    <rect
       x="880.29999"
       y="620.59998"
       transform="matrix(0.6429,-0.7659,0.7659,0.6429,-204.7198,917.1663)"
       width="2"
       height="115.2"
       id="rect142" />
    <rect
       x="930"
       y="561.40002"
       transform="matrix(0.6443,-0.7647,0.7647,0.6443,-142.3861,932.163)"
       width="2"
       height="115.4"
       id="rect143" />
    <rect
       x="986.5"
       y="494.20001"
       transform="matrix(0.6403,-0.7681,0.7681,0.6403,-68.895,957.0012)"
       width="2"
       height="115.7"
       id="rect144" />
    <polygon
       points="1035.3,585 1036.6,583.5 1070.6,612 1093.8,584.4 1059.9,556 1061.2,554.4 1096.6,584.1 1070.9,614.8 "
       id="polygon144" />
    <rect
       x="1676.9"
       y="171.7"
       width="2"
       height="10.7"
       id="rect145" />
    <polygon
       points="1220.2,376.9 1220.2,374.9 1676.9,374.9 1676.9,199.2 1678.9,199.2 1678.9,376.9 "
       id="polygon145" />
    <rect
       x="1191.4"
       y="374.89999"
       width="7.4000001"
       height="2"
       id="rect146" />
    <rect
       x="1220.2"
       y="199.39999"
       width="9.6000004"
       height="2"
       id="rect147" />
    <rect
       x="1191.4"
       y="199.39999"
       width="7.4000001"
       height="2"
       id="rect148" />
    <rect
       x="1677.9"
       y="293"
       width="51.700001"
       height="2"
       id="rect149" />
    <rect
       x="1711"
       y="228.39999"
       width="18.700001"
       height="2"
       id="rect150" />
    <rect
       x="1677.9"
       y="228.39999"
       width="16.4"
       height="2"
       id="rect151" />
    <rect
       x="1229.1"
       y="173.39999"
       width="2"
       height="154.5"
       id="rect152" />
    <rect
       x="1229.1"
       y="348.60001"
       width="2"
       height="27.299999"
       id="rect153" />
    <rect
       x="1085.2"
       y="428.39999"
       transform="matrix(0.6434,-0.7656,0.7656,0.6434,30.4549,997.785)"
       width="2"
       height="75.699997"
       id="rect154" />
    <rect
       x="992.59998"
       y="326.5"
       transform="matrix(0.6434,-0.7656,0.7656,0.6434,56.997,899.1806)"
       width="2"
       height="123.9"
       id="rect155" />
    <g
       id="g157">
      <rect
         x="1019"
         y="424.60001"
         transform="matrix(0.6524,-0.7579,0.7579,0.6524,34.1827,925.8204)"
         width="14.8"
         height="2"
         id="rect156" />
      <rect
         x="996.09998"
         y="451.70001"
         transform="matrix(0.6524,-0.7579,0.7579,0.6524,5.5752,917.5784)"
         width="14"
         height="2"
         id="rect157" />
    </g>
    <g
       id="g159">
      <rect
         x="952.59998"
         y="370"
         transform="matrix(0.6524,-0.7579,0.7579,0.6524,52.5061,856.5278)"
         width="14.8"
         height="2"
         id="rect158" />
      <rect
         x="929.70001"
         y="397.10001"
         transform="matrix(0.6524,-0.7579,0.7579,0.6524,23.8988,848.2856)"
         width="14"
         height="2"
         id="rect159" />
    </g>
    <polygon
       points="811.5,627.1 814.4,623.7 754.5,573.1 755.8,571.6 817.2,623.4 813.1,628.4 "
       id="polygon159" />
    <rect
       x="780.09998"
       y="647.70001"
       transform="matrix(0.6426,-0.7662,0.7662,0.6426,-212.9945,840.7272)"
       width="29.299999"
       height="2"
       id="rect160" />
    <rect
       x="696.29999"
       y="706.29999"
       transform="matrix(0.6426,-0.7662,0.7662,0.6426,-275.4903,824.0016)"
       width="98.599998"
       height="2"
       id="rect161" />
    <polygon
       points="624.9,727.9 626.2,726.4 685.6,777.2 699.9,760.3 701.4,761.5 685.8,780.1 "
       id="polygon161" />
    <rect
       x="728.20001"
       y="627.20001"
       transform="matrix(0.6439,-0.7651,0.7651,0.6439,-250.0562,795.1817)"
       width="2"
       height="77.900002"
       id="rect162" />
    <polygon
       points="772.5,624.3 789.9,602.8 791.5,604.1 775.3,624.1 798.2,644.6 796.9,646.1 "
       id="polygon162" />
    <polygon
       points="905.6,517.7 922,498 862,447.9 863.3,446.4 924.9,497.8 907.1,519 "
       id="polygon163" />
    <polygon
       points="780.6,546.6 781.9,545.1 841.1,594.6 892,533.8 893.6,535.1 841.3,597.4 "
       id="polygon164" />
    <rect
       x="895.5"
       y="462.79999"
       transform="matrix(0.6464,-0.763,0.763,0.6464,-28.4638,866.2695)"
       width="49.5"
       height="2"
       id="rect164" />
    <rect
       x="941.5"
       y="427.60001"
       transform="matrix(0.6464,-0.763,0.763,0.6464,9.02,876.5975)"
       width="17.4"
       height="2"
       id="rect165" />
    <rect
       x="1113.1"
       y="205.8"
       transform="matrix(0.6409,-0.7676,0.7676,0.6409,164.8051,965.2518)"
       width="2"
       height="201.39999"
       id="rect166" />
    <rect
       x="1179.2"
       y="205.3"
       width="12.1"
       height="2"
       id="rect167" />
    <polygon
       points="1138.3,207.3 1138.3,171.7 1140.3,171.7 1140.3,205.3 1167.1,205.3 1167.1,207.3 "
       id="polygon167" />
    <g
       id="g170">
      <rect
         x="1279.7"
         y="250.60001"
         class="st1"
         width="36.299999"
         height="41.299999"
         id="rect168"
         style="fill:#17b69c" />
      <path
         d="m 1287.1,257.9 h 23.2 v -1 h -23.2 z m 0.5,27.2 v -27.7 h -1 v 27.7 z m 22.7,-0.5 h -23.2 v 1 h 23.2 z m -0.5,-27.2 v 27.7 h 1 v -27.7 z m -22.7,0 v -0.5 h -0.5 v 0.5 z m 0,27.7 h -0.5 v 0.5 h 0.5 z m 23.2,0 v 0.5 h 0.5 v -0.5 z m 0,-27.7 h 0.5 v -0.5 h -0.5 z"
         id="path168-4" />
      <rect
         x="1280.6"
         y="270.89999"
         transform="matrix(0.6457,-0.7636,0.7636,0.6457,252.9425,1087.8667)"
         width="36.299999"
         height="1"
         id="rect169" />
      <rect
         x="1298.2"
         y="253.2"
         transform="matrix(0.7636,-0.6457,0.6457,0.7636,131.8051,902.7358)"
         width="1"
         height="36.299999"
         id="rect170" />
    </g>
    <g
       id="g187">
      <rect
         x="1258.8"
         y="213.7"
         width="19.9"
         height="1"
         id="rect171" />
      <rect
         x="1259.2"
         y="217.60001"
         width="19.4"
         height="1"
         id="rect172" />
      <rect
         x="1259.2"
         y="221.7"
         width="19.4"
         height="1"
         id="rect173" />
      <rect
         x="1259.2"
         y="225.8"
         width="19.4"
         height="1"
         id="rect174" />
      <rect
         x="1259.2"
         y="229.60001"
         width="19.4"
         height="1"
         id="rect175" />
      <rect
         x="1259.2"
         y="233.7"
         width="19.4"
         height="1"
         id="rect176" />
      <rect
         x="1259.2"
         y="237.60001"
         width="19.4"
         height="1"
         id="rect177" />
      <rect
         x="1259.2"
         y="241.60001"
         width="19.4"
         height="1"
         id="rect178" />
      <rect
         x="1259.2"
         y="245.7"
         width="19.4"
         height="1"
         id="rect179" />
      <rect
         x="1259.2"
         y="249.60001"
         width="19.4"
         height="1"
         id="rect180" />
      <rect
         x="1259.2"
         y="253.7"
         width="19.4"
         height="1"
         id="rect181" />
      <rect
         x="1259.2"
         y="257.5"
         width="19.4"
         height="1"
         id="rect182" />
      <rect
         x="1259.2"
         y="261.60001"
         width="19.4"
         height="1"
         id="rect183" />
      <rect
         x="1259.2"
         y="265.5"
         width="19.4"
         height="1"
         id="rect184" />
      <path
         d="m 1258.7,270 v 0.5 h 0.5 V 270 Z m 0,-56.3 V 270 h 1 v -56.3 z m 0.5,55.8 v 1 h 19.4 v -1 z"
         id="path184-2" />
      <path
         d="m 1267.2,235.2 v 0 l 0.2,0.5 0.3,-0.3 z m 0.5,-4.4 0.5,0.1 0.5,-0.2 z m 4,6.8 -0.4,-0.1 -0.2,0.1 v 0 l -0.2,0.1 z m 0.3,-5.3 -0.3,0.4 0.5,0.1 z m -4.8,2.9 v 0 l -0.2,-0.5 -0.2,0.1 -5.5,2.7 -1.5,0.7 -0.5,0.2 -0.2,0.1 0.4,0.9 0.3,-0.1 1.7,-0.8 2.1,-1 3.9,-1.9 z m 1,-4.3 -0.5,-0.1 -0.7,2.9 -0.2,1 v 0.1 l -0.1,0.2 0.5,0.1 v 0 l 0.2,0.5 0.3,-0.3 0.2,-0.6 0.2,-1 0.3,-1.2 0.3,-1.4 z m 2.8,5 -0.5,-1.2 -0.5,-1 -0.1,-0.3 -1,-2.2 -0.2,-0.5 -0.5,0.2 -0.5,0.2 0.6,1.3 0.5,1.2 v 0 l 0.5,1 0.5,1.1 0.8,1.7 0.1,0.1 0.2,-0.1 v 0 l 0.2,-0.1 0.5,-0.2 z m 1.2,-3.1 v 0 l -0.2,-0.5 -0.3,0.4 -0.2,1 -0.2,1 -0.3,1.2 -0.3,1.5 0.5,0.1 0.4,0.1 v 0 0 l 0.6,-2.8 0.2,-1 0.1,-0.6 0.1,-0.2 z m -2.3,0.9 h 0.1 l -0.1,-0.3 z m 7.5,-4.1 -2,1 -3.4,1.7 0.2,0.5 v 0 l 0.2,0.5 0.2,-0.1 6,-3 V 229 Z"
         id="path185-7" />
      <rect
         x="1268.9"
         y="214.3"
         width="1"
         height="56.200001"
         id="rect185" />
      <path
         d="m 1269,245.9 -3.3,3.3 0.7,0.7 3.3,-3.3 z m 4.2,3.2 -3.5,-3.3 -0.7,0.7 3.5,3.3 z m -3.8,-2.9 0.3,-0.4 h -0.7 z"
         id="path186-7" />
      <path
         d="m 1269,213.9 -3.3,3.5 0.7,0.7 3.3,-3.5 z m 4.2,3.5 -3.5,-3.5 -0.7,0.7 3.5,3.5 z m -3.8,-3.1 0.4,-0.4 h -0.7 z"
         id="path187-8" />
    </g>
    <polygon
       points="1266.7,292.8 1266.7,290.8 1356.5,290.8 1356.5,250.9 1279.7,250.9 1279.7,248.9 1358.5,248.9 1358.5,292.8 "
       id="polygon187" />
    <rect
       x="1230.1"
       y="290.79999"
       width="15.2"
       height="2"
       id="rect187" />
    <rect
       x="1314"
       y="250.10001"
       width="2"
       height="13.6"
       id="rect188" />
    <polygon
       points="1266.7,312.5 1266.7,310.5 1314,310.5 1314,280.8 1316,280.8 1316,312.5 "
       id="polygon188" />
    <rect
       x="1230.1"
       y="310.5"
       width="15.2"
       height="2"
       id="rect189" />
    <rect
       x="1278.7"
       y="173.39999"
       width="2"
       height="118.6"
       id="rect190" />
    <rect
       x="1813"
       y="174.10001"
       width="2"
       height="202.89999"
       id="rect191" />
    <rect
       x="1871.4"
       y="211"
       width="2"
       height="84.300003"
       id="rect192" />
    <rect
       x="1871.4"
       y="312"
       width="2"
       height="65"
       id="rect193" />
    <g
       id="g195">
      <rect
         x="1896.1"
         y="248.5"
         width="5.0999999"
         height="2"
         id="rect194" />
      <rect
         x="1873"
         y="248.5"
         width="6.6999998"
         height="2"
         id="rect195" />
    </g>
    <g
       id="g197">
      <rect
         x="1896.1"
         y="226.5"
         width="5.0999999"
         height="2"
         id="rect196" />
      <rect
         x="1873"
         y="226.5"
         width="6.6999998"
         height="2"
         id="rect197" />
    </g>
    <rect
       x="2183.3999"
       y="294.20001"
       width="12.3"
       height="2"
       id="rect198" />
    <rect
       x="2097.6001"
       y="294.20001"
       width="64.699997"
       height="2"
       id="rect199" />
    <rect
       x="2021.9"
       y="294.20001"
       width="54.799999"
       height="2"
       id="rect200" />
    <rect
       x="1987"
       y="294.20001"
       width="23.1"
       height="2"
       id="rect201" />
    <rect
       x="1944.7"
       y="294.20001"
       width="24.4"
       height="2"
       id="rect202" />
    <polygon
       points="1900.1,296.2 1900.1,210 1902.1,210 1902.1,294.2 1928.7,294.2 1928.7,296.2 "
       id="polygon202" />
    <g
       id="g219">
      <rect
         x="2175.2"
         y="216.2"
         width="19.9"
         height="1"
         id="rect203" />
      <rect
         x="2175.7"
         y="220.10001"
         width="19.4"
         height="1"
         id="rect204" />
      <rect
         x="2175.7"
         y="224.10001"
         width="19.4"
         height="1"
         id="rect205" />
      <rect
         x="2175.7"
         y="228.2"
         width="19.4"
         height="1"
         id="rect206" />
      <rect
         x="2175.7"
         y="232.10001"
         width="19.4"
         height="1"
         id="rect207" />
      <rect
         x="2175.7"
         y="236.10001"
         width="19.4"
         height="1"
         id="rect208" />
      <rect
         x="2175.7"
         y="240"
         width="19.4"
         height="1"
         id="rect209" />
      <rect
         x="2175.7"
         y="244.10001"
         width="19.4"
         height="1"
         id="rect210" />
      <rect
         x="2175.7"
         y="248.10001"
         width="19.4"
         height="1"
         id="rect211" />
      <rect
         x="2175.7"
         y="252"
         width="19.4"
         height="1"
         id="rect212" />
      <rect
         x="2175.7"
         y="256.10001"
         width="19.4"
         height="1"
         id="rect213" />
      <rect
         x="2175.7"
         y="260"
         width="19.4"
         height="1"
         id="rect214" />
      <rect
         x="2175.7"
         y="264"
         width="19.4"
         height="1"
         id="rect215" />
      <rect
         x="2175.7"
         y="267.89999"
         width="19.4"
         height="1"
         id="rect216" />
      <path
         d="m 2175.2,272.5 v 0.5 h 0.5 v -0.5 z m 0,-56.3 v 56.3 h 1 v -56.3 z m 0.5,55.8 v 1 h 19.4 v -1 z"
         id="path216" />
      <path
         d="m 2183.6,237.7 v 0 l 0.2,0.5 0.3,-0.3 z m 0.6,-4.4 0.5,0.1 0.5,-0.2 z m 4,6.7 -0.4,-0.1 -0.2,0.1 v 0 l -0.2,0.1 z m 0.3,-5.2 -0.3,0.4 0.5,0.1 z m -4.9,2.9 v 0 l -0.2,-0.5 -0.2,0.1 -5.5,2.7 -1.5,0.7 -0.5,0.2 -0.2,0.1 0.4,0.9 0.3,-0.1 1.7,-0.8 2.1,-1 3.9,-1.9 z m 1,-4.3 -0.5,-0.1 -0.7,2.9 -0.2,1 v 0.1 l -0.1,0.2 0.5,0.1 v 0 l 0.2,0.5 0.3,-0.3 0.1,-0.6 0.2,-1 0.3,-1.2 0.3,-1.4 z m 2.9,4.9 -0.5,-1.2 -0.5,-1 -0.1,-0.3 -1,-2.2 -0.2,-0.5 -0.5,0.2 -0.5,0.2 0.6,1.3 0.6,1.2 v 0 l 0.5,1 0.5,1.1 0.8,1.7 0.1,0.1 0.2,-0.1 v 0 l 0.2,-0.1 0.5,-0.2 z m 1.2,-3.1 v 0 l -0.2,-0.5 -0.3,0.4 -0.2,1 -0.2,1 -0.3,1.2 -0.3,1.5 0.5,0.1 0.4,0.1 v 0 0 l 0.6,-2.8 0.2,-1 0.1,-0.6 0.1,-0.2 z m -2.3,0.9 h 0.1 l -0.1,-0.3 z m 7.5,-4 -2,1 -3.4,1.7 0.2,0.5 v 0 l 0.2,0.5 0.2,-0.1 6,-3 v -1.1 z"
         id="path217" />
      <rect
         x="2185.3999"
         y="216.7"
         width="1"
         height="56.200001"
         id="rect217" />
      <path
         d="m 2185.5,248.3 -3.3,3.3 0.7,0.7 3.3,-3.3 z m 4.2,3.2 -3.5,-3.3 -0.7,0.7 3.5,3.3 z m -3.8,-2.8 0.3,-0.4 h -0.7 z"
         id="path218" />
      <path
         d="m 2185.5,216.3 -3.3,3.5 0.7,0.7 3.3,-3.5 z m 4.2,3.5 -3.5,-3.5 -0.7,0.7 3.5,3.5 z m -3.8,-3.1 0.4,-0.4 h -0.7 z"
         id="path219" />
    </g>
    <rect
       x="1958.5"
       y="208.89999"
       width="2"
       height="86.300003"
       id="rect219" />
    <rect
       x="2054.7"
       y="208.89999"
       width="2"
       height="86.300003"
       id="rect220" />
    <rect
       x="2004.7"
       y="252.60001"
       width="2"
       height="42.599998"
       id="rect221" />
    <rect
       x="2004.7"
       y="210"
       width="2"
       height="30.1"
       id="rect222" />
    <rect
       x="2110.1001"
       y="278.70001"
       width="2"
       height="16.5"
       id="rect223" />
    <rect
       x="2110.1001"
       y="210"
       width="2"
       height="56"
       id="rect224" />
    <polygon
       points="2138,295.2 2138,274.9 2155.4,274.9 2155.4,276.9 2140,276.9 2140,295.2 "
       id="polygon224" />
    <rect
       x="2154.3999"
       y="210"
       width="2"
       height="32.700001"
       id="rect225" />
    <rect
       x="2154.3999"
       y="255.5"
       width="2"
       height="39.799999"
       id="rect226" />
    <polygon
       points="2132.2,263.4 2132.2,208.9 2134.2,208.9 2134.2,261.4 2155.4,261.4 2155.4,263.4 "
       id="polygon226" />
    <rect
       x="2188.6001"
       y="344.60001"
       width="7.0999999"
       height="2"
       id="rect227" />
    <polygon
       points="2165.2,385.6 2165.2,344.6 2177.6,344.6 2177.6,346.6 2167.2,346.6 2167.2,385.6 "
       id="polygon227" />
    <rect
       x="2165.2"
       y="398.10001"
       width="2"
       height="45.599998"
       id="rect228" />
    <rect
       x="2166.2"
       y="372.60001"
       width="29.1"
       height="2"
       id="rect229" />
    <g
       id="g230">
      <path
         d="m 2190.1,369.6 h -14.5 v -18.5 h 14.5 z m -13.5,-1 h 12.5 v -16.5 h -12.5 z"
         id="path229" />
      <path
         d="m 2189.6,369.6 h -13.5 c -0.2,0 -0.4,-0.1 -0.4,-0.3 -0.1,-0.2 -0.1,-0.4 0.1,-0.5 l 6.5,-8.4 -6.5,-8.4 0.8,-0.6 6.4,8.2 6.4,-8.2 0.8,0.6 -6.5,8.4 6.5,8.4 c 0.1,0.2 0.1,0.4 0.1,0.5 -0.3,0.2 -0.5,0.3 -0.7,0.3 z m -12.5,-1 h 11.5 l -5.7,-7.4 z"
         id="path230" />
    </g>
    <rect
       x="890.5"
       y="1151.2"
       transform="matrix(0.6437,-0.7653,0.7653,0.6437,-620.9736,1119.2202)"
       width="2"
       height="150.60001"
       id="rect230" />
    <rect
       x="800.79999"
       y="1130"
       transform="matrix(0.6437,-0.7653,0.7653,0.6437,-595.1993,1023.7101)"
       width="2"
       height="42"
       id="rect231" />
    <rect
       x="734.09998"
       y="1253.9"
       transform="matrix(0.6503,-0.7597,0.7597,0.6503,-777.5195,1034.7312)"
       width="2"
       height="215.89999"
       id="rect232" />
    <g
       id="g236">
      <rect
         x="698.59998"
         y="1390.1"
         transform="matrix(0.6445,-0.7646,0.7646,0.6445,-811.9387,1035.8364)"
         width="18.799999"
         height="2"
         id="rect233" />
      <rect
         x="712.40002"
         y="1343.9"
         transform="matrix(0.6445,-0.7646,0.7646,0.6445,-762.8553,1049.1676)"
         width="68.900002"
         height="2"
         id="rect234" />
      <rect
         x="793.79999"
         y="1267.6"
         transform="matrix(0.6445,-0.7646,0.7646,0.6445,-681.6201,1071.2314)"
         width="34.799999"
         height="2"
         id="rect235" />
      <rect
         x="850.20001"
         y="1210.5"
         transform="matrix(0.6445,-0.7646,0.7646,0.6445,-620.7766,1087.7566)"
         width="18.299999"
         height="2"
         id="rect236" />
    </g>
    <rect
       x="669.40002"
       y="814.29999"
       transform="matrix(0.6455,-0.7637,0.7637,0.6455,-376.178,819.9825)"
       width="51.799999"
       height="2"
       id="rect237" />
    <rect
       x="612.40002"
       y="774.70001"
       transform="matrix(0.6502,-0.7598,0.7598,0.6502,-372.3055,742.7145)"
       width="16"
       height="2"
       id="rect238" />
    <rect
       x="636.79999"
       y="748.59998"
       transform="matrix(0.65,-0.7599,0.7599,0.65,-344.6984,750.7255)"
       width="11.9"
       height="2"
       id="rect239" />
    <g
       id="g242">
      <rect
         x="815.90002"
         y="659.20001"
         transform="matrix(0.6429,-0.7659,0.7659,0.6429,-212.4922,864.6916)"
         width="10.5"
         height="2"
         id="rect240" />
      <rect
         x="805.79999"
         y="673.59998"
         transform="matrix(0.6429,-0.7659,0.7659,0.6429,-227.8288,860.5785)"
         width="6.4000001"
         height="2"
         id="rect241" />
      <rect
         x="751.29999"
         y="706.90002"
         transform="matrix(0.6429,-0.7659,0.7659,0.6429,-263.3227,851.059)"
         width="59.599998"
         height="2"
         id="rect242" />
      <polygon
         points="796.9,689.1 798.2,687.5 829.1,713.1 850.3,688.4 819.2,662.5 820.5,661 853.2,688.2 829.3,715.9 "
         id="polygon242" />
    </g>
    <rect
       x="2134.7"
       y="605.59998"
       width="2"
       height="42.900002"
       id="rect243" />
    <rect
       x="1980.2"
       y="432.5"
       width="2"
       height="11.7"
       id="rect244" />
    <rect
       x="1980.2"
       y="403.29999"
       width="2"
       height="17.1"
       id="rect245" />
    <rect
       x="1980.2"
       y="365.70001"
       width="2"
       height="24.799999"
       id="rect246" />
    <polygon
       points="1980.2,353 1980.2,338.3 1918.7,338.3 1918.7,336.3 1982.2,336.3 1982.2,353 "
       id="polygon246" />
    <polygon
       points="2010.9,390 2010.9,388 2136.8,388 2136.8,369 2138.8,369 2138.8,390 "
       id="polygon247" />
    <polygon
       points="2136.8,356.6 2136.8,322.1 2024.2,322.1 2024.2,320.1 2138.8,320.1 2138.8,356.6 "
       id="polygon248" />
    <polygon
       points="2008.9,361.6 2008.9,320.1 2013.4,320.1 2013.4,322.1 2010.9,322.1 2010.9,361.6 "
       id="polygon249" />
    <rect
       x="2008.9"
       y="374"
       width="2"
       height="22.4"
       id="rect249" />
    <rect
       x="2008.9"
       y="408.79999"
       width="2"
       height="11.3"
       id="rect250" />
    <rect
       x="2008.9"
       y="432.5"
       width="2"
       height="11.2"
       id="rect251" />
    <rect
       x="2010.1"
       y="356.70001"
       width="61.299999"
       height="2"
       id="rect252" />
    <rect
       x="2070.5"
       y="321.10001"
       width="2"
       height="122.5"
       id="rect253" />
    <rect
       x="2009.9"
       y="415.39999"
       width="61.599998"
       height="2"
       id="rect254" />
    <rect
       x="1918.7"
       y="376"
       width="62.5"
       height="2"
       id="rect255" />
    <rect
       x="1918.7"
       y="408.79999"
       width="62.5"
       height="2"
       id="rect256" />
  </g>
</svg>
