<svg xmlns="http://www.w3.org/2000/svg" xmlns:xlink="http://www.w3.org/1999/xlink" width="3404" height="2428" viewBox="0 0 2553 1821"><use xlink:href="#a" transform="matrix(122.16216 0 0 -122.16216 152 239)"/><use xlink:href="#b" transform="matrix(122.16216 0 0 -122.16216 223.343 239)"/><use xlink:href="#c" transform="matrix(122.16216 0 0 -122.16216 257.06 239)"/><use xlink:href="#d" transform="matrix(122.16216 0 0 -122.16216 325.656 239)"/><use xlink:href="#e" transform="matrix(122.16216 0 0 -122.16216 388.448 239)"/><use xlink:href="#f" transform="matrix(122.16216 0 0 -122.16216 461.379 239)"/><path d="m803.175 897.365-30.79 36.888 32.043 26.746 30.79-36.888-32.043-26.746z" fill="#17b69c"/><path d="m927.012 652.036-86.939 103.227 1.557 1.311 86.939-103.227-1.557-1.311zM780.012 528.243 693.073 631.47l1.557 1.311 86.94-103.227-1.558-1.311zM705.337 465.446l-86.939 103.227 1.557 1.312 86.94-103.227-1.558-1.312zM856.877 592.88l-86.94 103.228 1.558 1.311 86.94-103.227-1.558-1.311zM968.954 687.255l-87.142 103.227 1.556 1.314 87.142-103.227-1.556-1.314zM539.078 1045.69l59.045-70.244-1.558-1.31-59.045 70.243 1.558 1.31zM646.375 764.717l59.656-70.854-1.558-1.312-59.656 70.855 1.558 1.31zM686.077 798.109l59.656-70.65-1.556-1.314-59.656 70.65 1.556 1.314zM723.944 830.075l59.656-70.65-1.556-1.314-59.656 70.65 1.556 1.314zM763.04 863.059l60.063-71.261-1.556-1.312-60.064 71.26 1.557 1.313zM577.964 1078.266l59.045-70.04-1.557-1.312-59.045 70.04 1.557 1.312zM461.095 1208.368l91.418-108.52-1.557-1.312-91.418 108.52 1.557 1.312zM387.714 1146.66l91.418-108.521-1.557-1.312-91.418 108.52 1.557 1.312zM506.5 1244.815l90.603-107.503-1.557-1.312-90.604 107.503 1.557 1.312zM611.559 1106.77l59.045-70.244-1.559-1.31L610 1105.459l1.559 1.31zM652.684 1141.383l59.045-70.244-1.559-1.31-59.045 70.244 1.559 1.31z"/><path d="m569.188 525.547-28.606-24.098-1.312 1.557 28.606 24.098 1.312-1.557zm55.83 47.032-35.945-30.28-1.312 1.556 35.946 30.28 1.312-1.556z"/><path d="m800.79 720.934-56.564-47.728-1.313 1.556 56.564 47.728 1.313-1.556zM650.984 594.53l-28.755-24.263-1.313 1.556 28.755 24.263 1.313-1.556zm69.932 59.007-48.532-40.95-1.313 1.556 48.532 40.95 1.313-1.556zM855.558 766.947l-40.924-34.409-1.31 1.559 40.924 34.409 1.31-1.559zM943.718 841.262l-74.52-62.71-1.31 1.558 74.519 62.71 1.31-1.558zM996.046 885.447l-38.685-32.78-1.316 1.553L994.73 887l1.316-1.553zM494.928 1008.384l-.777-.657-.658.777.777.658.658-.778zm13.892 10.421-13.235-11.198-1.315 1.555 13.235 11.198 1.315-1.555zm-13.115-9.763 59.249-70.04-1.555-1.315-59.248 70.04 1.554 1.315zM548.32 1051.991l-25.857-21.785-1.312 1.557 25.858 21.785 1.312-1.557zM583.135 1081.517 561.96 1063.6l-1.315 1.554 21.175 17.917 1.315-1.554zM627.317 1118.569l-30.336-25.45-1.309 1.56 30.337 25.45 1.308-1.56zM665.595 1150.944l-24.636-20.767-1.312 1.556 24.635 20.768 1.313-1.557zM693.689 1174.556l-14.456-12.013-1.301 1.566 14.456 12.013 1.3-1.566zM402.903 973.772l.652-.782-.778-.648-.652.774.778.656zm31.198 24.877a7853.85 7853.85 0 0 0-28.35-23.825 3215.266 3215.266 0 0 0-2.054-1.715l-.106-.089-.027-.022-.007-.006-.001-.001-.653.781-.651.783.002.001.006.006.027.022.106.088a1660.559 1660.559 0 0 1 2.053 1.714c1.43 1.196 3.53 2.952 6.202 5.191a7852.566 7852.566 0 0 1 22.139 18.627l1.314-1.555zm-31.976-25.533-90.807 107.706 1.556 1.313 90.808-107.706-1.557-1.313zM503.443 1057.562c-15.9-13.647-39.03-33.382-55.495-47.506l-1.325 1.545c16.491 14.148 39.574 33.841 55.494 47.506l1.326-1.545zM568.392 1112.27c-7.074-6.098-15.763-13.33-24.507-20.607-8.747-7.28-17.548-14.608-24.858-20.906l-1.33 1.542c7.326 6.313 16.142 13.651 24.886 20.929 8.747 7.28 17.422 14.5 24.48 20.584l1.33-1.542zM605.69 1144.394l.654-.78v-.001l-.002-.001-.005-.005-.022-.018-.087-.073a2704.316 2704.316 0 0 1-1.684-1.41l-5.121-4.295c-4.428-3.715-10.79-9.06-18.527-15.574l-1.311 1.557a13782.203 13782.203 0 0 0 25.336 21.284l.087.072.022.019.006.004.001.001.654-.78z"/><path d="m404.405 975.127.658-.777v-.001c-.002 0-.003-.002-.005-.004l-.017-.014-.066-.056a2904.896 2904.896 0 0 1-1.302-1.103l-4.065-3.448c-3.567-3.025-8.811-7.476-15.52-13.176a41892.794 41892.794 0 0 1-56.143-47.784l-1.32 1.55A41889.048 41889.048 0 0 0 382.77 958.1a28088.033 28088.033 0 0 0 20.89 17.729l.065.056.017.014.004.003.001.001.658-.776zM309.702 895.488l.661-.775-.002-.002-.008-.006-.032-.028a4236.657 4236.657 0 0 1-2.934-2.504l-10.065-8.589c-9.451-8.063-24.763-21.123-48.208-41.112l-1.321 1.55a204890.878 204890.878 0 0 1 61.075 52.092l.13.111.033.028.007.007.002.001.662-.773zM708.554 1229.942l-88.567-74.722-1.313 1.556 88.567 74.723 1.313-1.557z"/><path d="m675.96 1194.036-4.682 5.701 1.573 1.293 4.683-5.701-1.573-1.293zM710.545 1154.776l.657-.777-.778-.657-.657.777.778.657zm34.862 28.135-34.205-28.912-1.314 1.555 34.205 28.912 1.314-1.555zm-35.64-28.792-22.193 26.265 1.555 1.314 22.193-26.265-1.555-1.314zM813.607 948.071l-10.18 12.013 1.553 1.316 10.18-12.012-1.553-1.317zM895.008 853.035l.778.656.669-.793-.805-.653-.642.79zm-9.415-6.555a679.354 679.354 0 0 0 6.448 5.43 404.853 404.853 0 0 0 2.286 1.883l.029.024.007.006.002.001.643-.79.642-.79-.002-.001-.007-.006a39.526 39.526 0 0 1-.14-.114l-.442-.362c-.39-.32-.967-.796-1.717-1.418a677.708 677.708 0 0 1-6.429-5.413l-1.32 1.55zm8.637 5.899-69.022 81.848 1.557 1.313 69.021-81.849-1.556-1.312zM849.355 816.143c8.35 7.128 16.094 13.65 22.619 18.952l1.283-1.58c-6.505-5.287-14.235-11.796-22.58-18.92l-1.322 1.548zM807.411 780.717c9.777 8.351 19.355 16.3 28.307 23.827l1.31-1.558c-8.965-7.54-18.525-15.472-28.294-23.817l-1.323 1.548zM771.576 750.377c7.336 6.317 14.875 12.633 22.206 18.742l1.303-1.564c-7.329-6.107-14.857-12.415-22.18-18.721l-1.329 1.543zM732.282 717.398c8.148 6.926 16.704 14.055 25.456 21.383l1.307-1.561c-8.757-7.332-17.304-14.454-25.444-21.374l-1.319 1.552zM696.052 686.867c6.934 5.71 14.619 12.386 23.206 19.542l1.304-1.564c-8.515-7.096-16.304-13.858-23.215-19.55l-1.295 1.572zM668.603 662.259l.658-.777-.778-.659-.657.779.777.657zm-58.878 71.307 59.656-70.65-1.555-1.314-59.656 70.65 1.555 1.314zm58.878-71.307-.657.777.004.003.011.01.047.04.183.155a8283.342 8283.342 0 0 0 3.547 2.999c2.47 2.087 6.083 5.141 10.665 9.01l1.313-1.556a26833.719 26833.719 0 0 1-14.21-12.008l-.183-.155a207.37 207.37 0 0 1-.058-.05c-.002 0-.002-.001-.003-.002h-.001l-.658.777z"/><path d="m772.24 933.663-.778-.656-.656.778.778.656.656-.778zm108.77 90.436-108.113-91.214-1.313 1.556 108.114 91.214 1.313-1.556zM773.02 934.32l90.603-107.503-1.556-1.312-90.604 107.503 1.557 1.312zM872.493 718.643l18.732 15.474.648-.785-18.731-15.474-.649.785zM894.926 729.46l-18.935-15.473-.644.788 18.935 15.474.644-.788zM918.75 749.212l-20.36-16.899-.651.784 20.36 16.899.65-.784zM897.98 725.796l-19.343-15.88-.646.786 19.343 15.881.646-.787zM921.6 745.344l-20.158-16.695-.65.784 20.158 16.695.65-.784zM915.693 752.875l-20.564-16.696-.642.79 20.564 16.696.642-.79zM901.035 722.133l-19.139-15.678-.645.788 19.139 15.677.645-.787zM925.06 741.882l-20.564-16.899-.646.787 20.564 16.898.646-.786zM904.089 718.467l-19.343-15.88-.646.786 19.343 15.88.646-.786zM888.82 736.997l-18.528-15.27-.648.785 18.528 15.27.648-.785zM866.793 726.38l18.325 15.066.646-.786-18.324-15.067-.647.787zM882.71 744.326l-18.12-14.864-.646.788 18.12 14.863.646-.787zM927.91 738.013l-20.36-16.695-.646.787 20.36 16.695.646-.787zM907.142 714.598l-18.935-15.474-.644.788 18.935 15.474.644-.788zM930.963 734.35l-20.36-16.697-.646.788 20.36 16.695.646-.787zM910.194 710.932l-18.732-15.27-.643.79 18.731 15.27.644-.79zM934.425 730.888l-20.768-17.103-.647.786 20.768 17.103.647-.786zM913.25 707.269l-18.936-15.474-.644.788 18.935 15.474.644-.788zM937.075 727.021l-20.36-16.9-.65.784 20.36 16.9.65-.784zM916.303 703.605l-18.935-15.474-.644.788 18.935 15.474.644-.788zM940.33 723.355l-20.564-16.9-.646.787 20.564 16.9.646-.787zM919.356 699.734l-18.731-15.27-.643.789 18.731 15.27.643-.79zM943.384 719.688 922.82 702.79l-.647.787 20.564 16.899.647-.787zM922.412 696.07l-18.528-15.066-.642.79 18.528 15.066.642-.79zM946.845 716.229l-20.971-17.306-.648.785 20.971 17.306.648-.785zM949.493 712.156l-42.553-35.02-.647.786 42.553 35.02.647-.786z"/><path d="m924.75 692.476-45.81 55.583.785.648 45.811-55.584-.785-.647z"/><path d="m882.794 751.437-.325.392.399.33.324-.404-.398-.318zm46.015-55.991a29.087 29.087 0 0 0-.394-.323l-.001.002-.006.007a49.413 49.413 0 0 1-.117.142 22607.993 22607.993 0 0 0-6.722 8.168l-15.245 18.53c-11.195 13.614-22.703 27.616-23.927 29.147l.795.636c1.218-1.524 12.718-15.517 23.919-29.136a96545.796 96545.796 0 0 1 20.214-24.57l1.387-1.684.365-.444.093-.113.024-.03.006-.006.001-.002-.392-.324zm-45.69 55.599L861.74 733.33l-.65.784 21.38 17.714.649-.784zM898.27 711.327l.113-.496-.23-.053-.189.142.306.407zm-4.073 3.054-.494-.12-.337 1.38 1.137-.852-.306-.408zm2.037-8.347.494.12.348-1.426-1.156.905.314.4zm-4.683 3.664-.124.494.241.06.196-.153-.313-.4zm16.605 3.373-9.773-2.24-.227.993 9.773 2.24.227-.993zm-10.192-2.15-4.072 3.053.61.815 4.073-3.054-.61-.815zm-3.272 3.581 2.036-8.348-.989-.24-2.036 8.347.989.241zm1.228-8.87-4.683 3.666.627.801 4.683-3.664-.627-.802zm-4.246 3.573-8.958-2.24-.247.988 8.958 2.24.247-.988zM905.38 745.246l33.798-40.924-.785-.649-33.798 40.925.785.648z"/><path d="m904.986 744.922-.506.054.054.506.506-.054-.054-.506zm-1.117-5.647.611 5.701 1.012-.109-.61-5.7-1.013.108zm1.171 6.153 5.7-.611-.108-1.012-5.7.61.108 1.013zM870.767 741.378l45.81-55.584-.785-.647-45.81 55.584.785.647z"/><path d="m916.387 685.47.507-.036-.037-.524-.523.054.053.507zm.915 5.665-.408-5.7-1.015.072.407 5.7 1.016-.072zm-.968-6.17-5.904.61.105 1.013 5.904-.611-.105-1.013zM888.495 718.657l.506-.054-.054-.506-.506.054.054.506zm1.117 5.647-.61-5.7-1.013.108.611 5.7 1.012-.108zm-1.17-6.153-5.702.611.109 1.012 5.7-.61-.108-1.013zM782.621 932.676l-.39-.326-.326.39.39.327.326-.39zm21.528-25.79.326-.391-.39-.326-.327.39.39.327zm21.57 18.005.391.326.326-.391-.39-.326-.327.39zm-21.527 25.79-.326.39.39.327.327-.39-.391-.327zm-21.18-17.679 21.528-25.79-.782-.652-21.527 25.79.781.652zm20.81-25.726 21.571 18.005.652-.781-21.57-18.005-.652.781zm21.506 17.288-21.527 25.79.782.653 21.527-25.79-.782-.653zm-20.81 25.726-21.57-18.004-.653.781 21.57 18.005.653-.782z"/><path d="m782.71 932.943 42.96-7.737-.18-1.002-42.96 7.737.18 1.002z"/><path d="m803.49 906.586.203 43.775 1.018-.005-.204-43.775-1.018.005zM535.158 1159.27l-20.36-16.899-.65.784 20.36 16.899.65-.784zM559.996 1179.63l-21.379-17.51-.645.787 21.379 17.51.645-.788zM534.917 1166.57l20.972 17.306.648-.785-20.972-17.306-.648.785zM511.094 1146.82l20.36 16.898.65-.783-20.36-16.9-.65.784zM531.866 1170.441l21.174 17.306.644-.788-21.174-17.306-.644.788zM508.248 1150.893l20.157 16.492.644-.788-20.157-16.491-.644.787zM528.81 1174.105l21.175 17.307.644-.789-21.175-17.306-.644.788zM504.783 1154.15l20.564 17.103.65-.783-20.563-17.103-.651.783zM525.755 1177.768l20.971 17.306.648-.785-20.971-17.306-.648.785zM501.932 1158.017l20.36 16.9.65-.784-20.36-16.899-.65.783zM522.703 1181.435l20.972 17.103.643-.79-20.971-17.102-.644.789zM547.744 1152.115l20.971 17.307.648-.786-20.971-17.306-.648.785zM544.69 1155.78l20.971 17.306.648-.785-20.97-17.307-.649.786zM541.637 1159.444l20.971 17.306.648-.785-20.971-17.306-.648.785zM498.88 1161.889l20.36 16.695.646-.787-20.36-16.695-.645.787zM519.647 1185.097l21.175 17.51.649-.785-21.175-17.51-.649.785zM495.42 1165.145l20.767 17.102.647-.785-20.767-17.103-.647.786zM516.592 1188.967l20.971 17.306.648-.785-20.97-17.306-.649.785zM492.77 1169.216l20.36 16.9.65-.784-20.36-16.9-.65.784zM513.54 1192.633l21.175 17.306.644-.788-21.174-17.307-.645.789zM489.513 1172.677l20.564 17.102.651-.782-20.564-17.103-.651.783zM510.485 1196.296l20.768 17.103.647-.786-20.767-17.103-.648.786zM486.462 1176.548l20.564 16.9.646-.787-20.564-16.9-.646.787zM507.432 1199.962l20.97 17.306.649-.785-20.972-17.306-.647.785zM483 1179.805l20.97 17.306.648-.785-20.97-17.306-.649.785zM480.353 1183.877l44.792 36.852.647-.786L481 1183.091l-.646.786z"/><path d="m505.093 1203.762 46.014-55.787-.785-.648-46.015 55.787.786.648z"/><path d="m547.05 1144.8.322-.396-.393-.319-.321.391.393.323zm-45.62 56.313 46.014-55.99-.786-.647-46.015 55.991.786.646zm45.3-55.919 25.043 20.36.642-.79-25.043-20.36-.642.79zM533.205 1184.908l-.117.496.241.057.194-.155-.318-.398zm4.072-3.257.494.12.354-1.45-1.166.932.318.398zm-2.036 8.347-.495-.12-.344 1.412 1.15-.889-.311-.403zm4.48-3.46.114-.497-.235-.054-.191.147.311.403zm-17.831-3.781 11.198 2.647.234-.991-11.198-2.647-.234.99zm11.633 2.549 4.072-3.258-.636-.795-4.072 3.258.636.795zm3.26-3.776-2.037 8.348.99.241 2.035-8.348-.989-.24zm-1.23 8.871 4.478-3.461-.622-.806-4.48 3.462.623.805zm4.053-3.368 10.587 2.443.229-.992-10.587-2.443-.23.992zM524.67 1151.194l-33.595 40.72.785.648 33.595-40.72-.786-.648z"/><path d="m525.061 1151.518.508-.035-.036-.526-.524.054.052.507zm.915 5.87-.407-5.905-1.015.07.407 5.904 1.015-.07zm-.967-6.377-5.904.611.105 1.013 5.904-.611-.105-1.013zM560.909 1156.082l-45.811 55.787.787.646 45.81-55.787-.786-.646z"/><path d="m515.29 1212.191-.506.055.054.506.506-.055-.054-.506zm-1.117-5.646.61 5.7 1.013-.108-.611-5.7-1.012.108zm1.171 6.152 5.701-.61-.108-1.012-5.701.61.108 1.012zM542.978 1178.802l-.506.054.054.506.506-.054-.054-.506zm-1.117-5.647.61 5.701 1.013-.108-.61-5.701-1.013.108zm1.171 6.153 5.701-.61-.108-1.013-5.701.61.108 1.013zM409.01 815.982l-.779-.655-.655.778.778.656.656-.779zM532.8 668.981l.656-.779-.779-.656-.656.779.779.656zm255.16 465.066L409.667 815.204l-1.312 1.557 378.295 318.843 1.313-1.557zM409.79 816.638l123.79-147.002-1.557-1.311-123.79 147.002 1.557 1.311zM532.145 669.76 834.7 924.671l1.312-1.557-302.555-254.912-1.312 1.557z"/><path d="m626.863 399 2.624-3.114-3.113-2.624-2.625 3.114 3.114 2.624zM160 953.005l-3.114-2.624-2.624 3.114 3.114 2.624 2.624-3.114zm455.665 383.997-2.624 3.114 3.113 2.623 2.624-3.112-3.113-2.625zm173.47-205.843 3.114 2.623 2.625-3.115-3.116-2.623-2.623 3.115zm-38.684-32.577-3.116-2.622-2.622 3.114 3.115 2.623 2.623-3.115zm87.753-104.245 2.623-3.115-3.115-2.623-2.623 3.116 3.115 2.622zm38.685 32.577-2.623 3.114 3.113 2.622 2.623-3.112-3.113-2.624zm205.64-243.918 3.113 2.625 2.625-3.114-3.115-2.624-2.624 3.113zm-458.78-386.62L156.886 950.38l6.228 5.248 466.863-554.005-6.228-5.248zM157.376 956.119l455.665 383.997 5.248-6.228-455.665-383.996-5.248 6.227zm461.402 383.508c17.001-20.158 60.37-71.62 99.487-118.04a2216526.297 2216526.297 0 0 0 72.41-85.936c.515-.61.908-1.078 1.173-1.393l.3-.356.076-.09.019-.022.005-.006c0-.001.001-.002-3.113-2.625a589.483 589.483 0 0 0-3.115-2.622.174.174 0 0 0-.005.005l-.02.023-.075.09-.3.356-1.173 1.393a418876.573 418876.573 0 0 1-20.749 24.625l-51.661 61.31a501064.403 501064.403 0 0 1-99.485 118.037l6.226 5.251zm172.98-211.583-38.684-32.577-5.246 6.23 38.684 32.576 5.246-6.23zm-38.192-26.84 87.753-104.245-6.23-5.244-87.754 104.245 6.23 5.244zm82.015-103.752 38.685 32.576 5.246-6.23-38.685-32.576-5.246 6.23zm44.42 32.086 205.64-243.917-6.226-5.25-205.64 243.918 6.227 5.25zm205.151-249.655L629.487 395.886l-5.248 6.228 455.665 383.996 5.248-6.227zM826 886zm5.952-10.104c2.4 0 4.16.456 5.28 1.368 1.136.896 1.704 2.128 1.704 3.696 0 .992-.24 1.888-.72 2.688-.464.784-1.176 1.408-2.136 1.872-.944.448-2.112.672-3.504.672a11.23 11.23 0 0 1-3.432-.528c-1.104-.368-2.016-.872-2.736-1.512l1.104-1.896c.576.544 1.312.984 2.208 1.32.896.32 1.84.48 2.832.48 1.264 0 2.24-.264 2.928-.792.704-.544 1.056-1.28 1.056-2.208 0-1.008-.384-1.768-1.152-2.28-.768-.528-2.08-.792-3.936-.792h-3.816l.888-8.784H838v2.088h-7.464l-.456 4.608h1.872zm7.83 10.104zm8.015.192c-1.328 0-2.512-.336-3.552-1.008-1.024-.688-1.832-1.68-2.424-2.976-.592-1.296-.888-2.832-.888-4.608 0-1.776.296-3.312.888-4.608.592-1.296 1.4-2.28 2.424-2.952 1.04-.688 2.224-1.032 3.552-1.032 1.312 0 2.48.344 3.504 1.032 1.04.672 1.856 1.656 2.448 2.952.592 1.296.888 2.832.888 4.608 0 1.776-.296 3.312-.888 4.608-.592 1.296-1.408 2.288-2.448 2.976-1.024.672-2.192 1.008-3.504 1.008zm0-2.136c1.344 0 2.416-.552 3.216-1.656.816-1.104 1.224-2.704 1.224-4.8 0-2.096-.408-3.696-1.224-4.8-.8-1.104-1.872-1.656-3.216-1.656-1.36 0-2.448.552-3.264 1.656-.8 1.104-1.2 2.704-1.2 4.8 0 2.096.4 3.696 1.2 4.8.816 1.104 1.904 1.656 3.264 1.656zM855.79 886zm8.4-10.2c1.104 0 2.088.208 2.952.624.88.416 1.568 1.016 2.064 1.8.496.768.744 1.656.744 2.664 0 1.056-.264 1.984-.792 2.784-.512.8-1.224 1.424-2.136 1.872-.896.432-1.904.648-3.024.648-2.256 0-4-.728-5.232-2.184-1.216-1.456-1.824-3.52-1.824-6.192 0-1.872.328-3.464.984-4.776.672-1.328 1.6-2.328 2.784-3 1.2-.688 2.592-1.032 4.176-1.032.816 0 1.584.088 2.304.264.72.16 1.344.4 1.872.72l-.912 1.872c-.8-.528-1.872-.792-3.216-.792-1.744 0-3.112.544-4.104 1.632-.992 1.072-1.488 2.64-1.488 4.704 0 .256.008.456.024.6.48-.72 1.136-1.264 1.968-1.632.848-.384 1.8-.576 2.856-.576zm-.288 8.448c1.104 0 2-.296 2.688-.888.688-.592 1.032-1.384 1.032-2.376s-.352-1.776-1.056-2.352c-.688-.592-1.616-.888-2.784-.888-.752 0-1.424.144-2.016.432a3.51 3.51 0 0 0-1.368 1.176 2.99 2.99 0 0 0-.48 1.656c0 .592.152 1.136.456 1.632.32.48.776.872 1.368 1.176.608.288 1.328.432 2.16.432z"/><use xlink:href="#g" transform="matrix(24 0 0 -24 826 886)"/><use xlink:href="#h" transform="matrix(24 0 0 -24 839.776 886)"/><use xlink:href="#i" transform="matrix(24 0 0 -24 855.784 886)"/><path d="M961.645 798.872zm5.952-10.104c2.4 0 4.16.456 5.28 1.368 1.136.896 1.704 2.128 1.704 3.696 0 .992-.24 1.888-.72 2.688-.464.784-1.176 1.408-2.136 1.872-.944.448-2.112.672-3.504.672a11.23 11.23 0 0 1-3.432-.528c-1.104-.368-2.016-.872-2.736-1.512l1.104-1.896c.576.544 1.312.984 2.208 1.32.896.32 1.84.48 2.832.48 1.264 0 2.24-.264 2.928-.792.704-.544 1.056-1.28 1.056-2.208 0-1.008-.384-1.768-1.152-2.28-.768-.528-2.08-.792-3.936-.792h-3.816l.888-8.784h9.48v2.088h-7.464l-.456 4.608h1.872zm7.829 10.104zm8.016.192c-1.328 0-2.512-.336-3.552-1.008-1.024-.688-1.832-1.68-2.424-2.976-.592-1.296-.888-2.832-.888-4.608 0-1.776.296-3.312.888-4.608.592-1.296 1.4-2.28 2.424-2.952 1.04-.688 2.224-1.032 3.552-1.032 1.312 0 2.48.344 3.504 1.032 1.04.672 1.856 1.656 2.448 2.952.592 1.296.888 2.832.888 4.608 0 1.776-.296 3.312-.888 4.608-.592 1.296-1.408 2.288-2.448 2.976-1.024.672-2.192 1.008-3.504 1.008zm0-2.136c1.344 0 2.416-.552 3.216-1.656.816-1.104 1.224-2.704 1.224-4.8 0-2.096-.408-3.696-1.224-4.8-.8-1.104-1.872-1.656-3.216-1.656-1.36 0-2.448.552-3.264 1.656-.8 1.104-1.2 2.704-1.2 4.8 0 2.096.4 3.696 1.2 4.8.816 1.104 1.904 1.656 3.264 1.656zm7.921 1.944zm6.36-16.8v16.8h-2.376V784.16h-3.792v-2.088h6.168z"/><use xlink:href="#g" transform="matrix(24 0 0 -24 961.645 798.872)"/><use xlink:href="#h" transform="matrix(24 0 0 -24 975.42 798.872)"/><use xlink:href="#j" transform="matrix(24 0 0 -24 991.358 798.872)"/><path d="M821.632 682.518zm5.952-10.104c2.4 0 4.16.456 5.28 1.368 1.136.896 1.704 2.128 1.704 3.696 0 .992-.24 1.888-.72 2.688-.464.784-1.176 1.408-2.136 1.872-.944.448-2.112.672-3.504.672a11.23 11.23 0 0 1-3.432-.528c-1.104-.368-2.016-.872-2.736-1.512l1.104-1.896c.576.544 1.312.984 2.208 1.32.896.32 1.84.48 2.832.48 1.264 0 2.24-.264 2.928-.792.704-.544 1.056-1.28 1.056-2.208 0-1.008-.384-1.768-1.152-2.28-.768-.528-2.08-.792-3.936-.792h-3.816l.888-8.784h9.48v2.088h-7.464l-.456 4.608h1.872zm7.83 10.104zm8.016.192c-1.328 0-2.512-.336-3.552-1.008-1.024-.688-1.832-1.68-2.424-2.976-.592-1.296-.888-2.832-.888-4.608 0-1.776.296-3.312.888-4.608.592-1.296 1.4-2.28 2.424-2.952 1.04-.688 2.224-1.032 3.552-1.032 1.312 0 2.48.344 3.504 1.032 1.04.672 1.856 1.656 2.448 2.952.592 1.296.888 2.832.888 4.608 0 1.776-.296 3.312-.888 4.608-.592 1.296-1.408 2.288-2.448 2.976-1.024.672-2.192 1.008-3.504 1.008zm0-2.136c1.344 0 2.416-.552 3.216-1.656.816-1.104 1.224-2.704 1.224-4.8 0-2.096-.408-3.696-1.224-4.8-.8-1.104-1.872-1.656-3.216-1.656-1.36 0-2.448.552-3.264 1.656-.8 1.104-1.2 2.704-1.2 4.8 0 2.096.4 3.696 1.2 4.8.816 1.104 1.904 1.656 3.264 1.656zm7.921 1.944zm12.96-2.088v2.088H852.24v-1.632l6.84-6.6c.832-.8 1.392-1.488 1.68-2.064a4.029 4.029 0 0 0 .432-1.776c0-.88-.312-1.56-.936-2.04-.608-.496-1.488-.744-2.64-.744-1.856 0-3.288.608-4.296 1.824l-1.632-1.416c.656-.8 1.512-1.424 2.568-1.872 1.072-.448 2.264-.672 3.576-.672 1.76 0 3.16.424 4.2 1.272 1.04.832 1.56 1.968 1.56 3.408 0 .896-.192 1.744-.576 2.544-.384.8-1.112 1.712-2.184 2.736l-5.136 4.944h8.616zm.821 2.088zm2.616-16.8h12.672v2.04h-10.296v4.8h5.232c2 0 3.52.416 4.56 1.248 1.04.832 1.56 2.032 1.56 3.6 0 1.648-.568 2.912-1.704 3.792-1.12.88-2.728 1.32-4.824 1.32h-7.2v-16.8zm7.104 14.904c1.376 0 2.424-.264 3.144-.792.72-.528 1.08-1.304 1.08-2.328 0-2.032-1.408-3.048-4.224-3.048h-4.728v6.168h4.728z"/><use xlink:href="#g" transform="matrix(24 0 0 -24 821.632 682.518)"/><use xlink:href="#h" transform="matrix(24 0 0 -24 835.408 682.518)"/><use xlink:href="#k" transform="matrix(24 0 0 -24 851.346 682.518)"/><use xlink:href="#l" transform="matrix(24 0 0 -24 865.122 682.518)"/><path d="M746.633 617.518zm5.952-10.104c2.4 0 4.16.456 5.28 1.368 1.136.896 1.704 2.128 1.704 3.696 0 .992-.24 1.888-.72 2.688-.464.784-1.176 1.408-2.136 1.872-.944.448-2.112.672-3.504.672a11.23 11.23 0 0 1-3.432-.528c-1.104-.368-2.016-.872-2.736-1.512l1.104-1.896c.576.544 1.312.984 2.208 1.32.896.32 1.84.48 2.832.48 1.264 0 2.24-.264 2.928-.792.704-.544 1.056-1.28 1.056-2.208 0-1.008-.384-1.768-1.152-2.28-.768-.528-2.08-.792-3.936-.792h-3.816l.888-8.784h9.48v2.088h-7.464l-.456 4.608h1.872zm7.83 10.104zm8.015.192c-1.328 0-2.512-.336-3.552-1.008-1.024-.688-1.832-1.68-2.424-2.976-.592-1.296-.888-2.832-.888-4.608 0-1.776.296-3.312.888-4.608.592-1.296 1.4-2.28 2.424-2.952 1.04-.688 2.224-1.032 3.552-1.032 1.312 0 2.48.344 3.504 1.032 1.04.672 1.856 1.656 2.448 2.952.592 1.296.888 2.832.888 4.608 0 1.776-.296 3.312-.888 4.608-.592 1.296-1.408 2.288-2.448 2.976-1.024.672-2.192 1.008-3.504 1.008zm0-2.136c1.344 0 2.416-.552 3.216-1.656.816-1.104 1.224-2.704 1.224-4.8 0-2.096-.408-3.696-1.224-4.8-.8-1.104-1.872-1.656-3.216-1.656-1.36 0-2.448.552-3.264 1.656-.8 1.104-1.2 2.704-1.2 4.8 0 2.096.4 3.696 1.2 4.8.816 1.104 1.904 1.656 3.264 1.656zm7.922 1.944zm12.96-2.088v2.088H777.24v-1.632l6.84-6.6c.832-.8 1.392-1.488 1.68-2.064a4.029 4.029 0 0 0 .432-1.776c0-.88-.312-1.56-.936-2.04-.608-.496-1.488-.744-2.64-.744-1.856 0-3.288.608-4.296 1.824l-1.632-1.416c.656-.8 1.512-1.424 2.568-1.872 1.072-.448 2.264-.672 3.576-.672 1.76 0 3.16.424 4.2 1.272 1.04.832 1.56 1.968 1.56 3.408 0 .896-.192 1.744-.576 2.544-.384.8-1.112 1.712-2.184 2.736l-5.136 4.944h8.616zm.891 2.088zm13.536-4.2h-8.928l-1.848 4.2h-2.472l7.608-16.8h2.376l7.632 16.8h-2.52l-1.848-4.2zm-.84-1.92-3.624-8.232-3.624 8.232h7.248z"/><use xlink:href="#g" transform="matrix(24 0 0 -24 746.633 617.518)"/><use xlink:href="#h" transform="matrix(24 0 0 -24 760.409 617.518)"/><use xlink:href="#k" transform="matrix(24 0 0 -24 776.346 617.518)"/><use xlink:href="#m" transform="matrix(24 0 0 -24 790.198 617.518)"/><path d="M590 500.91zm6.576.192c-1.184 0-2.336-.184-3.456-.552-1.104-.368-2.008-.864-2.712-1.488l1.104-1.896c.56.528 1.288.96 2.184 1.296a8.066 8.066 0 0 0 2.856.504c1.28 0 2.264-.272 2.952-.816.688-.544 1.032-1.272 1.032-2.184 0-.624-.152-1.168-.456-1.632-.304-.464-.832-.816-1.584-1.056-.736-.256-1.752-.384-3.048-.384h-3.816l.888-8.784H602v2.088h-8.592l1.248-1.176-.696 6.936-1.248-1.152h3.24c1.68 0 3.032.216 4.056.648 1.024.432 1.768 1.032 2.232 1.8.464.752.696 1.624.696 2.616 0 .96-.232 1.84-.696 2.64-.464.784-1.168 1.416-2.112 1.896-.928.464-2.112.696-3.552.696zm7.205-.192zm8.016.192c-1.312 0-2.488-.336-3.528-1.008-1.024-.672-1.84-1.648-2.448-2.928-.592-1.28-.888-2.832-.888-4.656 0-1.824.296-3.376.888-4.656.608-1.28 1.424-2.256 2.448-2.928 1.04-.672 2.216-1.008 3.528-1.008 1.296 0 2.464.336 3.504 1.008 1.04.672 1.856 1.648 2.448 2.928.592 1.28.888 2.832.888 4.656 0 1.824-.296 3.376-.888 4.656-.592 1.28-1.408 2.256-2.448 2.928-1.04.672-2.208 1.008-3.504 1.008zm0-2.136c.88 0 1.648-.24 2.304-.72.672-.48 1.192-1.2 1.56-2.16.384-.96.576-2.152.576-3.576s-.192-2.616-.576-3.576c-.368-.96-.888-1.68-1.56-2.16-.656-.48-1.424-.72-2.304-.72-.88 0-1.656.24-2.328.72-.672.48-1.2 1.2-1.584 2.16-.368.96-.552 2.152-.552 3.576s.184 2.616.552 3.576c.384.96.912 1.68 1.584 2.16.672.48 1.448.72 2.328.72zm7.758 1.944zm6.288.192c-1.184 0-2.336-.184-3.456-.552-1.104-.368-2.008-.864-2.712-1.488l1.104-1.896c.56.528 1.288.96 2.184 1.296a8.135 8.135 0 0 0 2.88.504c1.248 0 2.216-.264 2.904-.792.704-.544 1.056-1.272 1.056-2.184 0-.88-.336-1.584-1.008-2.112-.656-.544-1.704-.816-3.144-.816h-1.344v-1.68l4.992-6.144.336.96h-9.192v-2.088h11.088v1.632l-4.968 6.12-1.248-.744h.792c2.032 0 3.552.456 4.56 1.368 1.024.912 1.536 2.072 1.536 3.48 0 .944-.232 1.808-.696 2.592-.464.784-1.168 1.408-2.112 1.872-.928.448-2.112.672-3.552.672zm7.47-.192zm-.024 0 7.608-16.8h2.376l7.632 16.8h-2.52l-6.792-15.456h.96l-6.792 15.456h-2.472zm3.24-4.2.648-1.92h9.456l.696 1.92h-10.8z"/><use xlink:href="#n" transform="matrix(24 0 0 -24 590 500.91)"/><use xlink:href="#o" transform="matrix(24 0 0 -24 603.776 500.91)"/><use xlink:href="#p" transform="matrix(24 0 0 -24 619.55 500.91)"/><use xlink:href="#q" transform="matrix(24 0 0 -24 633.307 500.91)"/><path d="M667 560zm6.576.192c-1.184 0-2.336-.184-3.456-.552-1.104-.368-2.008-.864-2.712-1.488l1.104-1.896c.56.528 1.288.96 2.184 1.296a8.066 8.066 0 0 0 2.856.504c1.28 0 2.264-.272 2.952-.816.688-.544 1.032-1.272 1.032-2.184 0-.624-.152-1.168-.456-1.632-.304-.464-.832-.816-1.584-1.056-.736-.256-1.752-.384-3.048-.384h-3.816l.888-8.784H679v2.088h-8.592l1.248-1.176-.696 6.936-1.248-1.152h3.24c1.68 0 3.032.216 4.056.648 1.024.432 1.768 1.032 2.232 1.8.464.752.696 1.624.696 2.616 0 .96-.232 1.84-.696 2.64-.464.784-1.168 1.416-2.112 1.896-.928.464-2.112.696-3.552.696zm7.205-.192zm8.016.192c-1.312 0-2.488-.336-3.528-1.008-1.024-.672-1.84-1.648-2.448-2.928-.592-1.28-.888-2.832-.888-4.656 0-1.824.296-3.376.888-4.656.608-1.28 1.424-2.256 2.448-2.928 1.04-.672 2.216-1.008 3.528-1.008 1.296 0 2.464.336 3.504 1.008 1.04.672 1.856 1.648 2.448 2.928.592 1.28.888 2.832.888 4.656 0 1.824-.296 3.376-.888 4.656-.592 1.28-1.408 2.256-2.448 2.928-1.04.672-2.208 1.008-3.504 1.008zm0-2.136c.88 0 1.648-.24 2.304-.72.672-.48 1.192-1.2 1.56-2.16.384-.96.576-2.152.576-3.576s-.192-2.616-.576-3.576c-.368-.96-.888-1.68-1.56-2.16-.656-.48-1.424-.72-2.304-.72-.88 0-1.656.24-2.328.72-.672.48-1.2 1.2-1.584 2.16-.368.96-.552 2.152-.552 3.576s.184 2.616.552 3.576c.384.96.912 1.68 1.584 2.16.672.48 1.448.72 2.328.72zm7.758 1.944zm6.288.192c-1.184 0-2.336-.184-3.456-.552-1.104-.368-2.008-.864-2.712-1.488l1.104-1.896c.56.528 1.288.96 2.184 1.296a8.135 8.135 0 0 0 2.88.504c1.248 0 2.216-.264 2.904-.792.704-.544 1.056-1.272 1.056-2.184 0-.88-.336-1.584-1.008-2.112-.656-.544-1.704-.816-3.144-.816h-1.344v-1.68l4.992-6.144.336.96h-9.192V543.2h11.088v1.632l-4.968 6.12-1.248-.744h.792c2.032 0 3.552.456 4.56 1.368 1.024.912 1.536 2.072 1.536 3.48 0 .944-.232 1.808-.696 2.592-.464.784-1.168 1.408-2.112 1.872-.928.448-2.112.672-3.552.672zm7.446-.192zm2.616 0v-16.8h12.672v2.04h-10.296v4.8h5.232c2 0 3.52.416 4.56 1.248 1.04.832 1.56 2.04 1.56 3.624 0 1.632-.568 2.888-1.704 3.768-1.12.88-2.728 1.32-4.824 1.32h-7.2zm2.376-1.896h4.728c1.392 0 2.44-.264 3.144-.792.72-.528 1.08-1.312 1.08-2.352 0-2.016-1.408-3.024-4.224-3.024h-4.728v6.168z"/><use xlink:href="#n" transform="matrix(24 0 0 -24 667 560)"/><use xlink:href="#o" transform="matrix(24 0 0 -24 680.776 560)"/><use xlink:href="#p" transform="matrix(24 0 0 -24 696.55 560)"/><use xlink:href="#r" transform="matrix(24 0 0 -24 710.278 560)"/><path d="M237 979zm5.952-10.104c2.4 0 4.16.456 5.28 1.368 1.136.896 1.704 2.128 1.704 3.696 0 .992-.24 1.888-.72 2.688-.464.784-1.176 1.408-2.136 1.872-.944.448-2.112.672-3.504.672a11.23 11.23 0 0 1-3.432-.528c-1.104-.368-2.016-.872-2.736-1.512l1.104-1.896c.576.544 1.312.984 2.208 1.32.896.32 1.84.48 2.832.48 1.264 0 2.24-.264 2.928-.792.704-.544 1.056-1.28 1.056-2.208 0-1.008-.384-1.768-1.152-2.28-.768-.528-2.08-.792-3.936-.792h-3.816l.888-8.784H249v2.088h-7.464l-.456 4.608h1.872zm7.83 10.104zm8.015.192c-1.328 0-2.512-.336-3.552-1.008-1.024-.688-1.832-1.68-2.424-2.976-.592-1.296-.888-2.832-.888-4.608 0-1.776.296-3.312.888-4.608.592-1.296 1.4-2.28 2.424-2.952 1.04-.688 2.224-1.032 3.552-1.032 1.312 0 2.48.344 3.504 1.032 1.04.672 1.856 1.656 2.448 2.952.592 1.296.888 2.832.888 4.608 0 1.776-.296 3.312-.888 4.608-.592 1.296-1.408 2.288-2.448 2.976-1.024.672-2.192 1.008-3.504 1.008zm0-2.136c1.344 0 2.416-.552 3.216-1.656.816-1.104 1.224-2.704 1.224-4.8 0-2.096-.408-3.696-1.224-4.8-.8-1.104-1.872-1.656-3.216-1.656-1.36 0-2.448.552-3.264 1.656-.8 1.104-1.2 2.704-1.2 4.8 0 2.096.4 3.696 1.2 4.8.816 1.104 1.904 1.656 3.264 1.656zM266.79 979zm15.768-4.128h-3.192V979h-2.328v-4.128h-9.336v-1.68l8.592-10.992h2.592l-8.232 10.608h6.456v-3.648h2.256v3.648h3.192v2.064zm.521 4.128zm10.128.192c-1.68 0-3.2-.368-4.56-1.104a8.349 8.349 0 0 1-3.168-3.072c-.768-1.312-1.152-2.784-1.152-4.416 0-1.632.384-3.096 1.152-4.392a8.08 8.08 0 0 1 3.192-3.072c1.36-.752 2.88-1.128 4.56-1.128 1.312 0 2.512.224 3.6.672a7.252 7.252 0 0 1 2.784 1.944l-1.56 1.512c-1.264-1.328-2.84-1.992-4.728-1.992-1.248 0-2.376.28-3.384.84a6.152 6.152 0 0 0-2.376 2.328c-.56.976-.84 2.072-.84 3.288 0 1.216.28 2.32.84 3.312a6.204 6.204 0 0 0 2.376 2.304c1.008.56 2.136.84 3.384.84 1.872 0 3.448-.672 4.728-2.016l1.56 1.512a7.446 7.446 0 0 1-2.808 1.968c-1.088.448-2.288.672-3.6.672z"/><use xlink:href="#g" transform="matrix(24 0 0 -24 237 979)"/><use xlink:href="#h" transform="matrix(24 0 0 -24 250.776 979)"/><use xlink:href="#s" transform="matrix(24 0 0 -24 266.784 979)"/><use xlink:href="#t" transform="matrix(24 0 0 -24 283.073 979)"/><path d="M355 1074zm6.576.192c-1.184 0-2.336-.184-3.456-.552-1.104-.368-2.008-.864-2.712-1.488l1.104-1.896c.56.528 1.288.96 2.184 1.296a8.066 8.066 0 0 0 2.856.504c1.28 0 2.264-.272 2.952-.816.688-.544 1.032-1.272 1.032-2.184 0-.624-.152-1.168-.456-1.632-.304-.464-.832-.816-1.584-1.056-.736-.256-1.752-.384-3.048-.384h-3.816l.888-8.784H367v2.088h-8.592l1.248-1.176-.696 6.936-1.248-1.152h3.24c1.68 0 3.032.216 4.056.648 1.024.432 1.768 1.032 2.232 1.8.464.752.696 1.624.696 2.616 0 .96-.232 1.84-.696 2.64-.464.784-1.168 1.416-2.112 1.896-.928.464-2.112.696-3.552.696zm7.205-.192zm8.016.192c-1.312 0-2.488-.336-3.528-1.008-1.024-.672-1.84-1.648-2.448-2.928-.592-1.28-.888-2.832-.888-4.656 0-1.824.296-3.376.888-4.656.608-1.28 1.424-2.256 2.448-2.928 1.04-.672 2.216-1.008 3.528-1.008 1.296 0 2.464.336 3.504 1.008 1.04.672 1.856 1.648 2.448 2.928.592 1.28.888 2.832.888 4.656 0 1.824-.296 3.376-.888 4.656-.592 1.28-1.408 2.256-2.448 2.928-1.04.672-2.208 1.008-3.504 1.008zm0-2.136c.88 0 1.648-.24 2.304-.72.672-.48 1.192-1.2 1.56-2.16.384-.96.576-2.152.576-3.576s-.192-2.616-.576-3.576c-.368-.96-.888-1.68-1.56-2.16-.656-.48-1.424-.72-2.304-.72-.88 0-1.656.24-2.328.72-.672.48-1.2 1.2-1.584 2.16-.368.96-.552 2.152-.552 3.576s.184 2.616.552 3.576c.384.96.912 1.68 1.584 2.16.672.48 1.448.72 2.328.72zm7.992 1.944zm.912-4.128v-1.68l8.592-10.992h2.592l-8.52 10.992-1.224-.384h13.416v2.064h-14.856zm9.336 4.128v-4.128l.072-2.064v-3.648h2.256v9.84h-2.328zm5.807 0zm2.616 0v-16.8h7.224c1.824 0 3.256.368 4.296 1.104 1.04.736 1.56 1.808 1.56 3.216 0 1.376-.496 2.432-1.488 3.168-.992.72-2.296 1.08-3.912 1.08l.432-.72c1.872 0 3.304.376 4.296 1.128 1.008.736 1.512 1.816 1.512 3.24 0 1.44-.528 2.568-1.584 3.384-1.04.8-2.592 1.2-4.656 1.2h-7.68zm2.376-1.896h5.256c1.28 0 2.24-.232 2.88-.696.656-.48.984-1.208.984-2.184 0-.976-.328-1.688-.984-2.136-.64-.448-1.6-.672-2.88-.672h-5.256v5.688zm0-7.512h4.68c1.168 0 2.056-.232 2.664-.696.624-.464.936-1.144.936-2.04 0-.912-.312-1.6-.936-2.064-.608-.464-1.496-.696-2.664-.696h-4.68v5.496z" fill="#0f316c"/><use xlink:href="#n" transform="matrix(24 0 0 -24 355 1074)"/><use xlink:href="#o" transform="matrix(24 0 0 -24 368.776 1074)"/><use xlink:href="#u" transform="matrix(24 0 0 -24 384.784 1074)"/><use xlink:href="#v" transform="matrix(24 0 0 -24 400.84 1074)"/><path d="M590.285 1251.468zm5.952-10.104c2.4 0 4.16.456 5.28 1.368 1.136.896 1.704 2.128 1.704 3.696 0 .992-.24 1.888-.72 2.688-.464.784-1.176 1.408-2.136 1.872-.944.448-2.112.672-3.504.672a11.23 11.23 0 0 1-3.432-.528c-1.104-.368-2.016-.872-2.736-1.512l1.104-1.896c.576.544 1.312.984 2.208 1.32.896.32 1.84.48 2.832.48 1.264 0 2.24-.264 2.928-.792.704-.544 1.056-1.28 1.056-2.208 0-1.008-.384-1.768-1.152-2.28-.768-.528-2.08-.792-3.936-.792h-3.816l.888-8.784h9.48v2.088h-7.464l-.456 4.608h1.872zm7.83 10.104zm8.016.192c-1.328 0-2.512-.336-3.552-1.008-1.024-.688-1.832-1.68-2.424-2.976-.592-1.296-.888-2.832-.888-4.608 0-1.776.296-3.312.888-4.608.592-1.296 1.4-2.28 2.424-2.952 1.04-.688 2.224-1.032 3.552-1.032 1.312 0 2.48.344 3.504 1.032 1.04.672 1.856 1.656 2.448 2.952.592 1.296.888 2.832.888 4.608 0 1.776-.296 3.312-.888 4.608-.592 1.296-1.408 2.288-2.448 2.976-1.024.672-2.192 1.008-3.504 1.008zm0-2.136c1.344 0 2.416-.552 3.216-1.656.816-1.104 1.224-2.704 1.224-4.8 0-2.096-.408-3.696-1.224-4.8-.8-1.104-1.872-1.656-3.216-1.656-1.36 0-2.448.552-3.264 1.656-.8 1.104-1.2 2.704-1.2 4.8 0 2.096.4 3.696 1.2 4.8.816 1.104 1.904 1.656 3.264 1.656zm7.991 1.944zm5.952-10.104c2.4 0 4.16.456 5.28 1.368 1.136.896 1.704 2.128 1.704 3.696 0 .992-.24 1.888-.72 2.688-.464.784-1.176 1.408-2.136 1.872-.944.448-2.112.672-3.504.672a11.23 11.23 0 0 1-3.432-.528c-1.104-.368-2.016-.872-2.736-1.512l1.104-1.896c.576.544 1.312.984 2.208 1.32.896.32 1.84.48 2.832.48 1.264 0 2.24-.264 2.928-.792.704-.544 1.056-1.28 1.056-2.208 0-1.008-.384-1.768-1.152-2.28-.768-.528-2.08-.792-3.936-.792h-3.816l.888-8.784h9.48v2.088h-7.464l-.456 4.608h1.872z"/><use xlink:href="#g" transform="matrix(24 0 0 -24 590.285 1251.468)"/><use xlink:href="#h" transform="matrix(24 0 0 -24 604.061 1251.468)"/><use xlink:href="#g" transform="matrix(24 0 0 -24 620.07 1251.468)"/><path d="M702 1138zm5.952-10.104c2.4 0 4.16.456 5.28 1.368 1.136.896 1.704 2.128 1.704 3.696 0 .992-.24 1.888-.72 2.688-.464.784-1.176 1.408-2.136 1.872-.944.448-2.112.672-3.504.672a11.23 11.23 0 0 1-3.432-.528c-1.104-.368-2.016-.872-2.736-1.512l1.104-1.896c.576.544 1.312.984 2.208 1.32.896.32 1.84.48 2.832.48 1.264 0 2.24-.264 2.928-.792.704-.544 1.056-1.28 1.056-2.208 0-1.008-.384-1.768-1.152-2.28-.768-.528-2.08-.792-3.936-.792h-3.816l.888-8.784H714v2.088h-7.464l-.456 4.608h1.872zm7.83 10.104zm6.36-16.8v16.8h-2.377v-14.712h-3.792v-2.088h6.168zm2.522 16.8zm8.4-10.2c1.104 0 2.088.208 2.952.624.88.416 1.568 1.016 2.064 1.8.496.768.744 1.656.744 2.664 0 1.056-.264 1.984-.792 2.784-.512.8-1.224 1.424-2.136 1.872-.896.432-1.904.648-3.024.648-2.256 0-4-.728-5.232-2.184-1.216-1.456-1.824-3.52-1.824-6.192 0-1.872.328-3.464.984-4.776.672-1.328 1.6-2.328 2.784-3 1.2-.688 2.592-1.032 4.176-1.032.816 0 1.584.088 2.304.264.72.16 1.344.4 1.872.72l-.912 1.872c-.8-.528-1.872-.792-3.216-.792-1.744 0-3.112.544-4.104 1.632-.992 1.072-1.488 2.64-1.488 4.704 0 .256.008.456.024.6.48-.72 1.136-1.264 1.968-1.632.848-.384 1.8-.576 2.856-.576zm-.288 8.448c1.104 0 2-.296 2.688-.888.688-.592 1.032-1.384 1.032-2.376s-.352-1.776-1.056-2.352c-.688-.592-1.616-.888-2.784-.888-.752 0-1.424.144-2.016.432a3.51 3.51 0 0 0-1.368 1.176 2.99 2.99 0 0 0-.48 1.656c0 .592.152 1.136.456 1.632.32.48.776.872 1.368 1.176.608.288 1.328.432 2.16.432z"/><use xlink:href="#g" transform="matrix(24 0 0 -24 702 1138)"/><use xlink:href="#j" transform="matrix(24 0 0 -24 715.776 1138)"/><use xlink:href="#i" transform="matrix(24 0 0 -24 724.656 1138)"/><path d="M645 1099zm5.952-10.104c2.4 0 4.16.456 5.28 1.368 1.136.896 1.704 2.128 1.704 3.696 0 .992-.24 1.888-.72 2.688-.464.784-1.176 1.408-2.136 1.872-.944.448-2.112.672-3.504.672a11.23 11.23 0 0 1-3.432-.528c-1.104-.368-2.016-.872-2.736-1.512l1.104-1.896c.576.544 1.312.984 2.208 1.32.896.32 1.84.48 2.832.48 1.264 0 2.24-.264 2.928-.792.704-.544 1.056-1.28 1.056-2.208 0-1.008-.384-1.768-1.152-2.28-.768-.528-2.08-.792-3.936-.792h-3.816l.888-8.784H657v2.088h-7.464l-.456 4.608h1.872zm7.83 10.104zm6.36-16.8v16.8h-2.377v-14.712h-3.792v-2.088h6.168zm2.522 16.8zm5.952-10.104c2.4 0 4.16.456 5.28 1.368 1.136.896 1.704 2.128 1.704 3.696 0 .992-.24 1.888-.72 2.688-.464.784-1.176 1.408-2.136 1.872-.944.448-2.112.672-3.504.672a11.23 11.23 0 0 1-3.432-.528c-1.104-.368-2.016-.872-2.736-1.512l1.104-1.896c.576.544 1.312.984 2.208 1.32.896.32 1.84.48 2.832.48 1.264 0 2.24-.264 2.928-.792.704-.544 1.056-1.28 1.056-2.208 0-1.008-.384-1.768-1.152-2.28-.768-.528-2.08-.792-3.936-.792h-3.816l.888-8.784h9.48v2.088H672.2l-.456 4.608h1.872z"/><use xlink:href="#g" transform="matrix(24 0 0 -24 645 1099)"/><use xlink:href="#j" transform="matrix(24 0 0 -24 658.776 1099)"/><use xlink:href="#g" transform="matrix(24 0 0 -24 667.656 1099)"/><path d="M606 1064zm5.952-10.104c2.4 0 4.16.456 5.28 1.368 1.136.896 1.704 2.128 1.704 3.696 0 .992-.24 1.888-.72 2.688-.464.784-1.176 1.408-2.136 1.872-.944.448-2.112.672-3.504.672a11.23 11.23 0 0 1-3.432-.528c-1.104-.368-2.016-.872-2.736-1.512l1.104-1.896c.576.544 1.312.984 2.208 1.32.896.32 1.84.48 2.832.48 1.264 0 2.24-.264 2.928-.792.704-.544 1.056-1.28 1.056-2.208 0-1.008-.384-1.768-1.152-2.28-.768-.528-2.08-.792-3.936-.792h-3.816l.888-8.784H618v2.088h-7.464l-.456 4.608h1.872zm7.83 10.104zm6.36-16.8v16.8h-2.377v-14.712h-3.792v-2.088h6.168zm2.522 16.8zm15.768-4.128h-3.192V1064h-2.328v-4.128h-9.336v-1.68l8.592-10.992h2.592l-8.232 10.608h6.456v-3.648h2.256v3.648h3.192v2.064z"/><use xlink:href="#g" transform="matrix(24 0 0 -24 606 1064)"/><use xlink:href="#j" transform="matrix(24 0 0 -24 619.776 1064)"/><use xlink:href="#s" transform="matrix(24 0 0 -24 628.656 1064)"/><path d="M571 1036zm5.952-10.104c2.4 0 4.16.456 5.28 1.368 1.136.896 1.704 2.128 1.704 3.696 0 .992-.24 1.888-.72 2.688-.464.784-1.176 1.408-2.136 1.872-.944.448-2.112.672-3.504.672a11.23 11.23 0 0 1-3.432-.528c-1.104-.368-2.016-.872-2.736-1.512l1.104-1.896c.576.544 1.312.984 2.208 1.32.896.32 1.84.48 2.832.48 1.264 0 2.24-.264 2.928-.792.704-.544 1.056-1.28 1.056-2.208 0-1.008-.384-1.768-1.152-2.28-.768-.528-2.08-.792-3.936-.792h-3.816l.888-8.784H583v2.088h-7.464l-.456 4.608h1.872zm7.83 10.104zm6.36-16.8v16.8h-2.377v-14.712h-3.792v-2.088h6.168zm2.522 16.8zm7.584-9.744c1.648.16 2.904.672 3.768 1.536.864.848 1.296 1.936 1.296 3.264 0 .96-.24 1.832-.72 2.616-.48.768-1.2 1.384-2.16 1.848-.944.448-2.104.672-3.48.672-1.2 0-2.352-.176-3.456-.528-1.104-.368-2.008-.872-2.712-1.512l1.104-1.896c.576.544 1.312.984 2.208 1.32.896.32 1.848.48 2.856.48 1.248 0 2.216-.264 2.904-.792.704-.528 1.056-1.256 1.056-2.184 0-.928-.344-1.648-1.032-2.16-.688-.512-1.728-.768-3.12-.768h-1.344v-1.68l4.224-5.184h-8.088v-2.088h11.088v1.632l-4.392 5.424z"/><use xlink:href="#g" transform="matrix(24 0 0 -24 571 1036)"/><use xlink:href="#j" transform="matrix(24 0 0 -24 584.776 1036)"/><use xlink:href="#w" transform="matrix(24 0 0 -24 593.656 1036)"/><path d="M527 998zm5.952-10.104c2.4 0 4.16.456 5.28 1.368 1.136.896 1.704 2.128 1.704 3.696 0 .992-.24 1.888-.72 2.688-.464.784-1.176 1.408-2.136 1.872-.944.448-2.112.672-3.504.672a11.23 11.23 0 0 1-3.432-.528c-1.104-.368-2.016-.872-2.736-1.512l1.104-1.896c.576.544 1.312.984 2.208 1.32.896.32 1.84.48 2.832.48 1.264 0 2.24-.264 2.928-.792.704-.544 1.056-1.28 1.056-2.208 0-1.008-.384-1.768-1.152-2.28-.768-.528-2.08-.792-3.936-.792h-3.816l.888-8.784H539v2.088h-7.464l-.456 4.608h1.872zm7.83 10.104zm6.36-16.8V998h-2.377v-14.712h-3.792V981.2h6.168zm2.522 16.8zm12.96-2.088V998h-12.072v-1.632l6.84-6.6c.832-.8 1.392-1.488 1.68-2.064a4.029 4.029 0 0 0 .432-1.776c0-.88-.312-1.56-.936-2.04-.608-.496-1.488-.744-2.64-.744-1.856 0-3.288.608-4.296 1.824L550 983.552c.656-.8 1.512-1.424 2.568-1.872 1.072-.448 2.264-.672 3.576-.672 1.76 0 3.16.424 4.2 1.272 1.04.832 1.56 1.968 1.56 3.408 0 .896-.192 1.744-.576 2.544-.384.8-1.112 1.712-2.184 2.736l-5.136 4.944h8.616z"/><use xlink:href="#g" transform="matrix(24 0 0 -24 527 998)"/><use xlink:href="#j" transform="matrix(24 0 0 -24 540.776 998)"/><use xlink:href="#k" transform="matrix(24 0 0 -24 549.656 998)"/><path d="M437.397 1127.898zm5.952-10.104c2.4 0 4.16.456 5.28 1.368 1.136.896 1.704 2.128 1.704 3.696 0 .992-.24 1.888-.72 2.688-.464.784-1.176 1.408-2.136 1.872-.944.448-2.112.672-3.504.672a11.23 11.23 0 0 1-3.432-.528c-1.104-.368-2.016-.872-2.736-1.512l1.104-1.896c.576.544 1.312.984 2.208 1.32.896.32 1.84.48 2.832.48 1.264 0 2.24-.264 2.928-.792.704-.544 1.056-1.28 1.056-2.208 0-1.008-.384-1.768-1.152-2.28-.768-.528-2.08-.792-3.936-.792h-3.816l.888-8.784h9.48v2.088h-7.464l-.456 4.608h1.872zm7.829 10.104zm8.016.192c-1.328 0-2.512-.336-3.552-1.008-1.024-.688-1.832-1.68-2.424-2.976-.592-1.296-.888-2.832-.888-4.608 0-1.776.296-3.312.888-4.608.592-1.296 1.4-2.28 2.424-2.952 1.04-.688 2.224-1.032 3.552-1.032 1.312 0 2.48.344 3.504 1.032 1.04.672 1.856 1.656 2.448 2.952.592 1.296.888 2.832.888 4.608 0 1.776-.296 3.312-.888 4.608-.592 1.296-1.408 2.288-2.448 2.976-1.024.672-2.192 1.008-3.504 1.008zm0-2.136c1.344 0 2.416-.552 3.216-1.656.816-1.104 1.224-2.704 1.224-4.8 0-2.096-.408-3.696-1.224-4.8-.8-1.104-1.872-1.656-3.216-1.656-1.36 0-2.448.552-3.264 1.656-.8 1.104-1.2 2.704-1.2 4.8 0 2.096.4 3.696 1.2 4.8.816 1.104 1.904 1.656 3.264 1.656zm7.992 1.944zm15.768-4.128h-3.192v4.128h-2.328v-4.128h-9.336v-1.68l8.592-10.992h2.592l-8.232 10.608h6.456v-3.648h2.256v3.648h3.192v2.064zm.286 4.128zm13.536-4.2h-8.928l-1.848 4.2h-2.472l7.608-16.8h2.376l7.632 16.8h-2.52l-1.848-4.2zm-.84-1.92-3.624-8.232-3.624 8.232h7.248z"/><use xlink:href="#g" transform="matrix(24 0 0 -24 437.397 1127.898)"/><use xlink:href="#h" transform="matrix(24 0 0 -24 451.173 1127.898)"/><use xlink:href="#s" transform="matrix(24 0 0 -24 467.18 1127.898)"/><use xlink:href="#m" transform="matrix(24 0 0 -24 483.237 1127.898)"/><path d="M787 853zm5.952-10.104c2.4 0 4.16.456 5.28 1.368 1.136.896 1.704 2.128 1.704 3.696 0 .992-.24 1.888-.72 2.688-.464.784-1.176 1.408-2.136 1.872-.944.448-2.112.672-3.504.672a11.23 11.23 0 0 1-3.432-.528c-1.104-.368-2.016-.872-2.736-1.512l1.104-1.896c.576.544 1.312.984 2.208 1.32.896.32 1.84.48 2.832.48 1.264 0 2.24-.264 2.928-.792.704-.544 1.056-1.28 1.056-2.208 0-1.008-.384-1.768-1.152-2.28-.768-.528-2.08-.792-3.936-.792h-3.816l.888-8.784H799v2.088h-7.464l-.456 4.608h1.872zm7.83 10.104zm8.015.192c-1.328 0-2.512-.336-3.552-1.008-1.024-.688-1.832-1.68-2.424-2.976-.592-1.296-.888-2.832-.888-4.608 0-1.776.296-3.312.888-4.608.592-1.296 1.4-2.28 2.424-2.952 1.04-.688 2.224-1.032 3.552-1.032 1.312 0 2.48.344 3.504 1.032 1.04.672 1.856 1.656 2.448 2.952.592 1.296.888 2.832.888 4.608 0 1.776-.296 3.312-.888 4.608-.592 1.296-1.408 2.288-2.448 2.976-1.024.672-2.192 1.008-3.504 1.008zm0-2.136c1.344 0 2.416-.552 3.216-1.656.816-1.104 1.224-2.704 1.224-4.8 0-2.096-.408-3.696-1.224-4.8-.8-1.104-1.872-1.656-3.216-1.656-1.36 0-2.448.552-3.264 1.656-.8 1.104-1.2 2.704-1.2 4.8 0 2.096.4 3.696 1.2 4.8.816 1.104 1.904 1.656 3.264 1.656zm7.828 1.944zm13.392-16.8v1.632L823.225 853h-2.544l6.648-14.712h-7.68v3h-2.304V836.2h12.672z"/><use xlink:href="#g" transform="matrix(24 0 0 -24 787 853)"/><use xlink:href="#h" transform="matrix(24 0 0 -24 800.776 853)"/><use xlink:href="#x" transform="matrix(24 0 0 -24 816.62 853)"/><path d="M750.815 822.93zm5.952-10.103c2.4 0 4.16.456 5.28 1.368 1.136.896 1.704 2.128 1.704 3.696 0 .992-.24 1.888-.72 2.688-.464.784-1.176 1.408-2.136 1.872-.944.448-2.112.672-3.504.672a11.23 11.23 0 0 1-3.432-.528c-1.104-.368-2.016-.872-2.736-1.512l1.104-1.896c.576.544 1.312.984 2.208 1.32.896.32 1.84.48 2.832.48 1.264 0 2.24-.264 2.928-.792.704-.544 1.056-1.28 1.056-2.208 0-1.008-.384-1.768-1.152-2.28-.768-.528-2.08-.792-3.936-.792h-3.816l.888-8.784h9.48v2.088h-7.464l-.456 4.608h1.872zm7.829 10.104zm8.016.192c-1.328 0-2.512-.336-3.552-1.008-1.024-.688-1.832-1.68-2.424-2.976-.592-1.296-.888-2.832-.888-4.608 0-1.776.296-3.312.888-4.608.592-1.296 1.4-2.28 2.424-2.952 1.04-.688 2.224-1.032 3.552-1.032 1.312 0 2.48.344 3.504 1.032 1.04.672 1.856 1.656 2.448 2.952.592 1.296.888 2.832.888 4.608 0 1.776-.296 3.312-.888 4.608-.592 1.296-1.408 2.288-2.448 2.976-1.024.672-2.192 1.008-3.504 1.008zm0-2.136c1.344 0 2.416-.552 3.216-1.656.816-1.104 1.224-2.704 1.224-4.8 0-2.096-.408-3.696-1.224-4.8-.8-1.104-1.872-1.656-3.216-1.656-1.36 0-2.448.552-3.264 1.656-.8 1.104-1.2 2.704-1.2 4.8 0 2.096.4 3.696 1.2 4.8.816 1.104 1.904 1.656 3.264 1.656zm7.992 1.944zm11.424-8.808c.96.368 1.696.896 2.208 1.584.512.688.768 1.512.768 2.472 0 1.008-.272 1.888-.816 2.64-.544.736-1.32 1.304-2.328 1.704-1.008.4-2.192.6-3.552.6-1.344 0-2.52-.2-3.528-.6-.992-.4-1.76-.968-2.304-1.704-.544-.752-.816-1.632-.816-2.64 0-.96.248-1.784.744-2.472.512-.688 1.248-1.216 2.208-1.584-.768-.368-1.352-.856-1.752-1.464-.4-.608-.6-1.328-.6-2.16 0-.928.248-1.736.744-2.424.512-.688 1.224-1.216 2.136-1.584.912-.368 1.968-.552 3.168-.552 1.216 0 2.28.184 3.192.552.928.368 1.64.896 2.136 1.584.512.688.768 1.496.768 2.424 0 .816-.208 1.536-.624 2.16-.4.608-.984 1.096-1.752 1.464zm-3.72-6.24c-1.136 0-2.032.248-2.688.744-.656.48-.984 1.136-.984 1.968 0 .832.32 1.488.96 1.968.656.48 1.56.72 2.712.72 1.168 0 2.08-.24 2.736-.72.672-.48 1.008-1.136 1.008-1.968 0-.832-.344-1.488-1.032-1.968-.672-.496-1.576-.744-2.712-.744zm0 13.296c1.328 0 2.376-.272 3.144-.816.768-.56 1.152-1.312 1.152-2.256 0-.928-.384-1.656-1.152-2.184-.768-.544-1.816-.816-3.144-.816s-2.368.272-3.12.816c-.752.528-1.128 1.256-1.128 2.184 0 .944.376 1.696 1.128 2.256.752.544 1.792.816 3.12.816z"/><use xlink:href="#g" transform="matrix(24 0 0 -24 750.815 822.93)"/><use xlink:href="#h" transform="matrix(24 0 0 -24 764.59 822.93)"/><use xlink:href="#y" transform="matrix(24 0 0 -24 780.599 822.93)"/><path d="M713 787zm5.952-10.104c2.4 0 4.16.456 5.28 1.368 1.136.896 1.704 2.128 1.704 3.696 0 .992-.24 1.888-.72 2.688-.464.784-1.176 1.408-2.136 1.872-.944.448-2.112.672-3.504.672a11.23 11.23 0 0 1-3.432-.528c-1.104-.368-2.016-.872-2.736-1.512l1.104-1.896c.576.544 1.312.984 2.208 1.32.896.32 1.84.48 2.832.48 1.264 0 2.24-.264 2.928-.792.704-.544 1.056-1.28 1.056-2.208 0-1.008-.384-1.768-1.152-2.28-.768-.528-2.08-.792-3.936-.792h-3.816l.888-8.784H725v2.088h-7.464l-.456 4.608h1.872zm7.83 10.104zm8.015.192c-1.328 0-2.512-.336-3.552-1.008-1.024-.688-1.832-1.68-2.424-2.976-.592-1.296-.888-2.832-.888-4.608 0-1.776.296-3.312.888-4.608.592-1.296 1.4-2.28 2.424-2.952 1.04-.688 2.224-1.032 3.552-1.032 1.312 0 2.48.344 3.504 1.032 1.04.672 1.856 1.656 2.448 2.952.592 1.296.888 2.832.888 4.608 0 1.776-.296 3.312-.888 4.608-.592 1.296-1.408 2.288-2.448 2.976-1.024.672-2.192 1.008-3.504 1.008zm0-2.136c1.344 0 2.416-.552 3.216-1.656.816-1.104 1.224-2.704 1.224-4.8 0-2.096-.408-3.696-1.224-4.8-.8-1.104-1.872-1.656-3.216-1.656-1.36 0-2.448.552-3.264 1.656-.8 1.104-1.2 2.704-1.2 4.8 0 2.096.4 3.696 1.2 4.8.816 1.104 1.904 1.656 3.264 1.656zM742.79 787zm6.6-16.992c2.256 0 3.992.728 5.208 2.184 1.232 1.456 1.848 3.52 1.848 6.192 0 1.872-.336 3.472-1.008 4.8-.656 1.312-1.584 2.312-2.784 3-1.184.672-2.568 1.008-4.152 1.008-.816 0-1.584-.08-2.304-.24-.72-.176-1.344-.424-1.872-.744l.912-1.872c.816.528 1.896.792 3.24.792 1.744 0 3.104-.536 4.08-1.608.992-1.088 1.488-2.664 1.488-4.728v-.6c-.48.72-1.144 1.272-1.992 1.656-.848.368-1.8.552-2.856.552-1.104 0-2.096-.208-2.976-.624a4.903 4.903 0 0 1-2.04-1.776c-.48-.784-.72-1.68-.72-2.688 0-1.056.256-1.984.768-2.784a5.22 5.22 0 0 1 2.136-1.848c.896-.448 1.904-.672 3.024-.672zm.216 8.448c.752 0 1.424-.144 2.016-.432.592-.288 1.048-.68 1.368-1.176a2.887 2.887 0 0 0 .504-1.656c0-.592-.16-1.128-.48-1.608-.304-.496-.76-.888-1.368-1.176-.592-.304-1.312-.456-2.16-.456-1.104 0-2 .296-2.688.888-.672.592-1.008 1.384-1.008 2.376s.344 1.784 1.032 2.376c.688.576 1.616.864 2.784.864z"/><use xlink:href="#g" transform="matrix(24 0 0 -24 713 787)"/><use xlink:href="#h" transform="matrix(24 0 0 -24 726.776 787)"/><use xlink:href="#z" transform="matrix(24 0 0 -24 742.784 787)"/><path d="M675.242 758.197zm5.952-10.104c2.4 0 4.16.456 5.28 1.368 1.136.896 1.704 2.128 1.704 3.696 0 .992-.24 1.888-.72 2.688-.464.784-1.176 1.408-2.136 1.872-.944.448-2.112.672-3.504.672a11.23 11.23 0 0 1-3.432-.528c-1.104-.368-2.016-.872-2.736-1.512l1.104-1.896c.576.544 1.312.984 2.208 1.32.896.32 1.84.48 2.832.48 1.264 0 2.24-.264 2.928-.792.704-.544 1.056-1.28 1.056-2.208 0-1.008-.384-1.768-1.152-2.28-.768-.528-2.08-.792-3.936-.792h-3.816l.888-8.784h9.48v2.088h-7.464l-.456 4.608h1.872zm7.83 10.104zm6.36-16.8v16.8h-2.376v-14.712h-3.792v-2.088h6.168zm2.522 16.8zm8.016.192c-1.328 0-2.512-.336-3.552-1.008-1.024-.688-1.832-1.68-2.424-2.976-.592-1.296-.888-2.832-.888-4.608 0-1.776.296-3.312.888-4.608.592-1.296 1.4-2.28 2.424-2.952 1.04-.688 2.224-1.032 3.552-1.032 1.312 0 2.48.344 3.504 1.032 1.04.672 1.856 1.656 2.448 2.952.592 1.296.888 2.832.888 4.608 0 1.776-.296 3.312-.888 4.608-.592 1.296-1.408 2.288-2.448 2.976-1.024.672-2.192 1.008-3.504 1.008zm0-2.136c1.344 0 2.416-.552 3.216-1.656.816-1.104 1.224-2.704 1.224-4.8 0-2.096-.408-3.696-1.224-4.8-.8-1.104-1.872-1.656-3.216-1.656-1.36 0-2.448.552-3.264 1.656-.8 1.104-1.2 2.704-1.2 4.8 0 2.096.4 3.696 1.2 4.8.816 1.104 1.904 1.656 3.264 1.656z"/><use xlink:href="#g" transform="matrix(24 0 0 -24 675.242 758.197)"/><use xlink:href="#j" transform="matrix(24 0 0 -24 689.018 758.197)"/><use xlink:href="#h" transform="matrix(24 0 0 -24 697.898 758.197)"/><path d="M639.047 726.605zm5.952-10.104c2.4 0 4.16.456 5.28 1.368 1.136.896 1.704 2.128 1.704 3.696 0 .992-.24 1.888-.72 2.688-.464.784-1.176 1.408-2.136 1.872-.944.448-2.112.672-3.504.672a11.23 11.23 0 0 1-3.432-.528c-1.104-.368-2.016-.872-2.736-1.512l1.104-1.896c.576.544 1.312.984 2.208 1.32.896.32 1.84.48 2.832.48 1.264 0 2.24-.264 2.928-.792.704-.544 1.056-1.28 1.056-2.208 0-1.008-.384-1.768-1.152-2.28-.768-.528-2.08-.792-3.936-.792h-3.816l.888-8.784h9.48v2.088h-7.464l-.456 4.608h1.872zm7.83 10.104zm6.36-16.8v16.8h-2.377v-14.712h-3.792v-2.088h6.168zm2.522 16.8zm6.36-16.8v16.8h-2.376v-14.712h-3.792v-2.088h6.168z"/><use xlink:href="#g" transform="matrix(24 0 0 -24 639.047 726.605)"/><use xlink:href="#j" transform="matrix(24 0 0 -24 652.823 726.605)"/><use xlink:href="#j" transform="matrix(24 0 0 -24 661.703 726.605)"/><use xlink:href="#A" transform="matrix(61 0 0 -61 978.925 1297)"/><use xlink:href="#B" transform="matrix(61 0 0 -61 1013.39 1297)"/><use xlink:href="#C" transform="matrix(61 0 0 -61 1049.258 1297)"/><use xlink:href="#D" transform="matrix(61 0 0 -61 1094.293 1297)"/><use xlink:href="#E" transform="matrix(61 0 0 -61 828 1430.213)"/><use xlink:href="#F" transform="matrix(61 0 0 -61 864.6 1430.213)"/><use xlink:href="#G" transform="matrix(61 0 0 -61 901.2 1430.213)"/><use xlink:href="#H" transform="matrix(61 0 0 -61 937.8 1430.213)"/><use xlink:href="#I" transform="matrix(61 0 0 -61 977.633 1430.213)"/><use xlink:href="#J" transform="matrix(61 0 0 -61 992.029 1430.213)"/><use xlink:href="#I" transform="matrix(61 0 0 -61 1039.609 1430.213)"/><use xlink:href="#K" transform="matrix(61 0 0 -61 1054.005 1430.213)"/><use xlink:href="#B" transform="matrix(61 0 0 -61 1088.409 1430.213)"/><use xlink:href="#K" transform="matrix(61 0 0 -61 1124.277 1430.213)"/><use xlink:href="#A" transform="matrix(61 0 0 -61 1158.47 1430.213)"/><use xlink:href="#B" transform="matrix(61 0 0 -61 1192.935 1430.213)"/><use xlink:href="#L" transform="matrix(61 0 0 -61 1228.803 1430.213)"/><use xlink:href="#D" transform="matrix(61 0 0 -61 1262.163 1430.213)"/><use xlink:href="#M" transform="matrix(61 0 0 -61 1290.16 1430.213)"/><use xlink:href="#N" transform="matrix(61 0 0 -61 1323.65 1430.213)"/><use xlink:href="#O" transform="matrix(61 0 0 -61 1356.592 1430.213)"/><use xlink:href="#P" transform="matrix(48 0 0 -48 1619 1282)"/><use xlink:href="#Q" transform="matrix(48 0 0 -48 1658.216 1282)"/><use xlink:href="#R" transform="matrix(48 0 0 -48 1691.384 1282)"/><use xlink:href="#S" transform="matrix(48 0 0 -48 1722.134 1282)"/><use xlink:href="#T" transform="matrix(48 0 0 -48 1754.87 1282)"/><use xlink:href="#U" transform="matrix(48 0 0 -48 1783.238 1282)"/><use xlink:href="#V" transform="matrix(48 0 0 -48 1812.582 1282)"/><use xlink:href="#R" transform="matrix(48 0 0 -48 1836.113 1282)"/><use xlink:href="#W" transform="matrix(48 0 0 -48 1867.121 1282)"/><use xlink:href="#X" transform="matrix(48 0 0 -48 1896.833 1282)"/><use xlink:href="#Y" transform="matrix(48 0 0 -48 1936.769 1282)"/><use xlink:href="#b" transform="matrix(48 0 0 -48 1967.345 1282)"/><use xlink:href="#Z" transform="matrix(48 0 0 -48 1980.593 1282)"/><use xlink:href="#aa" transform="matrix(48 0 0 -48 2019.281 1282)"/><use xlink:href="#ab" transform="matrix(48 0 0 -48 2047.937 1282)"/><use xlink:href="#aa" transform="matrix(48 0 0 -48 2071.985 1282)"/><use xlink:href="#ac" transform="matrix(48 0 0 -48 2100.297 1282)"/><use xlink:href="#ad" transform="matrix(48 0 0 -48 2126.842 1282)"/><use xlink:href="#ae" transform="matrix(48 0 0 -48 2160.538 1282)"/><use xlink:href="#X" transform="matrix(48 0 0 -48 2193.514 1282)"/><use xlink:href="#af" transform="matrix(33 0 0 -33 1619 1446)"/><use xlink:href="#O" transform="matrix(33 0 0 -33 1645.796 1446)"/><use xlink:href="#ag" transform="matrix(33 0 0 -33 1663.418 1446)"/><use xlink:href="#ah" transform="matrix(33 0 0 -33 1677.773 1446)"/><use xlink:href="#B" transform="matrix(33 0 0 -33 1697.177 1446)"/><use xlink:href="#D" transform="matrix(33 0 0 -33 1716.581 1446)"/><use xlink:href="#ai" transform="matrix(33 0 0 -33 2045 1446)"/><use xlink:href="#A" transform="matrix(33 0 0 -33 2060.952 1446)"/><use xlink:href="#aj" transform="matrix(33 0 0 -33 2079.597 1446)"/><use xlink:href="#I" transform="matrix(33 0 0 -33 2088.573 1446)"/><use xlink:href="#ak" transform="matrix(33 0 0 -33 2096.361 1446)"/><use xlink:href="#al" transform="matrix(33 0 0 -33 2116.854 1446)"/><use xlink:href="#L" transform="matrix(33 0 0 -33 2135.763 1446)"/><use xlink:href="#am" transform="matrix(33 0 0 -33 2154.243 1446)"/><use xlink:href="#D" transform="matrix(33 0 0 -33 2172.999 1446)"/><use xlink:href="#B" transform="matrix(33 0 0 -33 2188.575 1446)"/><use xlink:href="#an" transform="matrix(33 0 0 -33 2207.979 1446)"/><use xlink:href="#ah" transform="matrix(33 0 0 -33 2226.393 1446)"/><use xlink:href="#O" transform="matrix(33 0 0 -33 2245.797 1446)"/><use xlink:href="#ao" transform="matrix(33 0 0 -33 2263.419 1446)"/><use xlink:href="#ap" transform="matrix(33 0 0 -33 2281.074 1446)"/><use xlink:href="#I" transform="matrix(33 0 0 -33 2290.05 1446)"/><use xlink:href="#aq" transform="matrix(33 0 0 -33 2297.838 1446)"/><use xlink:href="#aq" transform="matrix(33 0 0 -33 2317.638 1446)"/><use xlink:href="#F" transform="matrix(33 0 0 -33 2337.438 1446)"/><use xlink:href="#ar" transform="matrix(33 0 0 -33 1619 1604)"/><use xlink:href="#ao" transform="matrix(33 0 0 -33 1641.869 1604)"/><use xlink:href="#D" transform="matrix(33 0 0 -33 1659.524 1604)"/><use xlink:href="#as" transform="matrix(33 0 0 -33 1674.67 1604)"/><use xlink:href="#am" transform="matrix(33 0 0 -33 1692.787 1604)"/><use xlink:href="#L" transform="matrix(33 0 0 -33 1711.928 1604)"/><use xlink:href="#at" transform="matrix(33 0 0 -33 1730.408 1604)"/><use xlink:href="#N" transform="matrix(33 0 0 -33 1748.161 1604)"/><use xlink:href="#O" transform="matrix(33 0 0 -33 1765.983 1604)"/><use xlink:href="#ai" transform="matrix(33 0 0 -33 2045 1604)"/><use xlink:href="#A" transform="matrix(33 0 0 -33 2060.952 1604)"/><use xlink:href="#aj" transform="matrix(33 0 0 -33 2079.597 1604)"/><use xlink:href="#I" transform="matrix(33 0 0 -33 2088.573 1604)"/><use xlink:href="#ak" transform="matrix(33 0 0 -33 2096.361 1604)"/><use xlink:href="#al" transform="matrix(33 0 0 -33 2116.854 1604)"/><use xlink:href="#L" transform="matrix(33 0 0 -33 2135.763 1604)"/><use xlink:href="#am" transform="matrix(33 0 0 -33 2154.243 1604)"/><use xlink:href="#D" transform="matrix(33 0 0 -33 2172.999 1604)"/><use xlink:href="#B" transform="matrix(33 0 0 -33 2188.575 1604)"/><use xlink:href="#an" transform="matrix(33 0 0 -33 2207.979 1604)"/><use xlink:href="#ah" transform="matrix(33 0 0 -33 2226.393 1604)"/><use xlink:href="#O" transform="matrix(33 0 0 -33 2245.797 1604)"/><use xlink:href="#ao" transform="matrix(33 0 0 -33 2263.419 1604)"/><use xlink:href="#ap" transform="matrix(33 0 0 -33 2281.074 1604)"/><use xlink:href="#I" transform="matrix(33 0 0 -33 2290.05 1604)"/><use xlink:href="#aq" transform="matrix(33 0 0 -33 2297.838 1604)"/><use xlink:href="#au" transform="matrix(33 0 0 -33 2317.638 1604)"/><use xlink:href="#av" transform="matrix(33 0 0 -33 2337.438 1604)"/><use xlink:href="#aw" transform="matrix(33 0 0 -33 1619 1367)"/><use xlink:href="#O" transform="matrix(33 0 0 -33 1639.988 1367)"/><use xlink:href="#ax" transform="matrix(33 0 0 -33 1657.777 1367)"/><use xlink:href="#M" transform="matrix(33 0 0 -33 1674.116 1367)"/><use xlink:href="#D" transform="matrix(33 0 0 -33 1691.808 1367)"/><use xlink:href="#A" transform="matrix(33 0 0 -33 1706.536 1367)"/><use xlink:href="#M" transform="matrix(33 0 0 -33 1725.18 1367)"/><use xlink:href="#ai" transform="matrix(33 0 0 -33 2045 1367)"/><use xlink:href="#A" transform="matrix(33 0 0 -33 2060.952 1367)"/><use xlink:href="#aj" transform="matrix(33 0 0 -33 2079.597 1367)"/><use xlink:href="#I" transform="matrix(33 0 0 -33 2088.573 1367)"/><use xlink:href="#ak" transform="matrix(33 0 0 -33 2096.361 1367)"/><use xlink:href="#al" transform="matrix(33 0 0 -33 2116.854 1367)"/><use xlink:href="#L" transform="matrix(33 0 0 -33 2135.763 1367)"/><use xlink:href="#am" transform="matrix(33 0 0 -33 2154.243 1367)"/><use xlink:href="#D" transform="matrix(33 0 0 -33 2172.999 1367)"/><use xlink:href="#B" transform="matrix(33 0 0 -33 2188.575 1367)"/><use xlink:href="#an" transform="matrix(33 0 0 -33 2207.979 1367)"/><use xlink:href="#ah" transform="matrix(33 0 0 -33 2226.393 1367)"/><use xlink:href="#O" transform="matrix(33 0 0 -33 2245.797 1367)"/><use xlink:href="#ao" transform="matrix(33 0 0 -33 2263.419 1367)"/><use xlink:href="#ap" transform="matrix(33 0 0 -33 2281.074 1367)"/><use xlink:href="#I" transform="matrix(33 0 0 -33 2290.05 1367)"/><use xlink:href="#aq" transform="matrix(33 0 0 -33 2297.838 1367)"/><use xlink:href="#F" transform="matrix(33 0 0 -33 2317.638 1367)"/><use xlink:href="#G" transform="matrix(33 0 0 -33 2337.438 1367)"/><use xlink:href="#ay" transform="matrix(33 0 0 -33 1619 1525)"/><use xlink:href="#az" transform="matrix(33 0 0 -33 1637.917 1525)"/><use xlink:href="#aA" transform="matrix(33 0 0 -33 1654.32 1525)"/><use xlink:href="#I" transform="matrix(33 0 0 -33 1672.8 1525)"/><use xlink:href="#aB" transform="matrix(33 0 0 -33 1680.588 1525)"/><use xlink:href="#aC" transform="matrix(33 0 0 -33 1693.788 1525)"/><use xlink:href="#aC" transform="matrix(33 0 0 -33 1712.532 1525)"/><use xlink:href="#aA" transform="matrix(33 0 0 -33 1731.276 1525)"/><use xlink:href="#I" transform="matrix(33 0 0 -33 1749.756 1525)"/><use xlink:href="#aD" transform="matrix(33 0 0 -33 1757.544 1525)"/><use xlink:href="#aE" transform="matrix(33 0 0 -33 1784.34 1525)"/><use xlink:href="#aF" transform="matrix(33 0 0 -33 1801.962 1525)"/><use xlink:href="#aG" transform="matrix(33 0 0 -33 1814.073 1525)"/><use xlink:href="#aH" transform="matrix(33 0 0 -33 1830.928 1525)"/><use xlink:href="#aI" transform="matrix(33 0 0 -33 1849.045 1525)"/><use xlink:href="#ai" transform="matrix(33 0 0 -33 2045 1525)"/><use xlink:href="#A" transform="matrix(33 0 0 -33 2060.952 1525)"/><use xlink:href="#aj" transform="matrix(33 0 0 -33 2079.597 1525)"/><use xlink:href="#I" transform="matrix(33 0 0 -33 2088.573 1525)"/><use xlink:href="#ak" transform="matrix(33 0 0 -33 2096.361 1525)"/><use xlink:href="#al" transform="matrix(33 0 0 -33 2116.854 1525)"/><use xlink:href="#L" transform="matrix(33 0 0 -33 2135.763 1525)"/><use xlink:href="#am" transform="matrix(33 0 0 -33 2154.243 1525)"/><use xlink:href="#D" transform="matrix(33 0 0 -33 2172.999 1525)"/><use xlink:href="#B" transform="matrix(33 0 0 -33 2188.575 1525)"/><use xlink:href="#an" transform="matrix(33 0 0 -33 2207.979 1525)"/><use xlink:href="#ah" transform="matrix(33 0 0 -33 2226.393 1525)"/><use xlink:href="#O" transform="matrix(33 0 0 -33 2245.797 1525)"/><use xlink:href="#ao" transform="matrix(33 0 0 -33 2263.419 1525)"/><use xlink:href="#ap" transform="matrix(33 0 0 -33 2281.074 1525)"/><use xlink:href="#I" transform="matrix(33 0 0 -33 2290.05 1525)"/><use xlink:href="#aq" transform="matrix(33 0 0 -33 2297.838 1525)"/><use xlink:href="#aq" transform="matrix(33 0 0 -33 2317.638 1525)"/><use xlink:href="#F" transform="matrix(33 0 0 -33 2337.438 1525)"/><use xlink:href="#aJ" transform="matrix(48 0 0 -48 1619 286)"/><use xlink:href="#aa" transform="matrix(48 0 0 -48 1652.844 286)"/><use xlink:href="#aK" transform="matrix(48 0 0 -48 1681.5 286)"/><use xlink:href="#Y" transform="matrix(48 0 0 -48 1721.196 286)"/><use xlink:href="#b" transform="matrix(48 0 0 -48 1751.772 286)"/><use xlink:href="#ad" transform="matrix(48 0 0 -48 1765.02 286)"/><use xlink:href="#b" transform="matrix(48 0 0 -48 1798.716 286)"/><use xlink:href="#U" transform="matrix(48 0 0 -48 1811.964 286)"/><use xlink:href="#R" transform="matrix(48 0 0 -48 1840.792 286)"/><use xlink:href="#aK" transform="matrix(48 0 0 -48 1871.8 286)"/><use xlink:href="#Y" transform="matrix(48 0 0 -48 1911.496 286)"/><use xlink:href="#aL" transform="matrix(48 0 0 -48 1942.072 286)"/><use xlink:href="#ae" transform="matrix(48 0 0 -48 1975.768 286)"/><use xlink:href="#ad" transform="matrix(48 0 0 -48 2008.744 286)"/><use xlink:href="#b" transform="matrix(48 0 0 -48 2042.44 286)"/><use xlink:href="#ab" transform="matrix(48 0 0 -48 2055.688 286)"/><use xlink:href="#R" transform="matrix(48 0 0 -48 2078.61 286)"/><use xlink:href="#Q" transform="matrix(48 0 0 -48 2109.618 286)"/><use xlink:href="#R" transform="matrix(48 0 0 -48 2142.786 286)"/><use xlink:href="#S" transform="matrix(48 0 0 -48 2173.536 286)"/><use xlink:href="#aa" transform="matrix(48 0 0 -48 2206.272 286)"/><use xlink:href="#ar" transform="matrix(33 0 0 -33 1619 493)"/><use xlink:href="#B" transform="matrix(33 0 0 -33 1641.869 493)"/><use xlink:href="#aM" transform="matrix(33 0 0 -33 1661.273 493)"/><use xlink:href="#aM" transform="matrix(33 0 0 -33 1681.073 493)"/><use xlink:href="#M" transform="matrix(33 0 0 -33 1700.873 493)"/><use xlink:href="#am" transform="matrix(33 0 0 -33 1718.99 493)"/><use xlink:href="#B" transform="matrix(33 0 0 -33 1738.13 493)"/><use xlink:href="#ao" transform="matrix(33 0 0 -33 1757.534 493)"/><use xlink:href="#I" transform="matrix(33 0 0 -33 1775.189 493)"/><use xlink:href="#aN" transform="matrix(33 0 0 -33 1782.977 493)"/><use xlink:href="#aO" transform="matrix(33 0 0 -33 1799.906 493)"/><use xlink:href="#aE" transform="matrix(33 0 0 -33 1820.399 493)"/><use xlink:href="#az" transform="matrix(33 0 0 -33 1838.021 493)"/><use xlink:href="#aP" transform="matrix(33 0 0 -33 1854.62 493)"/><use xlink:href="#aA" transform="matrix(33 0 0 -33 1862.87 493)"/><use xlink:href="#I" transform="matrix(33 0 0 -33 1881.35 493)"/><use xlink:href="#aH" transform="matrix(33 0 0 -33 1889.138 493)"/><use xlink:href="#I" transform="matrix(33 0 0 -33 1907.255 493)"/><use xlink:href="#aQ" transform="matrix(33 0 0 -33 1915.043 493)"/><use xlink:href="#aP" transform="matrix(33 0 0 -33 1931.279 493)"/><use xlink:href="#aC" transform="matrix(33 0 0 -33 1939.529 493)"/><use xlink:href="#aA" transform="matrix(33 0 0 -33 1958.273 493)"/><use xlink:href="#aR" transform="matrix(33 0 0 -33 1976.753 493)"/><use xlink:href="#ai" transform="matrix(33 0 0 -33 2045 493)"/><use xlink:href="#A" transform="matrix(33 0 0 -33 2060.952 493)"/><use xlink:href="#aj" transform="matrix(33 0 0 -33 2079.597 493)"/><use xlink:href="#I" transform="matrix(33 0 0 -33 2088.573 493)"/><use xlink:href="#ak" transform="matrix(33 0 0 -33 2096.361 493)"/><use xlink:href="#al" transform="matrix(33 0 0 -33 2116.854 493)"/><use xlink:href="#L" transform="matrix(33 0 0 -33 2135.763 493)"/><use xlink:href="#am" transform="matrix(33 0 0 -33 2154.243 493)"/><use xlink:href="#D" transform="matrix(33 0 0 -33 2172.999 493)"/><use xlink:href="#B" transform="matrix(33 0 0 -33 2188.575 493)"/><use xlink:href="#an" transform="matrix(33 0 0 -33 2207.979 493)"/><use xlink:href="#ah" transform="matrix(33 0 0 -33 2226.393 493)"/><use xlink:href="#O" transform="matrix(33 0 0 -33 2245.797 493)"/><use xlink:href="#ao" transform="matrix(33 0 0 -33 2263.419 493)"/><use xlink:href="#ap" transform="matrix(33 0 0 -33 2281.074 493)"/><use xlink:href="#I" transform="matrix(33 0 0 -33 2290.05 493)"/><use xlink:href="#aq" transform="matrix(33 0 0 -33 2297.838 493)"/><use xlink:href="#F" transform="matrix(33 0 0 -33 2317.638 493)"/><use xlink:href="#F" transform="matrix(33 0 0 -33 2337.438 493)"/><use xlink:href="#aS" transform="matrix(33 0 0 -33 1619 974)"/><use xlink:href="#O" transform="matrix(33 0 0 -33 1640.688 974)"/><use xlink:href="#C" transform="matrix(33 0 0 -33 1658.31 974)"/><use xlink:href="#M" transform="matrix(33 0 0 -33 1683.125 974)"/><use xlink:href="#I" transform="matrix(33 0 0 -33 1701.242 974)"/><use xlink:href="#aN" transform="matrix(33 0 0 -33 1709.03 974)"/><use xlink:href="#ar" transform="matrix(33 0 0 -33 1725.959 974)"/><use xlink:href="#O" transform="matrix(33 0 0 -33 1748.828 974)"/><use xlink:href="#D" transform="matrix(33 0 0 -33 1765.843 974)"/><use xlink:href="#M" transform="matrix(33 0 0 -33 1780.99 974)"/><use xlink:href="#C" transform="matrix(33 0 0 -33 1799.107 974)"/><use xlink:href="#L" transform="matrix(33 0 0 -33 1823.921 974)"/><use xlink:href="#ah" transform="matrix(33 0 0 -33 1842.401 974)"/><use xlink:href="#I" transform="matrix(33 0 0 -33 1861.805 974)"/><use xlink:href="#aT" transform="matrix(33 0 0 -33 1619 1017)"/><use xlink:href="#O" transform="matrix(33 0 0 -33 1646.852 1017)"/><use xlink:href="#B" transform="matrix(33 0 0 -33 1664.474 1017)"/><use xlink:href="#ah" transform="matrix(33 0 0 -33 1683.878 1017)"/><use xlink:href="#aU" transform="matrix(33 0 0 -33 1703.282 1017)"/><use xlink:href="#I" transform="matrix(33 0 0 -33 1727.174 1017)"/><use xlink:href="#aS" transform="matrix(33 0 0 -33 1734.962 1017)"/><use xlink:href="#O" transform="matrix(33 0 0 -33 1756.65 1017)"/><use xlink:href="#am" transform="matrix(33 0 0 -33 1774.273 1017)"/><use xlink:href="#A" transform="matrix(33 0 0 -33 1793.35 1017)"/><use xlink:href="#L" transform="matrix(33 0 0 -33 1811.996 1017)"/><use xlink:href="#an" transform="matrix(33 0 0 -33 1830.476 1017)"/><use xlink:href="#ah" transform="matrix(33 0 0 -33 1848.89 1017)"/><use xlink:href="#aU" transform="matrix(33 0 0 -33 1868.294 1017)"/><use xlink:href="#aR" transform="matrix(33 0 0 -33 1892.186 1017)"/><use xlink:href="#ai" transform="matrix(33 0 0 -33 2045 974)"/><use xlink:href="#A" transform="matrix(33 0 0 -33 2060.952 974)"/><use xlink:href="#aj" transform="matrix(33 0 0 -33 2079.597 974)"/><use xlink:href="#I" transform="matrix(33 0 0 -33 2088.573 974)"/><use xlink:href="#ak" transform="matrix(33 0 0 -33 2096.361 974)"/><use xlink:href="#al" transform="matrix(33 0 0 -33 2116.854 974)"/><use xlink:href="#L" transform="matrix(33 0 0 -33 2135.763 974)"/><use xlink:href="#am" transform="matrix(33 0 0 -33 2154.243 974)"/><use xlink:href="#D" transform="matrix(33 0 0 -33 2172.999 974)"/><use xlink:href="#B" transform="matrix(33 0 0 -33 2188.575 974)"/><use xlink:href="#an" transform="matrix(33 0 0 -33 2207.979 974)"/><use xlink:href="#ah" transform="matrix(33 0 0 -33 2226.393 974)"/><use xlink:href="#O" transform="matrix(33 0 0 -33 2245.797 974)"/><use xlink:href="#ao" transform="matrix(33 0 0 -33 2263.419 974)"/><use xlink:href="#ap" transform="matrix(33 0 0 -33 2281.074 974)"/><use xlink:href="#I" transform="matrix(33 0 0 -33 2290.05 974)"/><use xlink:href="#aq" transform="matrix(33 0 0 -33 2297.838 974)"/><use xlink:href="#au" transform="matrix(33 0 0 -33 2317.638 974)"/><use xlink:href="#F" transform="matrix(33 0 0 -33 2337.438 974)"/><use xlink:href="#aw" transform="matrix(33 0 0 -33 1619 852)"/><use xlink:href="#ai" transform="matrix(33 0 0 -33 1639.657 852)"/><use xlink:href="#A" transform="matrix(33 0 0 -33 1655.61 852)"/><use xlink:href="#L" transform="matrix(33 0 0 -33 1674.254 852)"/><use xlink:href="#at" transform="matrix(33 0 0 -33 1692.734 852)"/><use xlink:href="#ah" transform="matrix(33 0 0 -33 1710.488 852)"/><use xlink:href="#O" transform="matrix(33 0 0 -33 1729.892 852)"/><use xlink:href="#ao" transform="matrix(33 0 0 -33 1747.514 852)"/><use xlink:href="#aV" transform="matrix(33 0 0 -33 1765.17 852)"/><use xlink:href="#al" transform="matrix(33 0 0 -33 1778.336 852)"/><use xlink:href="#M" transform="matrix(33 0 0 -33 1797.245 852)"/><use xlink:href="#N" transform="matrix(33 0 0 -33 1815.362 852)"/><use xlink:href="#O" transform="matrix(33 0 0 -33 1833.184 852)"/><use xlink:href="#am" transform="matrix(33 0 0 -33 1850.806 852)"/><use xlink:href="#ah" transform="matrix(33 0 0 -33 1869.946 852)"/><use xlink:href="#ao" transform="matrix(33 0 0 -33 1889.35 852)"/><use xlink:href="#I" transform="matrix(33 0 0 -33 1907.005 852)"/><use xlink:href="#aW" transform="matrix(33 0 0 -33 1619 895)"/><use xlink:href="#O" transform="matrix(33 0 0 -33 1651.098 895)"/><use xlink:href="#am" transform="matrix(33 0 0 -33 1668.72 895)"/><use xlink:href="#I" transform="matrix(33 0 0 -33 1687.86 895)"/><use xlink:href="#aX" transform="matrix(33 0 0 -33 1695.648 895)"/><use xlink:href="#an" transform="matrix(33 0 0 -33 1712.247 895)"/><use xlink:href="#M" transform="matrix(33 0 0 -33 1730.66 895)"/><use xlink:href="#aY" transform="matrix(33 0 0 -33 1748.289 895)"/><use xlink:href="#O" transform="matrix(33 0 0 -33 1773.36 895)"/><use xlink:href="#am" transform="matrix(33 0 0 -33 1790.983 895)"/><use xlink:href="#aR" transform="matrix(33 0 0 -33 1810.123 895)"/><use xlink:href="#ai" transform="matrix(33 0 0 -33 2045 852)"/><use xlink:href="#A" transform="matrix(33 0 0 -33 2060.952 852)"/><use xlink:href="#aj" transform="matrix(33 0 0 -33 2079.597 852)"/><use xlink:href="#I" transform="matrix(33 0 0 -33 2088.573 852)"/><use xlink:href="#ak" transform="matrix(33 0 0 -33 2096.361 852)"/><use xlink:href="#al" transform="matrix(33 0 0 -33 2116.854 852)"/><use xlink:href="#L" transform="matrix(33 0 0 -33 2135.763 852)"/><use xlink:href="#am" transform="matrix(33 0 0 -33 2154.243 852)"/><use xlink:href="#D" transform="matrix(33 0 0 -33 2172.999 852)"/><use xlink:href="#B" transform="matrix(33 0 0 -33 2188.575 852)"/><use xlink:href="#an" transform="matrix(33 0 0 -33 2207.979 852)"/><use xlink:href="#ah" transform="matrix(33 0 0 -33 2226.393 852)"/><use xlink:href="#O" transform="matrix(33 0 0 -33 2245.797 852)"/><use xlink:href="#ao" transform="matrix(33 0 0 -33 2263.419 852)"/><use xlink:href="#ap" transform="matrix(33 0 0 -33 2281.074 852)"/><use xlink:href="#I" transform="matrix(33 0 0 -33 2290.05 852)"/><use xlink:href="#aq" transform="matrix(33 0 0 -33 2297.838 852)"/><use xlink:href="#au" transform="matrix(33 0 0 -33 2317.638 852)"/><use xlink:href="#F" transform="matrix(33 0 0 -33 2337.438 852)"/><use xlink:href="#aS" transform="matrix(33 0 0 -33 1619 1096)"/><use xlink:href="#O" transform="matrix(33 0 0 -33 1640.688 1096)"/><use xlink:href="#C" transform="matrix(33 0 0 -33 1658.31 1096)"/><use xlink:href="#M" transform="matrix(33 0 0 -33 1683.125 1096)"/><use xlink:href="#I" transform="matrix(33 0 0 -33 1701.242 1096)"/><use xlink:href="#aN" transform="matrix(33 0 0 -33 1709.03 1096)"/><use xlink:href="#H" transform="matrix(33 0 0 -33 1725.959 1096)"/><use xlink:href="#aB" transform="matrix(33 0 0 -33 1747.508 1096)"/><use xlink:href="#aZ" transform="matrix(33 0 0 -33 1760.708 1096)"/><use xlink:href="#I" transform="matrix(33 0 0 -33 1783.643 1096)"/><use xlink:href="#H" transform="matrix(33 0 0 -33 1791.43 1096)"/><use xlink:href="#ba" transform="matrix(33 0 0 -33 1812.98 1096)"/><use xlink:href="#bb" transform="matrix(33 0 0 -33 1836.344 1096)"/><use xlink:href="#bb" transform="matrix(33 0 0 -33 1855.196 1096)"/><use xlink:href="#aR" transform="matrix(33 0 0 -33 1874.37 1096)"/><use xlink:href="#ai" transform="matrix(33 0 0 -33 2045 1096)"/><use xlink:href="#A" transform="matrix(33 0 0 -33 2060.952 1096)"/><use xlink:href="#aj" transform="matrix(33 0 0 -33 2079.597 1096)"/><use xlink:href="#I" transform="matrix(33 0 0 -33 2088.573 1096)"/><use xlink:href="#ak" transform="matrix(33 0 0 -33 2096.361 1096)"/><use xlink:href="#al" transform="matrix(33 0 0 -33 2116.854 1096)"/><use xlink:href="#L" transform="matrix(33 0 0 -33 2135.763 1096)"/><use xlink:href="#am" transform="matrix(33 0 0 -33 2154.243 1096)"/><use xlink:href="#D" transform="matrix(33 0 0 -33 2172.999 1096)"/><use xlink:href="#B" transform="matrix(33 0 0 -33 2188.575 1096)"/><use xlink:href="#an" transform="matrix(33 0 0 -33 2207.979 1096)"/><use xlink:href="#ah" transform="matrix(33 0 0 -33 2226.393 1096)"/><use xlink:href="#O" transform="matrix(33 0 0 -33 2245.797 1096)"/><use xlink:href="#ao" transform="matrix(33 0 0 -33 2263.419 1096)"/><use xlink:href="#ap" transform="matrix(33 0 0 -33 2281.074 1096)"/><use xlink:href="#I" transform="matrix(33 0 0 -33 2290.05 1096)"/><use xlink:href="#aq" transform="matrix(33 0 0 -33 2297.838 1096)"/><use xlink:href="#au" transform="matrix(33 0 0 -33 2317.638 1096)"/><use xlink:href="#av" transform="matrix(33 0 0 -33 2337.438 1096)"/><use xlink:href="#aS" transform="matrix(33 0 0 -33 1619 730)"/><use xlink:href="#O" transform="matrix(33 0 0 -33 1640.688 730)"/><use xlink:href="#C" transform="matrix(33 0 0 -33 1658.31 730)"/><use xlink:href="#M" transform="matrix(33 0 0 -33 1683.125 730)"/><use xlink:href="#aV" transform="matrix(33 0 0 -33 1701.559 730)"/><use xlink:href="#N" transform="matrix(33 0 0 -33 1714.726 730)"/><use xlink:href="#L" transform="matrix(33 0 0 -33 1732.353 730)"/><use xlink:href="#ah" transform="matrix(33 0 0 -33 1750.833 730)"/><use xlink:href="#bc" transform="matrix(33 0 0 -33 1770.237 730)"/><use xlink:href="#B" transform="matrix(33 0 0 -33 1789.938 730)"/><use xlink:href="#D" transform="matrix(33 0 0 -33 1809.342 730)"/><use xlink:href="#M" transform="matrix(33 0 0 -33 1824.489 730)"/><use xlink:href="#am" transform="matrix(33 0 0 -33 1842.606 730)"/><use xlink:href="#aX" transform="matrix(33 0 0 -33 1861.746 730)"/><use xlink:href="#N" transform="matrix(33 0 0 -33 1878.345 730)"/><use xlink:href="#O" transform="matrix(33 0 0 -33 1896.166 730)"/><use xlink:href="#ao" transform="matrix(33 0 0 -33 1913.788 730)"/><use xlink:href="#I" transform="matrix(33 0 0 -33 1931.443 730)"/><use xlink:href="#aO" transform="matrix(33 0 0 -33 1619 773)"/><use xlink:href="#bd" transform="matrix(33 0 0 -33 1639.493 773)"/><use xlink:href="#be" transform="matrix(33 0 0 -33 1658.237 773)"/><use xlink:href="#I" transform="matrix(33 0 0 -33 1677.377 773)"/><use xlink:href="#bf" transform="matrix(33 0 0 -33 1685.165 773)"/><use xlink:href="#I" transform="matrix(33 0 0 -33 1708.067 773)"/><use xlink:href="#az" transform="matrix(33 0 0 -33 1715.855 773)"/><use xlink:href="#aE" transform="matrix(33 0 0 -33 1732.454 773)"/><use xlink:href="#aG" transform="matrix(33 0 0 -33 1750.076 773)"/><use xlink:href="#aH" transform="matrix(33 0 0 -33 1766.93 773)"/><use xlink:href="#aR" transform="matrix(33 0 0 -33 1785.047 773)"/><use xlink:href="#ai" transform="matrix(33 0 0 -33 2045 730)"/><use xlink:href="#A" transform="matrix(33 0 0 -33 2060.952 730)"/><use xlink:href="#aj" transform="matrix(33 0 0 -33 2079.597 730)"/><use xlink:href="#I" transform="matrix(33 0 0 -33 2088.573 730)"/><use xlink:href="#ak" transform="matrix(33 0 0 -33 2096.361 730)"/><use xlink:href="#al" transform="matrix(33 0 0 -33 2116.854 730)"/><use xlink:href="#L" transform="matrix(33 0 0 -33 2135.763 730)"/><use xlink:href="#am" transform="matrix(33 0 0 -33 2154.243 730)"/><use xlink:href="#D" transform="matrix(33 0 0 -33 2172.999 730)"/><use xlink:href="#B" transform="matrix(33 0 0 -33 2188.575 730)"/><use xlink:href="#an" transform="matrix(33 0 0 -33 2207.979 730)"/><use xlink:href="#ah" transform="matrix(33 0 0 -33 2226.393 730)"/><use xlink:href="#O" transform="matrix(33 0 0 -33 2245.797 730)"/><use xlink:href="#ao" transform="matrix(33 0 0 -33 2263.419 730)"/><use xlink:href="#ap" transform="matrix(33 0 0 -33 2281.074 730)"/><use xlink:href="#I" transform="matrix(33 0 0 -33 2290.05 730)"/><use xlink:href="#aq" transform="matrix(33 0 0 -33 2297.838 730)"/><use xlink:href="#aq" transform="matrix(33 0 0 -33 2317.638 730)"/><use xlink:href="#av" transform="matrix(33 0 0 -33 2337.438 730)"/><use xlink:href="#aw" transform="matrix(33 0 0 -33 1619 651)"/><use xlink:href="#O" transform="matrix(33 0 0 -33 1639.988 651)"/><use xlink:href="#am" transform="matrix(33 0 0 -33 1657.61 651)"/><use xlink:href="#I" transform="matrix(33 0 0 -33 1676.75 651)"/><use xlink:href="#aN" transform="matrix(33 0 0 -33 1684.538 651)"/><use xlink:href="#aq" transform="matrix(33 0 0 -33 1701.467 651)"/><use xlink:href="#F" transform="matrix(33 0 0 -33 1721.267 651)"/><use xlink:href="#bg" transform="matrix(33 0 0 -33 1741.042 651)"/><use xlink:href="#aR" transform="matrix(33 0 0 -33 1760.83 651)"/><use xlink:href="#ai" transform="matrix(33 0 0 -33 2045 651)"/><use xlink:href="#A" transform="matrix(33 0 0 -33 2060.952 651)"/><use xlink:href="#aj" transform="matrix(33 0 0 -33 2079.597 651)"/><use xlink:href="#I" transform="matrix(33 0 0 -33 2088.573 651)"/><use xlink:href="#ak" transform="matrix(33 0 0 -33 2096.361 651)"/><use xlink:href="#al" transform="matrix(33 0 0 -33 2116.854 651)"/><use xlink:href="#L" transform="matrix(33 0 0 -33 2135.763 651)"/><use xlink:href="#am" transform="matrix(33 0 0 -33 2154.243 651)"/><use xlink:href="#D" transform="matrix(33 0 0 -33 2172.999 651)"/><use xlink:href="#B" transform="matrix(33 0 0 -33 2188.575 651)"/><use xlink:href="#an" transform="matrix(33 0 0 -33 2207.979 651)"/><use xlink:href="#ah" transform="matrix(33 0 0 -33 2226.393 651)"/><use xlink:href="#O" transform="matrix(33 0 0 -33 2245.797 651)"/><use xlink:href="#ao" transform="matrix(33 0 0 -33 2263.419 651)"/><use xlink:href="#ap" transform="matrix(33 0 0 -33 2281.074 651)"/><use xlink:href="#I" transform="matrix(33 0 0 -33 2290.05 651)"/><use xlink:href="#aq" transform="matrix(33 0 0 -33 2297.838 651)"/><use xlink:href="#F" transform="matrix(33 0 0 -33 2317.638 651)"/><use xlink:href="#bg" transform="matrix(33 0 0 -33 2337.456 651)"/><use xlink:href="#aS" transform="matrix(33 0 0 -33 1619 371)"/><use xlink:href="#L" transform="matrix(33 0 0 -33 1640.205 371)"/><use xlink:href="#C" transform="matrix(33 0 0 -33 1658.735 371)"/><use xlink:href="#M" transform="matrix(33 0 0 -33 1683.55 371)"/><use xlink:href="#bh" transform="matrix(33 0 0 -33 1701.661 371)"/><use xlink:href="#ah" transform="matrix(33 0 0 -33 1721.062 371)"/><use xlink:href="#ao" transform="matrix(33 0 0 -33 1740.466 371)"/><use xlink:href="#bi" transform="matrix(33 0 0 -33 1758.122 371)"/><use xlink:href="#aO" transform="matrix(33 0 0 -33 1619 414)"/><use xlink:href="#aA" transform="matrix(33 0 0 -33 1639.493 414)"/><use xlink:href="#bj" transform="matrix(33 0 0 -33 1657.769 414)"/><use xlink:href="#bj" transform="matrix(33 0 0 -33 1668.46 414)"/><use xlink:href="#aH" transform="matrix(33 0 0 -33 1679.038 414)"/><use xlink:href="#aH" transform="matrix(33 0 0 -33 1697.155 414)"/><use xlink:href="#I" transform="matrix(33 0 0 -33 1715.272 414)"/><use xlink:href="#aO" transform="matrix(33 0 0 -33 1723.06 414)"/><use xlink:href="#aE" transform="matrix(33 0 0 -33 1743.553 414)"/><use xlink:href="#aQ" transform="matrix(33 0 0 -33 1760.923 414)"/><use xlink:href="#aE" transform="matrix(33 0 0 -33 1776.875 414)"/><use xlink:href="#aR" transform="matrix(33 0 0 -33 1794.497 414)"/><use xlink:href="#ai" transform="matrix(33 0 0 -33 2045 371)"/><use xlink:href="#A" transform="matrix(33 0 0 -33 2060.952 371)"/><use xlink:href="#aj" transform="matrix(33 0 0 -33 2079.597 371)"/><use xlink:href="#I" transform="matrix(33 0 0 -33 2088.573 371)"/><use xlink:href="#bk" transform="matrix(33 0 0 -33 2096.401 371)"/><use xlink:href="#ah" transform="matrix(33 0 0 -33 2114.803 371)"/><use xlink:href="#B" transform="matrix(33 0 0 -33 2134.207 371)"/><use xlink:href="#an" transform="matrix(33 0 0 -33 2153.61 371)"/><use xlink:href="#M" transform="matrix(33 0 0 -33 2172.025 371)"/><use xlink:href="#am" transform="matrix(33 0 0 -33 2190.142 371)"/><use xlink:href="#aX" transform="matrix(33 0 0 -33 2209.282 371)"/><use xlink:href="#B" transform="matrix(33 0 0 -33 2225.88 371)"/><use xlink:href="#D" transform="matrix(33 0 0 -33 2245.285 371)"/><use xlink:href="#M" transform="matrix(33 0 0 -33 2260.431 371)"/><use xlink:href="#D" transform="matrix(33 0 0 -33 2278.124 371)"/><use xlink:href="#aX" transform="matrix(33 0 0 -33 2293.27 371)"/><use xlink:href="#N" transform="matrix(33 0 0 -33 2309.87 371)"/><use xlink:href="#O" transform="matrix(33 0 0 -33 2327.69 371)"/><use xlink:href="#ao" transform="matrix(33 0 0 -33 2345.313 371)"/><use xlink:href="#ap" transform="matrix(33 0 0 -33 2362.967 371)"/><use xlink:href="#I" transform="matrix(33 0 0 -33 2371.943 371)"/><use xlink:href="#bl" transform="matrix(33 0 0 -33 2379.737 371)"/><use xlink:href="#aN" transform="matrix(33 0 0 -33 1602 414)"/><use xlink:href="#aN" transform="matrix(33 0 0 -33 1602 773)"/><use xlink:href="#aN" transform="matrix(33 0 0 -33 1602 895)"/><use xlink:href="#aS" transform="matrix(33 0 0 -33 1619 572)"/><use xlink:href="#O" transform="matrix(33 0 0 -33 1640.688 572)"/><use xlink:href="#C" transform="matrix(33 0 0 -33 1658.31 572)"/><use xlink:href="#M" transform="matrix(33 0 0 -33 1683.125 572)"/><use xlink:href="#I" transform="matrix(33 0 0 -33 1701.242 572)"/><use xlink:href="#aN" transform="matrix(33 0 0 -33 1709.03 572)"/><use xlink:href="#bm" transform="matrix(33 0 0 -33 1725.96 572)"/><use xlink:href="#ah" transform="matrix(33 0 0 -33 1749.292 572)"/><use xlink:href="#ah" transform="matrix(33 0 0 -33 1768.696 572)"/><use xlink:href="#L" transform="matrix(33 0 0 -33 1788.1 572)"/><use xlink:href="#af" transform="matrix(33 0 0 -33 1806.58 572)"/><use xlink:href="#O" transform="matrix(33 0 0 -33 1833.376 572)"/><use xlink:href="#N" transform="matrix(33 0 0 -33 1850.998 572)"/><use xlink:href="#aX" transform="matrix(33 0 0 -33 1868.626 572)"/><use xlink:href="#aR" transform="matrix(33 0 0 -33 1885.225 572)"/><use xlink:href="#ai" transform="matrix(33 0 0 -33 2045 572)"/><use xlink:href="#A" transform="matrix(33 0 0 -33 2060.952 572)"/><use xlink:href="#aj" transform="matrix(33 0 0 -33 2079.597 572)"/><use xlink:href="#I" transform="matrix(33 0 0 -33 2088.573 572)"/><use xlink:href="#bn" transform="matrix(33 0 0 -33 2096.401 572)"/><use xlink:href="#ak" transform="matrix(33 0 0 -33 2096.401 572)"/><use xlink:href="#al" transform="matrix(33 0 0 -33 2116.894 572)"/><use xlink:href="#L" transform="matrix(33 0 0 -33 2135.803 572)"/><use xlink:href="#am" transform="matrix(33 0 0 -33 2154.284 572)"/><use xlink:href="#D" transform="matrix(33 0 0 -33 2173.04 572)"/><use xlink:href="#B" transform="matrix(33 0 0 -33 2188.615 572)"/><use xlink:href="#an" transform="matrix(33 0 0 -33 2208.02 572)"/><use xlink:href="#ah" transform="matrix(33 0 0 -33 2226.433 572)"/><use xlink:href="#O" transform="matrix(33 0 0 -33 2245.837 572)"/><use xlink:href="#ao" transform="matrix(33 0 0 -33 2263.46 572)"/><use xlink:href="#ap" transform="matrix(33 0 0 -33 2281.114 572)"/><use xlink:href="#I" transform="matrix(33 0 0 -33 2290.09 572)"/><use xlink:href="#aq" transform="matrix(33 0 0 -33 2297.878 572)"/><use xlink:href="#F" transform="matrix(33 0 0 -33 2317.678 572)"/><use xlink:href="#bl" transform="matrix(33 0 0 -33 2337.456 572)"/></svg>