<?xml version="1.0" encoding="UTF-8" standalone="no"?>
<svg
   width="3223"
   height="2185"
   viewBox="0 0 2417.25 1638.75"
   version="1.1"
   id="svg127"
   sodipodi:docname="floor_5.svg"
   inkscape:version="1.3.2 (091e20e, 2023-11-25, custom)"
   xmlns:inkscape="http://www.inkscape.org/namespaces/inkscape"
   xmlns:sodipodi="http://sodipodi.sourceforge.net/DTD/sodipodi-0.dtd"
   xmlns="http://www.w3.org/2000/svg"
   xmlns:svg="http://www.w3.org/2000/svg">
  <defs
     id="defs127" />
  <sodipodi:namedview
     id="namedview127"
     pagecolor="#ffffff"
     bordercolor="#000000"
     borderopacity="0.25"
     inkscape:showpageshadow="2"
     inkscape:pageopacity="0.0"
     inkscape:pagecheckerboard="0"
     inkscape:deskcolor="#d1d1d1"
     inkscape:zoom="0.099735608"
     inkscape:cx="2631.9587"
     inkscape:cy="1754.6391"
     inkscape:window-width="1920"
     inkscape:window-height="1051"
     inkscape:window-x="-9"
     inkscape:window-y="-9"
     inkscape:window-maximized="1"
     inkscape:current-layer="svg127" />
  <g
     id="g37"
     inkscape:label="floor_5"
     transform="matrix(0,-0.92505317,0.92505317,0,-363.78826,1781.1928)"
     style="display:inline">
    <path
       d="m 803.175,897.365 -30.79,36.888 32.043,26.746 30.79,-36.888 z"
       fill="#17b69c"
       id="path1-2" />
    <path
       d="m 927.012,652.036 -86.939,103.227 1.557,1.311 86.939,-103.227 z m -147,-123.793 -86.939,103.227 1.557,1.311 86.94,-103.227 z m -74.675,-62.797 -86.939,103.227 1.557,1.312 86.94,-103.227 z m 151.54,127.434 -86.94,103.228 1.558,1.311 86.94,-103.227 -1.558,-1.311 z m 112.077,94.375 -87.142,103.227 1.556,1.314 87.142,-103.227 z m -429.876,358.435 59.045,-70.244 -1.558,-1.31 -59.045,70.243 1.558,1.31 z m 107.297,-280.973 59.656,-70.854 -1.558,-1.312 -59.656,70.855 1.558,1.31 z m 39.702,33.392 59.656,-70.65 -1.556,-1.314 -59.656,70.65 z m 37.867,31.966 59.656,-70.65 -1.556,-1.314 -59.656,70.65 z m 39.096,32.984 60.063,-71.261 -1.556,-1.312 -60.064,71.26 z m -185.076,215.207 59.045,-70.04 -1.557,-1.312 -59.045,70.04 z m -116.869,130.102 91.418,-108.52 -1.557,-1.312 -91.418,108.52 z m -73.381,-61.708 91.418,-108.521 -1.557,-1.312 -91.418,108.52 1.557,1.312 z m 118.786,98.155 90.603,-107.503 -1.557,-1.312 -90.604,107.503 1.557,1.312 z m 105.059,-138.045 59.045,-70.244 -1.559,-1.31 -59.045,70.243 1.559,1.31 z m 41.125,34.613 59.045,-70.244 -1.559,-1.31 -59.045,70.244 z"
       id="path2-9" />
    <path
       d="m 569.188,525.547 -28.606,-24.098 -1.312,1.557 28.606,24.098 z m 55.83,47.032 -35.945,-30.28 -1.312,1.556 35.946,30.28 1.312,-1.556 z"
       id="path3-09" />
    <path
       d="m 800.79,720.934 -56.564,-47.728 -1.313,1.556 56.564,47.728 z M 650.984,594.53 l -28.755,-24.263 -1.313,1.556 28.755,24.263 z m 69.932,59.007 -48.532,-40.95 -1.313,1.556 48.532,40.95 z m 134.642,113.41 -40.924,-34.409 -1.31,1.559 40.924,34.409 z m 88.16,74.315 -74.52,-62.71 -1.31,1.558 74.519,62.71 1.31,-1.558 z m 52.328,44.185 -38.685,-32.78 -1.316,1.553 38.685,32.78 z m -501.118,122.937 -0.777,-0.657 -0.658,0.777 0.777,0.658 z m 13.892,10.421 -13.235,-11.198 -1.315,1.555 13.235,11.198 z m -13.115,-9.763 59.249,-70.04 -1.555,-1.315 -59.248,70.04 z m 52.615,42.949 -25.857,-21.785 -1.312,1.557 25.858,21.785 1.312,-1.557 z m 34.815,29.526 -21.175,-17.917 -1.315,1.554 21.175,17.917 z m 44.182,37.052 -30.336,-25.45 -1.309,1.56 30.337,25.45 z m 38.278,32.375 -24.636,-20.767 -1.312,1.556 24.635,20.768 z m 28.094,23.612 -14.456,-12.013 -1.301,1.566 14.456,12.013 1.3,-1.566 z m -290.786,-200.784 0.652,-0.782 -0.778,-0.648 -0.652,0.774 z m 31.198,24.877 a 7853.85,7853.85 0 0 0 -28.35,-23.825 3215.266,3215.266 0 0 0 -2.054,-1.715 l -0.106,-0.089 -0.027,-0.022 -0.007,-0.006 -0.001,-10e-4 -0.653,0.781 -0.651,0.783 0.002,0.001 0.006,0.006 0.027,0.022 0.106,0.088 a 1660.559,1660.559 0 0 1 2.053,1.714 c 1.43,1.196 3.53,2.952 6.202,5.191 a 7852.566,7852.566 0 0 1 22.139,18.627 z m -31.976,-25.533 -90.807,107.706 1.556,1.313 90.808,-107.706 z m 101.318,84.446 c -15.9,-13.647 -39.03,-33.382 -55.495,-47.506 l -1.325,1.545 c 16.491,14.148 39.574,33.841 55.494,47.506 z m 64.949,54.708 c -7.074,-6.098 -15.763,-13.33 -24.507,-20.607 -8.747,-7.28 -17.548,-14.608 -24.858,-20.906 l -1.33,1.542 c 7.326,6.313 16.142,13.651 24.886,20.929 8.747,7.28 17.422,14.5 24.48,20.584 l 1.33,-1.542 z m 37.298,32.124 0.654,-0.78 v -10e-4 l -0.002,-10e-4 -0.005,-0.01 -0.022,-0.018 -0.087,-0.073 a 2704.316,2704.316 0 0 1 -1.684,-1.41 l -5.121,-4.295 c -4.428,-3.715 -10.79,-9.06 -18.527,-15.574 l -1.311,1.557 a 13782.203,13782.203 0 0 0 25.336,21.284 l 0.087,0.072 0.022,0.019 h 0.006 l 0.001,10e-4 0.654,-0.78 z"
       id="path4-4" />
    <path
       d="m 404.405,975.127 0.658,-0.777 v -10e-4 c -0.002,0 -0.003,-0.002 -0.005,-0.004 l -0.017,-0.014 -0.066,-0.056 a 2904.896,2904.896 0 0 1 -1.302,-1.103 l -4.065,-3.448 c -3.567,-3.025 -8.811,-7.476 -15.52,-13.176 a 41892.794,41892.794 0 0 1 -56.143,-47.784 l -1.32,1.55 a 41889.048,41889.048 0 0 0 56.145,47.786 28088.033,28088.033 0 0 0 20.89,17.729 l 0.065,0.056 0.017,0.014 0.004,0.003 0.001,10e-4 z m -94.703,-79.639 0.661,-0.775 -0.002,-0.002 -0.008,-0.006 -0.032,-0.028 a 4236.657,4236.657 0 0 1 -2.934,-2.504 l -10.065,-8.589 c -9.451,-8.063 -24.763,-21.123 -48.208,-41.112 l -1.321,1.55 a 204890.88,204890.88 0 0 1 61.075,52.092 l 0.13,0.111 0.033,0.028 0.007,0.007 0.002,10e-4 z m 398.852,334.454 -88.567,-74.722 -1.313,1.556 88.567,74.723 z"
       id="path5-8" />
    <path
       d="m 675.96,1194.036 -4.682,5.701 1.573,1.293 4.683,-5.701 -1.573,-1.293 z m 34.585,-39.26 0.657,-0.777 -0.778,-0.657 -0.657,0.777 z m 34.862,28.135 -34.205,-28.912 -1.314,1.555 34.205,28.912 z m -35.64,-28.792 -22.193,26.265 1.555,1.314 22.193,-26.265 z m 103.84,-206.048 -10.18,12.013 1.553,1.316 10.18,-12.012 z m 81.401,-95.036 0.778,0.656 0.669,-0.793 -0.805,-0.653 z m -9.415,-6.555 a 679.354,679.354 0 0 0 6.448,5.43 404.853,404.853 0 0 0 2.286,1.883 l 0.029,0.024 0.007,0.006 0.002,10e-4 0.643,-0.79 0.642,-0.79 -0.002,-10e-4 -0.007,-0.006 a 39.526,39.526 0 0 1 -0.14,-0.114 l -0.442,-0.362 c -0.39,-0.32 -0.967,-0.796 -1.717,-1.418 a 677.708,677.708 0 0 1 -6.429,-5.413 z m 8.637,5.899 -69.022,81.848 1.557,1.313 69.021,-81.849 z m -44.875,-36.236 c 8.35,7.128 16.094,13.65 22.619,18.952 l 1.283,-1.58 c -6.505,-5.287 -14.235,-11.796 -22.58,-18.92 z m -41.944,-35.426 c 9.777,8.351 19.355,16.3 28.307,23.827 l 1.31,-1.558 c -8.965,-7.54 -18.525,-15.472 -28.294,-23.817 z m -35.835,-30.34 c 7.336,6.317 14.875,12.633 22.206,18.742 l 1.303,-1.564 c -7.329,-6.107 -14.857,-12.415 -22.18,-18.721 z m -39.294,-32.979 c 8.148,6.926 16.704,14.055 25.456,21.383 l 1.307,-1.561 c -8.757,-7.332 -17.304,-14.454 -25.444,-21.374 z m -36.23,-30.531 c 6.934,5.71 14.619,12.386 23.206,19.542 l 1.304,-1.564 c -8.515,-7.096 -16.304,-13.858 -23.215,-19.55 z m -27.449,-24.608 0.658,-0.777 -0.778,-0.659 -0.657,0.779 z m -58.878,71.307 59.656,-70.65 -1.555,-1.314 -59.656,70.65 z m 58.878,-71.307 -0.657,0.777 0.004,0.003 0.011,0.01 0.047,0.04 0.183,0.155 a 8283.342,8283.342 0 0 0 3.547,2.999 c 2.47,2.087 6.083,5.141 10.665,9.01 l 1.313,-1.556 a 26833.719,26833.719 0 0 1 -14.21,-12.008 l -0.183,-0.155 a 207.37,207.37 0 0 1 -0.058,-0.05 c -0.002,0 -0.002,-0.001 -0.003,-0.002 h -10e-4 z"
       id="path6-0" />
    <path
       d="m 772.24,933.663 -0.778,-0.656 -0.656,0.778 0.778,0.656 z m 108.77,90.436 -108.113,-91.214 -1.313,1.556 108.114,91.214 1.313,-1.556 z m -107.99,-89.779 90.603,-107.503 -1.556,-1.312 -90.604,107.503 z m 99.473,-215.677 18.732,15.474 0.648,-0.785 -18.731,-15.474 z m 22.433,10.817 -18.935,-15.473 -0.644,0.788 18.935,15.474 0.644,-0.788 z m 23.824,19.752 -20.36,-16.899 -0.651,0.784 20.36,16.899 0.65,-0.784 z m -20.77,-23.416 -19.343,-15.88 -0.646,0.786 19.343,15.881 z m 23.62,19.548 -20.158,-16.695 -0.65,0.784 20.158,16.695 z m -5.907,7.531 -20.564,-16.696 -0.642,0.79 20.564,16.696 z m -14.658,-30.742 -19.139,-15.678 -0.645,0.788 19.139,15.677 z m 24.025,19.749 -20.564,-16.899 -0.646,0.787 20.564,16.898 z m -20.971,-23.415 -19.343,-15.88 -0.646,0.786 19.343,15.88 z m -15.269,18.53 -18.528,-15.27 -0.648,0.785 18.528,15.27 z m -22.027,-10.617 18.325,15.066 0.646,-0.786 -18.324,-15.067 z m 15.917,17.946 -18.12,-14.864 -0.646,0.788 18.12,14.863 z m 45.2,-6.313 -20.36,-16.695 -0.646,0.787 20.36,16.695 z m -20.768,-23.415 -18.935,-15.474 -0.644,0.788 18.935,15.474 z m 23.821,19.752 -20.36,-16.697 -0.646,0.788 20.36,16.695 0.646,-0.787 z m -20.769,-23.418 -18.732,-15.27 -0.643,0.79 18.731,15.27 z m 24.231,19.956 -20.768,-17.103 -0.647,0.786 20.768,17.103 z m -21.175,-23.619 -18.936,-15.474 -0.644,0.788 18.935,15.474 0.644,-0.788 z m 23.825,19.752 -20.36,-16.9 -0.65,0.784 20.36,16.9 z m -20.772,-23.416 -18.935,-15.474 -0.644,0.788 18.935,15.474 z m 24.027,19.75 -20.564,-16.9 -0.646,0.787 20.564,16.9 z m -20.974,-23.621 -18.731,-15.27 -0.643,0.789 18.731,15.27 0.643,-0.79 z m 24.028,19.954 -20.564,-16.898 -0.647,0.787 20.564,16.899 0.647,-0.787 z m -20.972,-23.618 -18.528,-15.066 -0.642,0.79 18.528,15.066 z m 24.433,20.159 -20.971,-17.306 -0.648,0.785 20.971,17.306 z m 2.648,-4.073 -42.553,-35.02 -0.647,0.786 42.553,35.02 z"
       id="path7-42" />
    <path
       d="m 924.75,692.476 -45.81,55.583 0.785,0.648 45.811,-55.584 -0.785,-0.647 z"
       id="path8-0" />
    <path
       d="m 882.794,751.437 -0.325,0.392 0.399,0.33 0.324,-0.404 z m 46.015,-55.991 a 29.087,29.087 0 0 0 -0.394,-0.323 l -10e-4,0.002 -0.006,0.007 a 49.413,49.413 0 0 1 -0.117,0.142 22607.993,22607.993 0 0 0 -6.722,8.168 l -15.245,18.53 c -11.195,13.614 -22.703,27.616 -23.927,29.147 l 0.795,0.636 c 1.218,-1.524 12.718,-15.517 23.919,-29.136 a 96545.796,96545.796 0 0 1 20.214,-24.57 l 1.387,-1.684 0.365,-0.444 0.093,-0.113 0.024,-0.03 0.006,-0.006 10e-4,-0.002 z m -45.69,55.599 -21.379,-17.715 -0.65,0.784 21.38,17.714 0.649,-0.784 z m 15.151,-39.718 0.113,-0.496 -0.23,-0.053 -0.189,0.142 z m -4.073,3.054 -0.494,-0.12 -0.337,1.38 1.137,-0.852 z m 2.037,-8.347 0.494,0.12 0.348,-1.426 -1.156,0.905 0.314,0.4 z m -4.683,3.664 -0.124,0.494 0.241,0.06 0.196,-0.153 -0.313,-0.4 z m 16.605,3.373 -9.773,-2.24 -0.227,0.993 9.773,2.24 z m -10.192,-2.15 -4.072,3.053 0.61,0.815 4.073,-3.054 -0.61,-0.815 z m -3.272,3.581 2.036,-8.348 -0.989,-0.24 -2.036,8.347 z m 1.228,-8.87 -4.683,3.666 0.627,0.801 4.683,-3.664 -0.627,-0.802 z m -4.246,3.573 -8.958,-2.24 -0.247,0.988 8.958,2.24 z m 13.706,36.041 33.798,-40.924 -0.785,-0.649 -33.798,40.925 z"
       id="path9-7" />
    <path
       d="m 904.986,744.922 -0.506,0.054 0.054,0.506 0.506,-0.054 z m -1.117,-5.647 0.611,5.701 1.012,-0.109 -0.61,-5.7 z m 1.171,6.153 5.7,-0.611 -0.108,-1.012 -5.7,0.61 z m -34.273,-4.05 45.81,-55.584 -0.785,-0.647 -45.81,55.584 z"
       id="path10-4" />
    <path
       d="m 916.387,685.47 0.507,-0.036 -0.037,-0.524 -0.523,0.054 0.053,0.507 z m 0.915,5.665 -0.408,-5.7 -1.015,0.072 0.407,5.7 z m -0.968,-6.17 -5.904,0.61 0.105,1.013 5.904,-0.611 -0.105,-1.013 z m -27.839,33.692 0.506,-0.054 -0.054,-0.506 -0.506,0.054 z m 1.117,5.647 -0.61,-5.7 -1.013,0.108 0.611,5.7 z m -1.17,-6.153 -5.702,0.611 0.109,1.012 5.7,-0.61 -0.108,-1.013 z m -105.821,214.525 -0.39,-0.326 -0.326,0.39 0.39,0.327 0.326,-0.39 z m 21.528,-25.79 0.326,-0.391 -0.39,-0.326 -0.327,0.39 0.39,0.327 z m 21.57,18.005 0.391,0.326 0.326,-0.391 -0.39,-0.326 -0.327,0.39 z m -21.527,25.79 -0.326,0.39 0.39,0.327 0.327,-0.39 z m -21.18,-17.679 21.528,-25.79 -0.782,-0.652 -21.527,25.79 z m 20.81,-25.726 21.571,18.005 0.652,-0.781 -21.57,-18.005 -0.652,0.781 z m 21.506,17.288 -21.527,25.79 0.782,0.653 21.527,-25.79 z m -20.81,25.726 -21.57,-18.004 -0.653,0.781 21.57,18.005 z"
       id="path11-5" />
    <path
       d="m 782.71,932.943 42.96,-7.737 -0.18,-1.002 -42.96,7.737 z"
       id="path12-8" />
    <path
       d="m 803.49,906.586 0.203,43.775 1.018,-0.005 -0.204,-43.775 -1.018,0.005 z m -268.332,252.684 -20.36,-16.899 -0.65,0.784 20.36,16.899 z m 24.838,20.36 -21.379,-17.51 -0.645,0.787 21.379,17.51 0.645,-0.788 z m -25.079,-13.06 20.972,17.306 0.648,-0.785 -20.972,-17.306 z m -23.823,-19.75 20.36,16.898 0.65,-0.783 -20.36,-16.9 -0.65,0.784 z m 20.772,23.621 21.174,17.306 0.644,-0.788 -21.174,-17.306 z m -23.618,-19.548 20.157,16.492 0.644,-0.788 -20.157,-16.491 z m 20.562,23.212 21.175,17.307 0.644,-0.789 -21.175,-17.306 z m -24.027,-19.955 20.564,17.103 0.65,-0.783 -20.563,-17.103 z m 20.972,23.618 20.971,17.306 0.648,-0.785 -20.971,-17.306 z m -23.823,-19.751 20.36,16.9 0.65,-0.784 -20.36,-16.899 z m 20.771,23.418 20.972,17.103 0.643,-0.79 -20.971,-17.102 z m 25.041,-29.32 20.971,17.307 0.648,-0.786 -20.971,-17.306 z m -3.054,3.665 20.971,17.306 0.648,-0.785 -20.97,-17.307 z m -3.053,3.664 20.971,17.306 0.648,-0.785 -20.971,-17.306 z m -42.757,2.445 20.36,16.695 0.646,-0.787 -20.36,-16.695 -0.645,0.787 z m 20.767,23.208 21.175,17.51 0.649,-0.785 -21.175,-17.51 z m -24.227,-19.952 20.767,17.102 0.647,-0.785 -20.767,-17.103 z m 21.172,23.822 20.971,17.306 0.648,-0.785 -20.97,-17.306 z m -23.822,-19.751 20.36,16.9 0.65,-0.784 -20.36,-16.9 z m 20.77,23.417 21.175,17.306 0.644,-0.788 -21.174,-17.307 z m -24.027,-19.956 20.564,17.102 0.651,-0.782 -20.564,-17.103 z m 20.972,23.619 20.768,17.103 0.647,-0.786 -20.767,-17.103 z m -24.023,-19.748 20.564,16.9 0.646,-0.787 -20.564,-16.9 z m 20.97,23.414 20.97,17.306 0.649,-0.785 -20.972,-17.306 z M 483,1179.805 l 20.97,17.306 0.648,-0.785 -20.97,-17.306 -0.649,0.785 z m -2.647,4.072 44.792,36.852 0.647,-0.786 -44.792,-36.852 -0.646,0.786 z"
       id="path13-6" />
    <path
       d="m 505.093,1203.762 46.014,-55.787 -0.785,-0.648 -46.015,55.787 z"
       id="path14-5" />
    <path
       d="m 547.05,1144.8 0.322,-0.396 -0.393,-0.319 -0.321,0.391 0.393,0.323 z m -45.62,56.313 46.014,-55.99 -0.786,-0.647 -46.015,55.991 0.786,0.646 z m 45.3,-55.919 25.043,20.36 0.642,-0.79 -25.043,-20.36 z m -13.525,39.714 -0.117,0.496 0.241,0.057 0.194,-0.155 z m 4.072,-3.257 0.494,0.12 0.354,-1.45 -1.166,0.932 z m -2.036,8.347 -0.495,-0.12 -0.344,1.412 1.15,-0.889 z m 4.48,-3.46 0.114,-0.497 -0.235,-0.054 -0.191,0.147 0.311,0.403 z m -17.831,-3.781 11.198,2.647 0.234,-0.991 -11.198,-2.647 -0.234,0.99 z m 11.633,2.549 4.072,-3.258 -0.636,-0.795 -4.072,3.258 z m 3.26,-3.776 -2.037,8.348 0.99,0.241 2.035,-8.348 -0.989,-0.24 z m -1.23,8.871 4.478,-3.461 -0.622,-0.806 -4.48,3.462 0.623,0.805 z m 4.053,-3.368 10.587,2.443 0.229,-0.992 -10.587,-2.443 -0.23,0.992 z m -14.936,-35.839 -33.595,40.72 0.785,0.648 33.595,-40.72 -0.786,-0.648 z"
       id="path15-9" />
    <path
       d="m 525.061,1151.518 0.508,-0.035 -0.036,-0.526 -0.524,0.054 z m 0.915,5.87 -0.407,-5.905 -1.015,0.07 0.407,5.904 1.015,-0.07 z m -0.967,-6.377 -5.904,0.611 0.105,1.013 5.904,-0.611 z m 35.9,5.071 -45.811,55.787 0.787,0.646 45.81,-55.787 z"
       id="path16-4" />
    <path
       d="m 515.29,1212.191 -0.506,0.055 0.054,0.506 0.506,-0.055 z m -1.117,-5.646 0.61,5.7 1.013,-0.108 -0.611,-5.7 z m 1.171,6.152 5.701,-0.61 -0.108,-1.012 -5.701,0.61 z m 27.634,-33.895 -0.506,0.054 0.054,0.506 0.506,-0.054 z m -1.117,-5.647 0.61,5.701 1.013,-0.108 -0.61,-5.701 z m 1.171,6.153 5.701,-0.61 -0.108,-1.013 -5.701,0.61 z M 409.01,815.982 l -0.779,-0.655 -0.655,0.778 0.778,0.656 z m 123.79,-147.001 0.656,-0.779 -0.779,-0.656 -0.656,0.779 z m 255.16,465.066 -378.293,-318.843 -1.312,1.557 378.295,318.843 1.313,-1.557 z M 409.79,816.638 533.58,669.636 532.023,668.325 408.233,815.327 Z M 532.145,669.76 834.7,924.671 l 1.312,-1.557 -302.555,-254.912 -1.312,1.557 z"
       id="path17-9" />
    <path
       d="m 626.863,399 2.624,-3.114 -3.113,-2.624 -2.625,3.114 z M 160,953.005 l -3.114,-2.624 -2.624,3.114 3.114,2.624 z m 455.665,383.997 -2.624,3.114 3.113,2.623 2.624,-3.112 z m 173.47,-205.843 3.114,2.623 2.625,-3.115 -3.116,-2.623 z m -38.684,-32.577 -3.116,-2.622 -2.622,3.114 3.115,2.623 z m 87.753,-104.245 2.623,-3.115 -3.115,-2.623 -2.623,3.116 z m 38.685,32.577 -2.623,3.114 3.113,2.622 2.623,-3.112 z m 205.64,-243.918 3.113,2.625 2.625,-3.114 -3.115,-2.624 -2.624,3.113 z m -458.78,-386.62 -466.863,554.004 6.228,5.248 466.863,-554.005 -6.228,-5.248 z m -466.373,559.743 455.665,383.997 5.248,-6.228 -455.665,-383.996 z m 461.402,383.508 c 17.001,-20.158 60.37,-71.62 99.487,-118.04 a 2216526.3,2216526.3 0 0 0 72.41,-85.936 c 0.515,-0.61 0.908,-1.078 1.173,-1.393 l 0.3,-0.356 0.076,-0.09 0.019,-0.022 0.005,-0.01 c 0,0 10e-4,0 -3.113,-2.625 a 589.483,589.483 0 0 0 -3.115,-2.622 0.174,0.174 0 0 0 -0.005,0 l -0.02,0.023 -0.075,0.09 -0.3,0.356 -1.173,1.393 a 418876.57,418876.57 0 0 1 -20.749,24.625 l -51.661,61.31 a 501064.4,501064.4 0 0 1 -99.485,118.037 z m 172.98,-211.583 -38.684,-32.577 -5.246,6.23 38.684,32.576 5.246,-6.23 z m -38.192,-26.84 87.753,-104.245 -6.23,-5.244 -87.754,104.245 6.23,5.244 z m 82.015,-103.752 38.685,32.576 5.246,-6.23 -38.685,-32.576 z m 44.42,32.086 205.64,-243.917 -6.226,-5.25 -205.64,243.918 6.227,5.25 z m 205.151,-249.655 -455.665,-383.997 -5.248,6.228 455.665,383.996 z M 826,886 Z m 5.952,-10.104 c 2.4,0 4.16,0.456 5.28,1.368 1.136,0.896 1.704,2.128 1.704,3.696 0,0.992 -0.24,1.888 -0.72,2.688 -0.464,0.784 -1.176,1.408 -2.136,1.872 -0.944,0.448 -2.112,0.672 -3.504,0.672 a 11.23,11.23 0 0 1 -3.432,-0.528 c -1.104,-0.368 -2.016,-0.872 -2.736,-1.512 l 1.104,-1.896 c 0.576,0.544 1.312,0.984 2.208,1.32 0.896,0.32 1.84,0.48 2.832,0.48 1.264,0 2.24,-0.264 2.928,-0.792 0.704,-0.544 1.056,-1.28 1.056,-2.208 0,-1.008 -0.384,-1.768 -1.152,-2.28 -0.768,-0.528 -2.08,-0.792 -3.936,-0.792 h -3.816 L 828.52,869.2 H 838 v 2.088 h -7.464 l -0.456,4.608 z m 7.83,10.104 z m 8.015,0.192 c -1.328,0 -2.512,-0.336 -3.552,-1.008 -1.024,-0.688 -1.832,-1.68 -2.424,-2.976 -0.592,-1.296 -0.888,-2.832 -0.888,-4.608 0,-1.776 0.296,-3.312 0.888,-4.608 0.592,-1.296 1.4,-2.28 2.424,-2.952 1.04,-0.688 2.224,-1.032 3.552,-1.032 1.312,0 2.48,0.344 3.504,1.032 1.04,0.672 1.856,1.656 2.448,2.952 0.592,1.296 0.888,2.832 0.888,4.608 0,1.776 -0.296,3.312 -0.888,4.608 -0.592,1.296 -1.408,2.288 -2.448,2.976 -1.024,0.672 -2.192,1.008 -3.504,1.008 z m 0,-2.136 c 1.344,0 2.416,-0.552 3.216,-1.656 0.816,-1.104 1.224,-2.704 1.224,-4.8 0,-2.096 -0.408,-3.696 -1.224,-4.8 -0.8,-1.104 -1.872,-1.656 -3.216,-1.656 -1.36,0 -2.448,0.552 -3.264,1.656 -0.8,1.104 -1.2,2.704 -1.2,4.8 0,2.096 0.4,3.696 1.2,4.8 0.816,1.104 1.904,1.656 3.264,1.656 z M 855.79,886 Z m 8.4,-10.2 c 1.104,0 2.088,0.208 2.952,0.624 0.88,0.416 1.568,1.016 2.064,1.8 0.496,0.768 0.744,1.656 0.744,2.664 0,1.056 -0.264,1.984 -0.792,2.784 -0.512,0.8 -1.224,1.424 -2.136,1.872 -0.896,0.432 -1.904,0.648 -3.024,0.648 -2.256,0 -4,-0.728 -5.232,-2.184 -1.216,-1.456 -1.824,-3.52 -1.824,-6.192 0,-1.872 0.328,-3.464 0.984,-4.776 0.672,-1.328 1.6,-2.328 2.784,-3 1.2,-0.688 2.592,-1.032 4.176,-1.032 0.816,0 1.584,0.088 2.304,0.264 0.72,0.16 1.344,0.4 1.872,0.72 l -0.912,1.872 c -0.8,-0.528 -1.872,-0.792 -3.216,-0.792 -1.744,0 -3.112,0.544 -4.104,1.632 -0.992,1.072 -1.488,2.64 -1.488,4.704 0,0.256 0.008,0.456 0.024,0.6 0.48,-0.72 1.136,-1.264 1.968,-1.632 0.848,-0.384 1.8,-0.576 2.856,-0.576 z m -0.288,8.448 c 1.104,0 2,-0.296 2.688,-0.888 0.688,-0.592 1.032,-1.384 1.032,-2.376 0,-0.992 -0.352,-1.776 -1.056,-2.352 -0.688,-0.592 -1.616,-0.888 -2.784,-0.888 -0.752,0 -1.424,0.144 -2.016,0.432 a 3.51,3.51 0 0 0 -1.368,1.176 2.99,2.99 0 0 0 -0.48,1.656 c 0,0.592 0.152,1.136 0.456,1.632 0.32,0.48 0.776,0.872 1.368,1.176 0.608,0.288 1.328,0.432 2.16,0.432 z"
       id="path18-7" />
    <path
       d="m 961.645,798.872 z m 5.952,-10.104 c 2.4,0 4.16,0.456 5.28,1.368 1.136,0.896 1.704,2.128 1.704,3.696 0,0.992 -0.24,1.888 -0.72,2.688 -0.464,0.784 -1.176,1.408 -2.136,1.872 -0.944,0.448 -2.112,0.672 -3.504,0.672 a 11.23,11.23 0 0 1 -3.432,-0.528 c -1.104,-0.368 -2.016,-0.872 -2.736,-1.512 l 1.104,-1.896 c 0.576,0.544 1.312,0.984 2.208,1.32 0.896,0.32 1.84,0.48 2.832,0.48 1.264,0 2.24,-0.264 2.928,-0.792 0.704,-0.544 1.056,-1.28 1.056,-2.208 0,-1.008 -0.384,-1.768 -1.152,-2.28 -0.768,-0.528 -2.08,-0.792 -3.936,-0.792 h -3.816 l 0.888,-8.784 h 9.48 v 2.088 h -7.464 l -0.456,4.608 z m 7.829,10.104 z m 8.016,0.192 c -1.328,0 -2.512,-0.336 -3.552,-1.008 -1.024,-0.688 -1.832,-1.68 -2.424,-2.976 -0.592,-1.296 -0.888,-2.832 -0.888,-4.608 0,-1.776 0.296,-3.312 0.888,-4.608 0.592,-1.296 1.4,-2.28 2.424,-2.952 1.04,-0.688 2.224,-1.032 3.552,-1.032 1.312,0 2.48,0.344 3.504,1.032 1.04,0.672 1.856,1.656 2.448,2.952 0.592,1.296 0.888,2.832 0.888,4.608 0,1.776 -0.296,3.312 -0.888,4.608 -0.592,1.296 -1.408,2.288 -2.448,2.976 -1.024,0.672 -2.192,1.008 -3.504,1.008 z m 0,-2.136 c 1.344,0 2.416,-0.552 3.216,-1.656 0.816,-1.104 1.224,-2.704 1.224,-4.8 0,-2.096 -0.408,-3.696 -1.224,-4.8 -0.8,-1.104 -1.872,-1.656 -3.216,-1.656 -1.36,0 -2.448,0.552 -3.264,1.656 -0.8,1.104 -1.2,2.704 -1.2,4.8 0,2.096 0.4,3.696 1.2,4.8 0.816,1.104 1.904,1.656 3.264,1.656 z m 7.921,1.944 z m 6.36,-16.8 v 16.8 h -2.376 V 784.16 h -3.792 v -2.088 z"
       id="path19-8" />
    <path
       d="m 821.632,682.518 z m 5.952,-10.104 c 2.4,0 4.16,0.456 5.28,1.368 1.136,0.896 1.704,2.128 1.704,3.696 0,0.992 -0.24,1.888 -0.72,2.688 -0.464,0.784 -1.176,1.408 -2.136,1.872 -0.944,0.448 -2.112,0.672 -3.504,0.672 a 11.23,11.23 0 0 1 -3.432,-0.528 c -1.104,-0.368 -2.016,-0.872 -2.736,-1.512 l 1.104,-1.896 c 0.576,0.544 1.312,0.984 2.208,1.32 0.896,0.32 1.84,0.48 2.832,0.48 1.264,0 2.24,-0.264 2.928,-0.792 0.704,-0.544 1.056,-1.28 1.056,-2.208 0,-1.008 -0.384,-1.768 -1.152,-2.28 -0.768,-0.528 -2.08,-0.792 -3.936,-0.792 h -3.816 l 0.888,-8.784 h 9.48 v 2.088 h -7.464 l -0.456,4.608 z m 7.83,10.104 z m 8.016,0.192 c -1.328,0 -2.512,-0.336 -3.552,-1.008 -1.024,-0.688 -1.832,-1.68 -2.424,-2.976 -0.592,-1.296 -0.888,-2.832 -0.888,-4.608 0,-1.776 0.296,-3.312 0.888,-4.608 0.592,-1.296 1.4,-2.28 2.424,-2.952 1.04,-0.688 2.224,-1.032 3.552,-1.032 1.312,0 2.48,0.344 3.504,1.032 1.04,0.672 1.856,1.656 2.448,2.952 0.592,1.296 0.888,2.832 0.888,4.608 0,1.776 -0.296,3.312 -0.888,4.608 -0.592,1.296 -1.408,2.288 -2.448,2.976 -1.024,0.672 -2.192,1.008 -3.504,1.008 z m 0,-2.136 c 1.344,0 2.416,-0.552 3.216,-1.656 0.816,-1.104 1.224,-2.704 1.224,-4.8 0,-2.096 -0.408,-3.696 -1.224,-4.8 -0.8,-1.104 -1.872,-1.656 -3.216,-1.656 -1.36,0 -2.448,0.552 -3.264,1.656 -0.8,1.104 -1.2,2.704 -1.2,4.8 0,2.096 0.4,3.696 1.2,4.8 0.816,1.104 1.904,1.656 3.264,1.656 z m 7.921,1.944 z m 12.96,-2.088 v 2.088 H 852.24 v -1.632 l 6.84,-6.6 c 0.832,-0.8 1.392,-1.488 1.68,-2.064 a 4.029,4.029 0 0 0 0.432,-1.776 c 0,-0.88 -0.312,-1.56 -0.936,-2.04 -0.608,-0.496 -1.488,-0.744 -2.64,-0.744 -1.856,0 -3.288,0.608 -4.296,1.824 l -1.632,-1.416 c 0.656,-0.8 1.512,-1.424 2.568,-1.872 1.072,-0.448 2.264,-0.672 3.576,-0.672 1.76,0 3.16,0.424 4.2,1.272 1.04,0.832 1.56,1.968 1.56,3.408 0,0.896 -0.192,1.744 -0.576,2.544 -0.384,0.8 -1.112,1.712 -2.184,2.736 l -5.136,4.944 h 8.616 z m 0.821,2.088 z m 2.616,-16.8 h 12.672 v 2.04 h -10.296 v 4.8 h 5.232 c 2,0 3.52,0.416 4.56,1.248 1.04,0.832 1.56,2.032 1.56,3.6 0,1.648 -0.568,2.912 -1.704,3.792 -1.12,0.88 -2.728,1.32 -4.824,1.32 h -7.2 z m 7.104,14.904 c 1.376,0 2.424,-0.264 3.144,-0.792 0.72,-0.528 1.08,-1.304 1.08,-2.328 0,-2.032 -1.408,-3.048 -4.224,-3.048 h -4.728 v 6.168 z"
       id="path20-3" />
    <path
       d="m 746.633,617.518 z m 5.952,-10.104 c 2.4,0 4.16,0.456 5.28,1.368 1.136,0.896 1.704,2.128 1.704,3.696 0,0.992 -0.24,1.888 -0.72,2.688 -0.464,0.784 -1.176,1.408 -2.136,1.872 -0.944,0.448 -2.112,0.672 -3.504,0.672 a 11.23,11.23 0 0 1 -3.432,-0.528 c -1.104,-0.368 -2.016,-0.872 -2.736,-1.512 l 1.104,-1.896 c 0.576,0.544 1.312,0.984 2.208,1.32 0.896,0.32 1.84,0.48 2.832,0.48 1.264,0 2.24,-0.264 2.928,-0.792 0.704,-0.544 1.056,-1.28 1.056,-2.208 0,-1.008 -0.384,-1.768 -1.152,-2.28 -0.768,-0.528 -2.08,-0.792 -3.936,-0.792 h -3.816 l 0.888,-8.784 h 9.48 v 2.088 h -7.464 l -0.456,4.608 z m 7.83,10.104 z m 8.015,0.192 c -1.328,0 -2.512,-0.336 -3.552,-1.008 -1.024,-0.688 -1.832,-1.68 -2.424,-2.976 -0.592,-1.296 -0.888,-2.832 -0.888,-4.608 0,-1.776 0.296,-3.312 0.888,-4.608 0.592,-1.296 1.4,-2.28 2.424,-2.952 1.04,-0.688 2.224,-1.032 3.552,-1.032 1.312,0 2.48,0.344 3.504,1.032 1.04,0.672 1.856,1.656 2.448,2.952 0.592,1.296 0.888,2.832 0.888,4.608 0,1.776 -0.296,3.312 -0.888,4.608 -0.592,1.296 -1.408,2.288 -2.448,2.976 -1.024,0.672 -2.192,1.008 -3.504,1.008 z m 0,-2.136 c 1.344,0 2.416,-0.552 3.216,-1.656 0.816,-1.104 1.224,-2.704 1.224,-4.8 0,-2.096 -0.408,-3.696 -1.224,-4.8 -0.8,-1.104 -1.872,-1.656 -3.216,-1.656 -1.36,0 -2.448,0.552 -3.264,1.656 -0.8,1.104 -1.2,2.704 -1.2,4.8 0,2.096 0.4,3.696 1.2,4.8 0.816,1.104 1.904,1.656 3.264,1.656 z m 7.922,1.944 z m 12.96,-2.088 v 2.088 H 777.24 v -1.632 l 6.84,-6.6 c 0.832,-0.8 1.392,-1.488 1.68,-2.064 a 4.029,4.029 0 0 0 0.432,-1.776 c 0,-0.88 -0.312,-1.56 -0.936,-2.04 -0.608,-0.496 -1.488,-0.744 -2.64,-0.744 -1.856,0 -3.288,0.608 -4.296,1.824 l -1.632,-1.416 c 0.656,-0.8 1.512,-1.424 2.568,-1.872 1.072,-0.448 2.264,-0.672 3.576,-0.672 1.76,0 3.16,0.424 4.2,1.272 1.04,0.832 1.56,1.968 1.56,3.408 0,0.896 -0.192,1.744 -0.576,2.544 -0.384,0.8 -1.112,1.712 -2.184,2.736 l -5.136,4.944 z m 0.891,2.088 z m 13.536,-4.2 h -8.928 l -1.848,4.2 h -2.472 l 7.608,-16.8 h 2.376 l 7.632,16.8 h -2.52 z m -0.84,-1.92 -3.624,-8.232 -3.624,8.232 z"
       id="path21-6" />
    <path
       d="m 590,500.91 z m 6.576,0.192 c -1.184,0 -2.336,-0.184 -3.456,-0.552 -1.104,-0.368 -2.008,-0.864 -2.712,-1.488 l 1.104,-1.896 c 0.56,0.528 1.288,0.96 2.184,1.296 a 8.066,8.066 0 0 0 2.856,0.504 c 1.28,0 2.264,-0.272 2.952,-0.816 0.688,-0.544 1.032,-1.272 1.032,-2.184 0,-0.624 -0.152,-1.168 -0.456,-1.632 -0.304,-0.464 -0.832,-0.816 -1.584,-1.056 -0.736,-0.256 -1.752,-0.384 -3.048,-0.384 h -3.816 l 0.888,-8.784 H 602 v 2.088 h -8.592 l 1.248,-1.176 -0.696,6.936 -1.248,-1.152 h 3.24 c 1.68,0 3.032,0.216 4.056,0.648 1.024,0.432 1.768,1.032 2.232,1.8 0.464,0.752 0.696,1.624 0.696,2.616 0,0.96 -0.232,1.84 -0.696,2.64 -0.464,0.784 -1.168,1.416 -2.112,1.896 -0.928,0.464 -2.112,0.696 -3.552,0.696 z m 7.205,-0.192 z m 8.016,0.192 c -1.312,0 -2.488,-0.336 -3.528,-1.008 -1.024,-0.672 -1.84,-1.648 -2.448,-2.928 -0.592,-1.28 -0.888,-2.832 -0.888,-4.656 0,-1.824 0.296,-3.376 0.888,-4.656 0.608,-1.28 1.424,-2.256 2.448,-2.928 1.04,-0.672 2.216,-1.008 3.528,-1.008 1.296,0 2.464,0.336 3.504,1.008 1.04,0.672 1.856,1.648 2.448,2.928 0.592,1.28 0.888,2.832 0.888,4.656 0,1.824 -0.296,3.376 -0.888,4.656 -0.592,1.28 -1.408,2.256 -2.448,2.928 -1.04,0.672 -2.208,1.008 -3.504,1.008 z m 0,-2.136 c 0.88,0 1.648,-0.24 2.304,-0.72 0.672,-0.48 1.192,-1.2 1.56,-2.16 0.384,-0.96 0.576,-2.152 0.576,-3.576 0,-1.424 -0.192,-2.616 -0.576,-3.576 -0.368,-0.96 -0.888,-1.68 -1.56,-2.16 -0.656,-0.48 -1.424,-0.72 -2.304,-0.72 -0.88,0 -1.656,0.24 -2.328,0.72 -0.672,0.48 -1.2,1.2 -1.584,2.16 -0.368,0.96 -0.552,2.152 -0.552,3.576 0,1.424 0.184,2.616 0.552,3.576 0.384,0.96 0.912,1.68 1.584,2.16 0.672,0.48 1.448,0.72 2.328,0.72 z m 7.758,1.944 z m 6.288,0.192 c -1.184,0 -2.336,-0.184 -3.456,-0.552 -1.104,-0.368 -2.008,-0.864 -2.712,-1.488 l 1.104,-1.896 c 0.56,0.528 1.288,0.96 2.184,1.296 a 8.135,8.135 0 0 0 2.88,0.504 c 1.248,0 2.216,-0.264 2.904,-0.792 0.704,-0.544 1.056,-1.272 1.056,-2.184 0,-0.88 -0.336,-1.584 -1.008,-2.112 -0.656,-0.544 -1.704,-0.816 -3.144,-0.816 h -1.344 v -1.68 l 4.992,-6.144 0.336,0.96 h -9.192 v -2.088 h 11.088 v 1.632 l -4.968,6.12 -1.248,-0.744 h 0.792 c 2.032,0 3.552,0.456 4.56,1.368 1.024,0.912 1.536,2.072 1.536,3.48 0,0.944 -0.232,1.808 -0.696,2.592 -0.464,0.784 -1.168,1.408 -2.112,1.872 -0.928,0.448 -2.112,0.672 -3.552,0.672 z m 7.47,-0.192 z m -0.024,0 7.608,-16.8 h 2.376 l 7.632,16.8 h -2.52 l -6.792,-15.456 h 0.96 l -6.792,15.456 z m 3.24,-4.2 0.648,-1.92 h 9.456 l 0.696,1.92 z"
       id="path22-3" />
    <path
       d="m 667,560 z m 6.576,0.192 c -1.184,0 -2.336,-0.184 -3.456,-0.552 -1.104,-0.368 -2.008,-0.864 -2.712,-1.488 l 1.104,-1.896 c 0.56,0.528 1.288,0.96 2.184,1.296 a 8.066,8.066 0 0 0 2.856,0.504 c 1.28,0 2.264,-0.272 2.952,-0.816 0.688,-0.544 1.032,-1.272 1.032,-2.184 0,-0.624 -0.152,-1.168 -0.456,-1.632 -0.304,-0.464 -0.832,-0.816 -1.584,-1.056 -0.736,-0.256 -1.752,-0.384 -3.048,-0.384 h -3.816 L 669.52,543.2 H 679 v 2.088 h -8.592 l 1.248,-1.176 -0.696,6.936 -1.248,-1.152 h 3.24 c 1.68,0 3.032,0.216 4.056,0.648 1.024,0.432 1.768,1.032 2.232,1.8 0.464,0.752 0.696,1.624 0.696,2.616 0,0.96 -0.232,1.84 -0.696,2.64 -0.464,0.784 -1.168,1.416 -2.112,1.896 -0.928,0.464 -2.112,0.696 -3.552,0.696 z M 680.781,560 Z m 8.016,0.192 c -1.312,0 -2.488,-0.336 -3.528,-1.008 -1.024,-0.672 -1.84,-1.648 -2.448,-2.928 -0.592,-1.28 -0.888,-2.832 -0.888,-4.656 0,-1.824 0.296,-3.376 0.888,-4.656 0.608,-1.28 1.424,-2.256 2.448,-2.928 1.04,-0.672 2.216,-1.008 3.528,-1.008 1.296,0 2.464,0.336 3.504,1.008 1.04,0.672 1.856,1.648 2.448,2.928 0.592,1.28 0.888,2.832 0.888,4.656 0,1.824 -0.296,3.376 -0.888,4.656 -0.592,1.28 -1.408,2.256 -2.448,2.928 -1.04,0.672 -2.208,1.008 -3.504,1.008 z m 0,-2.136 c 0.88,0 1.648,-0.24 2.304,-0.72 0.672,-0.48 1.192,-1.2 1.56,-2.16 0.384,-0.96 0.576,-2.152 0.576,-3.576 0,-1.424 -0.192,-2.616 -0.576,-3.576 -0.368,-0.96 -0.888,-1.68 -1.56,-2.16 -0.656,-0.48 -1.424,-0.72 -2.304,-0.72 -0.88,0 -1.656,0.24 -2.328,0.72 -0.672,0.48 -1.2,1.2 -1.584,2.16 -0.368,0.96 -0.552,2.152 -0.552,3.576 0,1.424 0.184,2.616 0.552,3.576 0.384,0.96 0.912,1.68 1.584,2.16 0.672,0.48 1.448,0.72 2.328,0.72 z m 7.758,1.944 z m 6.288,0.192 c -1.184,0 -2.336,-0.184 -3.456,-0.552 -1.104,-0.368 -2.008,-0.864 -2.712,-1.488 l 1.104,-1.896 c 0.56,0.528 1.288,0.96 2.184,1.296 a 8.135,8.135 0 0 0 2.88,0.504 c 1.248,0 2.216,-0.264 2.904,-0.792 0.704,-0.544 1.056,-1.272 1.056,-2.184 0,-0.88 -0.336,-1.584 -1.008,-2.112 -0.656,-0.544 -1.704,-0.816 -3.144,-0.816 h -1.344 v -1.68 l 4.992,-6.144 0.336,0.96 h -9.192 V 543.2 h 11.088 v 1.632 l -4.968,6.12 -1.248,-0.744 h 0.792 c 2.032,0 3.552,0.456 4.56,1.368 1.024,0.912 1.536,2.072 1.536,3.48 0,0.944 -0.232,1.808 -0.696,2.592 -0.464,0.784 -1.168,1.408 -2.112,1.872 -0.928,0.448 -2.112,0.672 -3.552,0.672 z M 710.289,560 Z m 2.616,0 v -16.8 h 12.672 v 2.04 h -10.296 v 4.8 h 5.232 c 2,0 3.52,0.416 4.56,1.248 1.04,0.832 1.56,2.04 1.56,3.624 0,1.632 -0.568,2.888 -1.704,3.768 -1.12,0.88 -2.728,1.32 -4.824,1.32 z m 2.376,-1.896 h 4.728 c 1.392,0 2.44,-0.264 3.144,-0.792 0.72,-0.528 1.08,-1.312 1.08,-2.352 0,-2.016 -1.408,-3.024 -4.224,-3.024 h -4.728 z"
       id="path23-6" />
    <path
       d="m 237,979 z m 5.952,-10.104 c 2.4,0 4.16,0.456 5.28,1.368 1.136,0.896 1.704,2.128 1.704,3.696 0,0.992 -0.24,1.888 -0.72,2.688 -0.464,0.784 -1.176,1.408 -2.136,1.872 -0.944,0.448 -2.112,0.672 -3.504,0.672 a 11.23,11.23 0 0 1 -3.432,-0.528 c -1.104,-0.368 -2.016,-0.872 -2.736,-1.512 l 1.104,-1.896 c 0.576,0.544 1.312,0.984 2.208,1.32 0.896,0.32 1.84,0.48 2.832,0.48 1.264,0 2.24,-0.264 2.928,-0.792 0.704,-0.544 1.056,-1.28 1.056,-2.208 0,-1.008 -0.384,-1.768 -1.152,-2.28 -0.768,-0.528 -2.08,-0.792 -3.936,-0.792 h -3.816 L 239.52,962.2 H 249 v 2.088 h -7.464 l -0.456,4.608 z m 7.83,10.104 z m 8.015,0.192 c -1.328,0 -2.512,-0.336 -3.552,-1.008 -1.024,-0.688 -1.832,-1.68 -2.424,-2.976 -0.592,-1.296 -0.888,-2.832 -0.888,-4.608 0,-1.776 0.296,-3.312 0.888,-4.608 0.592,-1.296 1.4,-2.28 2.424,-2.952 1.04,-0.688 2.224,-1.032 3.552,-1.032 1.312,0 2.48,0.344 3.504,1.032 1.04,0.672 1.856,1.656 2.448,2.952 0.592,1.296 0.888,2.832 0.888,4.608 0,1.776 -0.296,3.312 -0.888,4.608 -0.592,1.296 -1.408,2.288 -2.448,2.976 -1.024,0.672 -2.192,1.008 -3.504,1.008 z m 0,-2.136 c 1.344,0 2.416,-0.552 3.216,-1.656 0.816,-1.104 1.224,-2.704 1.224,-4.8 0,-2.096 -0.408,-3.696 -1.224,-4.8 -0.8,-1.104 -1.872,-1.656 -3.216,-1.656 -1.36,0 -2.448,0.552 -3.264,1.656 -0.8,1.104 -1.2,2.704 -1.2,4.8 0,2.096 0.4,3.696 1.2,4.8 0.816,1.104 1.904,1.656 3.264,1.656 z M 266.79,979 Z m 15.768,-4.128 h -3.192 V 979 h -2.328 v -4.128 h -9.336 v -1.68 l 8.592,-10.992 h 2.592 l -8.232,10.608 h 6.456 v -3.648 h 2.256 v 3.648 h 3.192 z m 0.521,4.128 z m 10.128,0.192 c -1.68,0 -3.2,-0.368 -4.56,-1.104 a 8.349,8.349 0 0 1 -3.168,-3.072 c -0.768,-1.312 -1.152,-2.784 -1.152,-4.416 0,-1.632 0.384,-3.096 1.152,-4.392 a 8.08,8.08 0 0 1 3.192,-3.072 c 1.36,-0.752 2.88,-1.128 4.56,-1.128 1.312,0 2.512,0.224 3.6,0.672 a 7.252,7.252 0 0 1 2.784,1.944 l -1.56,1.512 c -1.264,-1.328 -2.84,-1.992 -4.728,-1.992 -1.248,0 -2.376,0.28 -3.384,0.84 a 6.152,6.152 0 0 0 -2.376,2.328 c -0.56,0.976 -0.84,2.072 -0.84,3.288 0,1.216 0.28,2.32 0.84,3.312 a 6.204,6.204 0 0 0 2.376,2.304 c 1.008,0.56 2.136,0.84 3.384,0.84 1.872,0 3.448,-0.672 4.728,-2.016 l 1.56,1.512 a 7.446,7.446 0 0 1 -2.808,1.968 c -1.088,0.448 -2.288,0.672 -3.6,0.672 z"
       id="path24-0" />
    <path
       d="m 355,1074 z m 6.576,0.192 c -1.184,0 -2.336,-0.184 -3.456,-0.552 -1.104,-0.368 -2.008,-0.864 -2.712,-1.488 l 1.104,-1.896 c 0.56,0.528 1.288,0.96 2.184,1.296 a 8.066,8.066 0 0 0 2.856,0.504 c 1.28,0 2.264,-0.272 2.952,-0.816 0.688,-0.544 1.032,-1.272 1.032,-2.184 0,-0.624 -0.152,-1.168 -0.456,-1.632 -0.304,-0.464 -0.832,-0.816 -1.584,-1.056 -0.736,-0.256 -1.752,-0.384 -3.048,-0.384 h -3.816 l 0.888,-8.784 H 367 v 2.088 h -8.592 l 1.248,-1.176 -0.696,6.936 -1.248,-1.152 h 3.24 c 1.68,0 3.032,0.216 4.056,0.648 1.024,0.432 1.768,1.032 2.232,1.8 0.464,0.752 0.696,1.624 0.696,2.616 0,0.96 -0.232,1.84 -0.696,2.64 -0.464,0.784 -1.168,1.416 -2.112,1.896 -0.928,0.464 -2.112,0.696 -3.552,0.696 z m 7.205,-0.192 z m 8.016,0.192 c -1.312,0 -2.488,-0.336 -3.528,-1.008 -1.024,-0.672 -1.84,-1.648 -2.448,-2.928 -0.592,-1.28 -0.888,-2.832 -0.888,-4.656 0,-1.824 0.296,-3.376 0.888,-4.656 0.608,-1.28 1.424,-2.256 2.448,-2.928 1.04,-0.672 2.216,-1.008 3.528,-1.008 1.296,0 2.464,0.336 3.504,1.008 1.04,0.672 1.856,1.648 2.448,2.928 0.592,1.28 0.888,2.832 0.888,4.656 0,1.824 -0.296,3.376 -0.888,4.656 -0.592,1.28 -1.408,2.256 -2.448,2.928 -1.04,0.672 -2.208,1.008 -3.504,1.008 z m 0,-2.136 c 0.88,0 1.648,-0.24 2.304,-0.72 0.672,-0.48 1.192,-1.2 1.56,-2.16 0.384,-0.96 0.576,-2.152 0.576,-3.576 0,-1.424 -0.192,-2.616 -0.576,-3.576 -0.368,-0.96 -0.888,-1.68 -1.56,-2.16 -0.656,-0.48 -1.424,-0.72 -2.304,-0.72 -0.88,0 -1.656,0.24 -2.328,0.72 -0.672,0.48 -1.2,1.2 -1.584,2.16 -0.368,0.96 -0.552,2.152 -0.552,3.576 0,1.424 0.184,2.616 0.552,3.576 0.384,0.96 0.912,1.68 1.584,2.16 0.672,0.48 1.448,0.72 2.328,0.72 z m 7.992,1.944 z m 0.912,-4.128 v -1.68 l 8.592,-10.992 h 2.592 l -8.52,10.992 -1.224,-0.384 h 13.416 v 2.064 z m 9.336,4.128 v -4.128 l 0.072,-2.064 v -3.648 h 2.256 v 9.84 z m 5.807,0 z m 2.616,0 v -16.8 h 7.224 c 1.824,0 3.256,0.368 4.296,1.104 1.04,0.736 1.56,1.808 1.56,3.216 0,1.376 -0.496,2.432 -1.488,3.168 -0.992,0.72 -2.296,1.08 -3.912,1.08 l 0.432,-0.72 c 1.872,0 3.304,0.376 4.296,1.128 1.008,0.736 1.512,1.816 1.512,3.24 0,1.44 -0.528,2.568 -1.584,3.384 -1.04,0.8 -2.592,1.2 -4.656,1.2 z m 2.376,-1.896 h 5.256 c 1.28,0 2.24,-0.232 2.88,-0.696 0.656,-0.48 0.984,-1.208 0.984,-2.184 0,-0.976 -0.328,-1.688 -0.984,-2.136 -0.64,-0.448 -1.6,-0.672 -2.88,-0.672 h -5.256 z m 0,-7.512 h 4.68 c 1.168,0 2.056,-0.232 2.664,-0.696 0.624,-0.464 0.936,-1.144 0.936,-2.04 0,-0.912 -0.312,-1.6 -0.936,-2.064 -0.608,-0.464 -1.496,-0.696 -2.664,-0.696 h -4.68 z"
       fill="#0f316c"
       id="path25-9" />
    <path
       d="m 590.285,1251.468 z m 5.952,-10.104 c 2.4,0 4.16,0.456 5.28,1.368 1.136,0.896 1.704,2.128 1.704,3.696 0,0.992 -0.24,1.888 -0.72,2.688 -0.464,0.784 -1.176,1.408 -2.136,1.872 -0.944,0.448 -2.112,0.672 -3.504,0.672 a 11.23,11.23 0 0 1 -3.432,-0.528 c -1.104,-0.368 -2.016,-0.872 -2.736,-1.512 l 1.104,-1.896 c 0.576,0.544 1.312,0.984 2.208,1.32 0.896,0.32 1.84,0.48 2.832,0.48 1.264,0 2.24,-0.264 2.928,-0.792 0.704,-0.544 1.056,-1.28 1.056,-2.208 0,-1.008 -0.384,-1.768 -1.152,-2.28 -0.768,-0.528 -2.08,-0.792 -3.936,-0.792 h -3.816 l 0.888,-8.784 h 9.48 v 2.088 h -7.464 l -0.456,4.608 z m 7.83,10.104 z m 8.016,0.192 c -1.328,0 -2.512,-0.336 -3.552,-1.008 -1.024,-0.688 -1.832,-1.68 -2.424,-2.976 -0.592,-1.296 -0.888,-2.832 -0.888,-4.608 0,-1.776 0.296,-3.312 0.888,-4.608 0.592,-1.296 1.4,-2.28 2.424,-2.952 1.04,-0.688 2.224,-1.032 3.552,-1.032 1.312,0 2.48,0.344 3.504,1.032 1.04,0.672 1.856,1.656 2.448,2.952 0.592,1.296 0.888,2.832 0.888,4.608 0,1.776 -0.296,3.312 -0.888,4.608 -0.592,1.296 -1.408,2.288 -2.448,2.976 -1.024,0.672 -2.192,1.008 -3.504,1.008 z m 0,-2.136 c 1.344,0 2.416,-0.552 3.216,-1.656 0.816,-1.104 1.224,-2.704 1.224,-4.8 0,-2.096 -0.408,-3.696 -1.224,-4.8 -0.8,-1.104 -1.872,-1.656 -3.216,-1.656 -1.36,0 -2.448,0.552 -3.264,1.656 -0.8,1.104 -1.2,2.704 -1.2,4.8 0,2.096 0.4,3.696 1.2,4.8 0.816,1.104 1.904,1.656 3.264,1.656 z m 7.991,1.944 z m 5.952,-10.104 c 2.4,0 4.16,0.456 5.28,1.368 1.136,0.896 1.704,2.128 1.704,3.696 0,0.992 -0.24,1.888 -0.72,2.688 -0.464,0.784 -1.176,1.408 -2.136,1.872 -0.944,0.448 -2.112,0.672 -3.504,0.672 a 11.23,11.23 0 0 1 -3.432,-0.528 c -1.104,-0.368 -2.016,-0.872 -2.736,-1.512 l 1.104,-1.896 c 0.576,0.544 1.312,0.984 2.208,1.32 0.896,0.32 1.84,0.48 2.832,0.48 1.264,0 2.24,-0.264 2.928,-0.792 0.704,-0.544 1.056,-1.28 1.056,-2.208 0,-1.008 -0.384,-1.768 -1.152,-2.28 -0.768,-0.528 -2.08,-0.792 -3.936,-0.792 h -3.816 l 0.888,-8.784 h 9.48 v 2.088 h -7.464 l -0.456,4.608 z"
       id="path26-53" />
    <path
       d="m 702,1138 z m 5.952,-10.104 c 2.4,0 4.16,0.456 5.28,1.368 1.136,0.896 1.704,2.128 1.704,3.696 0,0.992 -0.24,1.888 -0.72,2.688 -0.464,0.784 -1.176,1.408 -2.136,1.872 -0.944,0.448 -2.112,0.672 -3.504,0.672 a 11.23,11.23 0 0 1 -3.432,-0.528 c -1.104,-0.368 -2.016,-0.872 -2.736,-1.512 l 1.104,-1.896 c 0.576,0.544 1.312,0.984 2.208,1.32 0.896,0.32 1.84,0.48 2.832,0.48 1.264,0 2.24,-0.264 2.928,-0.792 0.704,-0.544 1.056,-1.28 1.056,-2.208 0,-1.008 -0.384,-1.768 -1.152,-2.28 -0.768,-0.528 -2.08,-0.792 -3.936,-0.792 h -3.816 l 0.888,-8.784 H 714 v 2.088 h -7.464 l -0.456,4.608 z m 7.83,10.104 z m 6.36,-16.8 v 16.8 h -2.377 v -14.712 h -3.792 v -2.088 h 6.168 z m 2.522,16.8 z m 8.4,-10.2 c 1.104,0 2.088,0.208 2.952,0.624 0.88,0.416 1.568,1.016 2.064,1.8 0.496,0.768 0.744,1.656 0.744,2.664 0,1.056 -0.264,1.984 -0.792,2.784 -0.512,0.8 -1.224,1.424 -2.136,1.872 -0.896,0.432 -1.904,0.648 -3.024,0.648 -2.256,0 -4,-0.728 -5.232,-2.184 -1.216,-1.456 -1.824,-3.52 -1.824,-6.192 0,-1.872 0.328,-3.464 0.984,-4.776 0.672,-1.328 1.6,-2.328 2.784,-3 1.2,-0.688 2.592,-1.032 4.176,-1.032 0.816,0 1.584,0.088 2.304,0.264 0.72,0.16 1.344,0.4 1.872,0.72 l -0.912,1.872 c -0.8,-0.528 -1.872,-0.792 -3.216,-0.792 -1.744,0 -3.112,0.544 -4.104,1.632 -0.992,1.072 -1.488,2.64 -1.488,4.704 0,0.256 0.008,0.456 0.024,0.6 0.48,-0.72 1.136,-1.264 1.968,-1.632 0.848,-0.384 1.8,-0.576 2.856,-0.576 z m -0.288,8.448 c 1.104,0 2,-0.296 2.688,-0.888 0.688,-0.592 1.032,-1.384 1.032,-2.376 0,-0.992 -0.352,-1.776 -1.056,-2.352 -0.688,-0.592 -1.616,-0.888 -2.784,-0.888 -0.752,0 -1.424,0.144 -2.016,0.432 a 3.51,3.51 0 0 0 -1.368,1.176 2.99,2.99 0 0 0 -0.48,1.656 c 0,0.592 0.152,1.136 0.456,1.632 0.32,0.48 0.776,0.872 1.368,1.176 0.608,0.288 1.328,0.432 2.16,0.432 z"
       id="path27-9" />
    <path
       d="m 645,1099 z m 5.952,-10.104 c 2.4,0 4.16,0.456 5.28,1.368 1.136,0.896 1.704,2.128 1.704,3.696 0,0.992 -0.24,1.888 -0.72,2.688 -0.464,0.784 -1.176,1.408 -2.136,1.872 -0.944,0.448 -2.112,0.672 -3.504,0.672 a 11.23,11.23 0 0 1 -3.432,-0.528 c -1.104,-0.368 -2.016,-0.872 -2.736,-1.512 l 1.104,-1.896 c 0.576,0.544 1.312,0.984 2.208,1.32 0.896,0.32 1.84,0.48 2.832,0.48 1.264,0 2.24,-0.264 2.928,-0.792 0.704,-0.544 1.056,-1.28 1.056,-2.208 0,-1.008 -0.384,-1.768 -1.152,-2.28 -0.768,-0.528 -2.08,-0.792 -3.936,-0.792 h -3.816 l 0.888,-8.784 H 657 v 2.088 h -7.464 l -0.456,4.608 z m 7.83,10.104 z m 6.36,-16.8 v 16.8 h -2.377 v -14.712 h -3.792 v -2.088 h 6.168 z m 2.522,16.8 z m 5.952,-10.104 c 2.4,0 4.16,0.456 5.28,1.368 1.136,0.896 1.704,2.128 1.704,3.696 0,0.992 -0.24,1.888 -0.72,2.688 -0.464,0.784 -1.176,1.408 -2.136,1.872 -0.944,0.448 -2.112,0.672 -3.504,0.672 a 11.23,11.23 0 0 1 -3.432,-0.528 c -1.104,-0.368 -2.016,-0.872 -2.736,-1.512 l 1.104,-1.896 c 0.576,0.544 1.312,0.984 2.208,1.32 0.896,0.32 1.84,0.48 2.832,0.48 1.264,0 2.24,-0.264 2.928,-0.792 0.704,-0.544 1.056,-1.28 1.056,-2.208 0,-1.008 -0.384,-1.768 -1.152,-2.28 -0.768,-0.528 -2.08,-0.792 -3.936,-0.792 h -3.816 l 0.888,-8.784 h 9.48 v 2.088 H 672.2 l -0.456,4.608 z"
       id="path28-4" />
    <path
       d="m 606,1064 z m 5.952,-10.104 c 2.4,0 4.16,0.456 5.28,1.368 1.136,0.896 1.704,2.128 1.704,3.696 0,0.992 -0.24,1.888 -0.72,2.688 -0.464,0.784 -1.176,1.408 -2.136,1.872 -0.944,0.448 -2.112,0.672 -3.504,0.672 a 11.23,11.23 0 0 1 -3.432,-0.528 c -1.104,-0.368 -2.016,-0.872 -2.736,-1.512 l 1.104,-1.896 c 0.576,0.544 1.312,0.984 2.208,1.32 0.896,0.32 1.84,0.48 2.832,0.48 1.264,0 2.24,-0.264 2.928,-0.792 0.704,-0.544 1.056,-1.28 1.056,-2.208 0,-1.008 -0.384,-1.768 -1.152,-2.28 -0.768,-0.528 -2.08,-0.792 -3.936,-0.792 h -3.816 l 0.888,-8.784 H 618 v 2.088 h -7.464 l -0.456,4.608 z m 7.83,10.104 z m 6.36,-16.8 v 16.8 h -2.377 v -14.712 h -3.792 v -2.088 h 6.168 z m 2.522,16.8 z m 15.768,-4.128 H 641.24 V 1064 h -2.328 v -4.128 h -9.336 v -1.68 l 8.592,-10.992 h 2.592 l -8.232,10.608 h 6.456 v -3.648 h 2.256 v 3.648 h 3.192 z"
       id="path29-7" />
    <path
       d="m 571,1036 z m 5.952,-10.104 c 2.4,0 4.16,0.456 5.28,1.368 1.136,0.896 1.704,2.128 1.704,3.696 0,0.992 -0.24,1.888 -0.72,2.688 -0.464,0.784 -1.176,1.408 -2.136,1.872 -0.944,0.448 -2.112,0.672 -3.504,0.672 a 11.23,11.23 0 0 1 -3.432,-0.528 c -1.104,-0.368 -2.016,-0.872 -2.736,-1.512 l 1.104,-1.896 c 0.576,0.544 1.312,0.984 2.208,1.32 0.896,0.32 1.84,0.48 2.832,0.48 1.264,0 2.24,-0.264 2.928,-0.792 0.704,-0.544 1.056,-1.28 1.056,-2.208 0,-1.008 -0.384,-1.768 -1.152,-2.28 -0.768,-0.528 -2.08,-0.792 -3.936,-0.792 h -3.816 l 0.888,-8.784 H 583 v 2.088 h -7.464 l -0.456,4.608 z m 7.83,10.104 z m 6.36,-16.8 v 16.8 h -2.377 v -14.712 h -3.792 v -2.088 h 6.168 z m 2.522,16.8 z m 7.584,-9.744 c 1.648,0.16 2.904,0.672 3.768,1.536 0.864,0.848 1.296,1.936 1.296,3.264 0,0.96 -0.24,1.832 -0.72,2.616 -0.48,0.768 -1.2,1.384 -2.16,1.848 -0.944,0.448 -2.104,0.672 -3.48,0.672 -1.2,0 -2.352,-0.176 -3.456,-0.528 -1.104,-0.368 -2.008,-0.872 -2.712,-1.512 l 1.104,-1.896 c 0.576,0.544 1.312,0.984 2.208,1.32 0.896,0.32 1.848,0.48 2.856,0.48 1.248,0 2.216,-0.264 2.904,-0.792 0.704,-0.528 1.056,-1.256 1.056,-2.184 0,-0.928 -0.344,-1.648 -1.032,-2.16 -0.688,-0.512 -1.728,-0.768 -3.12,-0.768 h -1.344 v -1.68 l 4.224,-5.184 h -8.088 v -2.088 h 11.088 v 1.632 z"
       id="path30-09" />
    <path
       d="m 527,998 z m 5.952,-10.104 c 2.4,0 4.16,0.456 5.28,1.368 1.136,0.896 1.704,2.128 1.704,3.696 0,0.992 -0.24,1.888 -0.72,2.688 -0.464,0.784 -1.176,1.408 -2.136,1.872 -0.944,0.448 -2.112,0.672 -3.504,0.672 a 11.23,11.23 0 0 1 -3.432,-0.528 c -1.104,-0.368 -2.016,-0.872 -2.736,-1.512 l 1.104,-1.896 c 0.576,0.544 1.312,0.984 2.208,1.32 0.896,0.32 1.84,0.48 2.832,0.48 1.264,0 2.24,-0.264 2.928,-0.792 0.704,-0.544 1.056,-1.28 1.056,-2.208 0,-1.008 -0.384,-1.768 -1.152,-2.28 -0.768,-0.528 -2.08,-0.792 -3.936,-0.792 h -3.816 L 529.52,981.2 H 539 v 2.088 h -7.464 l -0.456,4.608 z m 7.83,10.104 z m 6.36,-16.8 V 998 h -2.377 v -14.712 h -3.792 V 981.2 h 6.168 z m 2.522,16.8 z m 12.96,-2.088 V 998 h -12.072 v -1.632 l 6.84,-6.6 c 0.832,-0.8 1.392,-1.488 1.68,-2.064 a 4.029,4.029 0 0 0 0.432,-1.776 c 0,-0.88 -0.312,-1.56 -0.936,-2.04 -0.608,-0.496 -1.488,-0.744 -2.64,-0.744 -1.856,0 -3.288,0.608 -4.296,1.824 L 550,983.552 c 0.656,-0.8 1.512,-1.424 2.568,-1.872 1.072,-0.448 2.264,-0.672 3.576,-0.672 1.76,0 3.16,0.424 4.2,1.272 1.04,0.832 1.56,1.968 1.56,3.408 0,0.896 -0.192,1.744 -0.576,2.544 -0.384,0.8 -1.112,1.712 -2.184,2.736 l -5.136,4.944 z"
       id="path31-32" />
    <path
       d="m 437.397,1127.898 z m 5.952,-10.104 c 2.4,0 4.16,0.456 5.28,1.368 1.136,0.896 1.704,2.128 1.704,3.696 0,0.992 -0.24,1.888 -0.72,2.688 -0.464,0.784 -1.176,1.408 -2.136,1.872 -0.944,0.448 -2.112,0.672 -3.504,0.672 a 11.23,11.23 0 0 1 -3.432,-0.528 c -1.104,-0.368 -2.016,-0.872 -2.736,-1.512 l 1.104,-1.896 c 0.576,0.544 1.312,0.984 2.208,1.32 0.896,0.32 1.84,0.48 2.832,0.48 1.264,0 2.24,-0.264 2.928,-0.792 0.704,-0.544 1.056,-1.28 1.056,-2.208 0,-1.008 -0.384,-1.768 -1.152,-2.28 -0.768,-0.528 -2.08,-0.792 -3.936,-0.792 h -3.816 l 0.888,-8.784 h 9.48 v 2.088 h -7.464 l -0.456,4.608 z m 7.829,10.104 z m 8.016,0.192 c -1.328,0 -2.512,-0.336 -3.552,-1.008 -1.024,-0.688 -1.832,-1.68 -2.424,-2.976 -0.592,-1.296 -0.888,-2.832 -0.888,-4.608 0,-1.776 0.296,-3.312 0.888,-4.608 0.592,-1.296 1.4,-2.28 2.424,-2.952 1.04,-0.688 2.224,-1.032 3.552,-1.032 1.312,0 2.48,0.344 3.504,1.032 1.04,0.672 1.856,1.656 2.448,2.952 0.592,1.296 0.888,2.832 0.888,4.608 0,1.776 -0.296,3.312 -0.888,4.608 -0.592,1.296 -1.408,2.288 -2.448,2.976 -1.024,0.672 -2.192,1.008 -3.504,1.008 z m 0,-2.136 c 1.344,0 2.416,-0.552 3.216,-1.656 0.816,-1.104 1.224,-2.704 1.224,-4.8 0,-2.096 -0.408,-3.696 -1.224,-4.8 -0.8,-1.104 -1.872,-1.656 -3.216,-1.656 -1.36,0 -2.448,0.552 -3.264,1.656 -0.8,1.104 -1.2,2.704 -1.2,4.8 0,2.096 0.4,3.696 1.2,4.8 0.816,1.104 1.904,1.656 3.264,1.656 z m 7.992,1.944 z m 15.768,-4.128 h -3.192 v 4.128 h -2.328 v -4.128 h -9.336 v -1.68 l 8.592,-10.992 h 2.592 l -8.232,10.608 h 6.456 v -3.648 h 2.256 v 3.648 h 3.192 z m 0.286,4.128 z m 13.536,-4.2 h -8.928 l -1.848,4.2 h -2.472 l 7.608,-16.8 h 2.376 l 7.632,16.8 h -2.52 z m -0.84,-1.92 -3.624,-8.232 -3.624,8.232 z"
       id="path32-8" />
    <path
       d="m 787,853 z m 5.952,-10.104 c 2.4,0 4.16,0.456 5.28,1.368 1.136,0.896 1.704,2.128 1.704,3.696 0,0.992 -0.24,1.888 -0.72,2.688 -0.464,0.784 -1.176,1.408 -2.136,1.872 -0.944,0.448 -2.112,0.672 -3.504,0.672 a 11.23,11.23 0 0 1 -3.432,-0.528 c -1.104,-0.368 -2.016,-0.872 -2.736,-1.512 l 1.104,-1.896 c 0.576,0.544 1.312,0.984 2.208,1.32 0.896,0.32 1.84,0.48 2.832,0.48 1.264,0 2.24,-0.264 2.928,-0.792 0.704,-0.544 1.056,-1.28 1.056,-2.208 0,-1.008 -0.384,-1.768 -1.152,-2.28 -0.768,-0.528 -2.08,-0.792 -3.936,-0.792 h -3.816 L 789.52,836.2 H 799 v 2.088 h -7.464 l -0.456,4.608 z m 7.83,10.104 z m 8.015,0.192 c -1.328,0 -2.512,-0.336 -3.552,-1.008 -1.024,-0.688 -1.832,-1.68 -2.424,-2.976 -0.592,-1.296 -0.888,-2.832 -0.888,-4.608 0,-1.776 0.296,-3.312 0.888,-4.608 0.592,-1.296 1.4,-2.28 2.424,-2.952 1.04,-0.688 2.224,-1.032 3.552,-1.032 1.312,0 2.48,0.344 3.504,1.032 1.04,0.672 1.856,1.656 2.448,2.952 0.592,1.296 0.888,2.832 0.888,4.608 0,1.776 -0.296,3.312 -0.888,4.608 -0.592,1.296 -1.408,2.288 -2.448,2.976 -1.024,0.672 -2.192,1.008 -3.504,1.008 z m 0,-2.136 c 1.344,0 2.416,-0.552 3.216,-1.656 0.816,-1.104 1.224,-2.704 1.224,-4.8 0,-2.096 -0.408,-3.696 -1.224,-4.8 -0.8,-1.104 -1.872,-1.656 -3.216,-1.656 -1.36,0 -2.448,0.552 -3.264,1.656 -0.8,1.104 -1.2,2.704 -1.2,4.8 0,2.096 0.4,3.696 1.2,4.8 0.816,1.104 1.904,1.656 3.264,1.656 z m 7.828,1.944 z m 13.392,-16.8 v 1.632 L 823.225,853 h -2.544 l 6.648,-14.712 h -7.68 v 3 h -2.304 V 836.2 Z"
       id="path33-2" />
    <path
       d="m 750.815,822.93 z m 5.952,-10.103 c 2.4,0 4.16,0.456 5.28,1.368 1.136,0.896 1.704,2.128 1.704,3.696 0,0.992 -0.24,1.888 -0.72,2.688 -0.464,0.784 -1.176,1.408 -2.136,1.872 -0.944,0.448 -2.112,0.672 -3.504,0.672 a 11.23,11.23 0 0 1 -3.432,-0.528 c -1.104,-0.368 -2.016,-0.872 -2.736,-1.512 l 1.104,-1.896 c 0.576,0.544 1.312,0.984 2.208,1.32 0.896,0.32 1.84,0.48 2.832,0.48 1.264,0 2.24,-0.264 2.928,-0.792 0.704,-0.544 1.056,-1.28 1.056,-2.208 0,-1.008 -0.384,-1.768 -1.152,-2.28 -0.768,-0.528 -2.08,-0.792 -3.936,-0.792 h -3.816 l 0.888,-8.784 h 9.48 v 2.088 h -7.464 l -0.456,4.608 z m 7.829,10.104 z m 8.016,0.192 c -1.328,0 -2.512,-0.336 -3.552,-1.008 -1.024,-0.688 -1.832,-1.68 -2.424,-2.976 -0.592,-1.296 -0.888,-2.832 -0.888,-4.608 0,-1.776 0.296,-3.312 0.888,-4.608 0.592,-1.296 1.4,-2.28 2.424,-2.952 1.04,-0.688 2.224,-1.032 3.552,-1.032 1.312,0 2.48,0.344 3.504,1.032 1.04,0.672 1.856,1.656 2.448,2.952 0.592,1.296 0.888,2.832 0.888,4.608 0,1.776 -0.296,3.312 -0.888,4.608 -0.592,1.296 -1.408,2.288 -2.448,2.976 -1.024,0.672 -2.192,1.008 -3.504,1.008 z m 0,-2.136 c 1.344,0 2.416,-0.552 3.216,-1.656 0.816,-1.104 1.224,-2.704 1.224,-4.8 0,-2.096 -0.408,-3.696 -1.224,-4.8 -0.8,-1.104 -1.872,-1.656 -3.216,-1.656 -1.36,0 -2.448,0.552 -3.264,1.656 -0.8,1.104 -1.2,2.704 -1.2,4.8 0,2.096 0.4,3.696 1.2,4.8 0.816,1.104 1.904,1.656 3.264,1.656 z m 7.992,1.944 z m 11.424,-8.808 c 0.96,0.368 1.696,0.896 2.208,1.584 0.512,0.688 0.768,1.512 0.768,2.472 0,1.008 -0.272,1.888 -0.816,2.64 -0.544,0.736 -1.32,1.304 -2.328,1.704 -1.008,0.4 -2.192,0.6 -3.552,0.6 -1.344,0 -2.52,-0.2 -3.528,-0.6 -0.992,-0.4 -1.76,-0.968 -2.304,-1.704 -0.544,-0.752 -0.816,-1.632 -0.816,-2.64 0,-0.96 0.248,-1.784 0.744,-2.472 0.512,-0.688 1.248,-1.216 2.208,-1.584 -0.768,-0.368 -1.352,-0.856 -1.752,-1.464 -0.4,-0.608 -0.6,-1.328 -0.6,-2.16 0,-0.928 0.248,-1.736 0.744,-2.424 0.512,-0.688 1.224,-1.216 2.136,-1.584 0.912,-0.368 1.968,-0.552 3.168,-0.552 1.216,0 2.28,0.184 3.192,0.552 0.928,0.368 1.64,0.896 2.136,1.584 0.512,0.688 0.768,1.496 0.768,2.424 0,0.816 -0.208,1.536 -0.624,2.16 -0.4,0.608 -0.984,1.096 -1.752,1.464 z m -3.72,-6.24 c -1.136,0 -2.032,0.248 -2.688,0.744 -0.656,0.48 -0.984,1.136 -0.984,1.968 0,0.832 0.32,1.488 0.96,1.968 0.656,0.48 1.56,0.72 2.712,0.72 1.168,0 2.08,-0.24 2.736,-0.72 0.672,-0.48 1.008,-1.136 1.008,-1.968 0,-0.832 -0.344,-1.488 -1.032,-1.968 -0.672,-0.496 -1.576,-0.744 -2.712,-0.744 z m 0,13.296 c 1.328,0 2.376,-0.272 3.144,-0.816 0.768,-0.56 1.152,-1.312 1.152,-2.256 0,-0.928 -0.384,-1.656 -1.152,-2.184 -0.768,-0.544 -1.816,-0.816 -3.144,-0.816 -1.328,0 -2.368,0.272 -3.12,0.816 -0.752,0.528 -1.128,1.256 -1.128,2.184 0,0.944 0.376,1.696 1.128,2.256 0.752,0.544 1.792,0.816 3.12,0.816 z"
       id="path34-2" />
    <path
       d="m 713,787 z m 5.952,-10.104 c 2.4,0 4.16,0.456 5.28,1.368 1.136,0.896 1.704,2.128 1.704,3.696 0,0.992 -0.24,1.888 -0.72,2.688 -0.464,0.784 -1.176,1.408 -2.136,1.872 -0.944,0.448 -2.112,0.672 -3.504,0.672 a 11.23,11.23 0 0 1 -3.432,-0.528 c -1.104,-0.368 -2.016,-0.872 -2.736,-1.512 l 1.104,-1.896 c 0.576,0.544 1.312,0.984 2.208,1.32 0.896,0.32 1.84,0.48 2.832,0.48 1.264,0 2.24,-0.264 2.928,-0.792 0.704,-0.544 1.056,-1.28 1.056,-2.208 0,-1.008 -0.384,-1.768 -1.152,-2.28 -0.768,-0.528 -2.08,-0.792 -3.936,-0.792 h -3.816 L 715.52,770.2 H 725 v 2.088 h -7.464 l -0.456,4.608 z m 7.83,10.104 z m 8.015,0.192 c -1.328,0 -2.512,-0.336 -3.552,-1.008 -1.024,-0.688 -1.832,-1.68 -2.424,-2.976 -0.592,-1.296 -0.888,-2.832 -0.888,-4.608 0,-1.776 0.296,-3.312 0.888,-4.608 0.592,-1.296 1.4,-2.28 2.424,-2.952 1.04,-0.688 2.224,-1.032 3.552,-1.032 1.312,0 2.48,0.344 3.504,1.032 1.04,0.672 1.856,1.656 2.448,2.952 0.592,1.296 0.888,2.832 0.888,4.608 0,1.776 -0.296,3.312 -0.888,4.608 -0.592,1.296 -1.408,2.288 -2.448,2.976 -1.024,0.672 -2.192,1.008 -3.504,1.008 z m 0,-2.136 c 1.344,0 2.416,-0.552 3.216,-1.656 0.816,-1.104 1.224,-2.704 1.224,-4.8 0,-2.096 -0.408,-3.696 -1.224,-4.8 -0.8,-1.104 -1.872,-1.656 -3.216,-1.656 -1.36,0 -2.448,0.552 -3.264,1.656 -0.8,1.104 -1.2,2.704 -1.2,4.8 0,2.096 0.4,3.696 1.2,4.8 0.816,1.104 1.904,1.656 3.264,1.656 z M 742.79,787 Z m 6.6,-16.992 c 2.256,0 3.992,0.728 5.208,2.184 1.232,1.456 1.848,3.52 1.848,6.192 0,1.872 -0.336,3.472 -1.008,4.8 -0.656,1.312 -1.584,2.312 -2.784,3 -1.184,0.672 -2.568,1.008 -4.152,1.008 -0.816,0 -1.584,-0.08 -2.304,-0.24 -0.72,-0.176 -1.344,-0.424 -1.872,-0.744 l 0.912,-1.872 c 0.816,0.528 1.896,0.792 3.24,0.792 1.744,0 3.104,-0.536 4.08,-1.608 0.992,-1.088 1.488,-2.664 1.488,-4.728 v -0.6 c -0.48,0.72 -1.144,1.272 -1.992,1.656 -0.848,0.368 -1.8,0.552 -2.856,0.552 -1.104,0 -2.096,-0.208 -2.976,-0.624 A 4.903,4.903 0 0 1 744.182,778 c -0.48,-0.784 -0.72,-1.68 -0.72,-2.688 0,-1.056 0.256,-1.984 0.768,-2.784 a 5.22,5.22 0 0 1 2.136,-1.848 c 0.896,-0.448 1.904,-0.672 3.024,-0.672 z m 0.216,8.448 c 0.752,0 1.424,-0.144 2.016,-0.432 0.592,-0.288 1.048,-0.68 1.368,-1.176 a 2.887,2.887 0 0 0 0.504,-1.656 c 0,-0.592 -0.16,-1.128 -0.48,-1.608 -0.304,-0.496 -0.76,-0.888 -1.368,-1.176 -0.592,-0.304 -1.312,-0.456 -2.16,-0.456 -1.104,0 -2,0.296 -2.688,0.888 -0.672,0.592 -1.008,1.384 -1.008,2.376 0,0.992 0.344,1.784 1.032,2.376 0.688,0.576 1.616,0.864 2.784,0.864 z"
       id="path35-5" />
    <path
       d="m 675.242,758.197 z m 5.952,-10.104 c 2.4,0 4.16,0.456 5.28,1.368 1.136,0.896 1.704,2.128 1.704,3.696 0,0.992 -0.24,1.888 -0.72,2.688 -0.464,0.784 -1.176,1.408 -2.136,1.872 -0.944,0.448 -2.112,0.672 -3.504,0.672 a 11.23,11.23 0 0 1 -3.432,-0.528 c -1.104,-0.368 -2.016,-0.872 -2.736,-1.512 l 1.104,-1.896 c 0.576,0.544 1.312,0.984 2.208,1.32 0.896,0.32 1.84,0.48 2.832,0.48 1.264,0 2.24,-0.264 2.928,-0.792 0.704,-0.544 1.056,-1.28 1.056,-2.208 0,-1.008 -0.384,-1.768 -1.152,-2.28 -0.768,-0.528 -2.08,-0.792 -3.936,-0.792 h -3.816 l 0.888,-8.784 h 9.48 v 2.088 h -7.464 l -0.456,4.608 z m 7.83,10.104 z m 6.36,-16.8 v 16.8 h -2.376 v -14.712 h -3.792 v -2.088 z m 2.522,16.8 z m 8.016,0.192 c -1.328,0 -2.512,-0.336 -3.552,-1.008 -1.024,-0.688 -1.832,-1.68 -2.424,-2.976 -0.592,-1.296 -0.888,-2.832 -0.888,-4.608 0,-1.776 0.296,-3.312 0.888,-4.608 0.592,-1.296 1.4,-2.28 2.424,-2.952 1.04,-0.688 2.224,-1.032 3.552,-1.032 1.312,0 2.48,0.344 3.504,1.032 1.04,0.672 1.856,1.656 2.448,2.952 0.592,1.296 0.888,2.832 0.888,4.608 0,1.776 -0.296,3.312 -0.888,4.608 -0.592,1.296 -1.408,2.288 -2.448,2.976 -1.024,0.672 -2.192,1.008 -3.504,1.008 z m 0,-2.136 c 1.344,0 2.416,-0.552 3.216,-1.656 0.816,-1.104 1.224,-2.704 1.224,-4.8 0,-2.096 -0.408,-3.696 -1.224,-4.8 -0.8,-1.104 -1.872,-1.656 -3.216,-1.656 -1.36,0 -2.448,0.552 -3.264,1.656 -0.8,1.104 -1.2,2.704 -1.2,4.8 0,2.096 0.4,3.696 1.2,4.8 0.816,1.104 1.904,1.656 3.264,1.656 z"
       id="path36-3" />
    <path
       d="m 639.047,726.605 z m 5.952,-10.104 c 2.4,0 4.16,0.456 5.28,1.368 1.136,0.896 1.704,2.128 1.704,3.696 0,0.992 -0.24,1.888 -0.72,2.688 -0.464,0.784 -1.176,1.408 -2.136,1.872 -0.944,0.448 -2.112,0.672 -3.504,0.672 a 11.23,11.23 0 0 1 -3.432,-0.528 c -1.104,-0.368 -2.016,-0.872 -2.736,-1.512 l 1.104,-1.896 c 0.576,0.544 1.312,0.984 2.208,1.32 0.896,0.32 1.84,0.48 2.832,0.48 1.264,0 2.24,-0.264 2.928,-0.792 0.704,-0.544 1.056,-1.28 1.056,-2.208 0,-1.008 -0.384,-1.768 -1.152,-2.28 -0.768,-0.528 -2.08,-0.792 -3.936,-0.792 h -3.816 l 0.888,-8.784 h 9.48 v 2.088 h -7.464 l -0.456,4.608 z m 7.83,10.104 z m 6.36,-16.8 v 16.8 h -2.377 v -14.712 h -3.792 v -2.088 h 6.168 z m 2.522,16.8 z m 6.36,-16.8 v 16.8 h -2.376 v -14.712 h -3.792 v -2.088 z"
       id="path37-1" />
  </g>
</svg>
